<svg width="560" height="320" viewBox="0 0 560 320" fill="none" xmlns="http://www.w3.org/2000/svg">
<path d="M434.029 177.155L417.986 140.779L374.589 159.874L364.322 136.588L359.091 23.972L390.841 10L433.541 106.814L447.3 100.764L457.315 123.47L443.556 129.526L459.607 165.902L434.029 177.155ZM386.092 127.696L407.963 118.066L378.764 51.8586L386.092 127.696Z" fill="#333333"/>
<path d="M430.545 178.741L414.501 142.364L371.105 161.453L360.852 138.166L355.607 25.5508L387.357 11.5859L430.056 108.4L443.815 102.343L453.831 125.056L440.079 131.127L456.123 167.51L430.545 178.741ZM382.608 129.275L404.478 119.645L375.279 53.4374L382.608 129.275Z" fill="#9ADAF3"/>
<path d="M387.86 197.147C387.86 197.147 385.302 214.219 386.265 219.967C387.227 225.716 400.002 251.241 400.002 251.241V254.75L390.252 259.537L393.126 266.074L397.121 265.12L393.284 283.311L401.59 285.062L412.295 261.769C412.295 261.769 430.825 256.028 431.141 254.592C431.457 253.157 428.109 230.976 428.109 230.976C428.109 230.976 423.956 210.882 421.24 204.173C419.444 199.817 417.425 195.554 415.176 191.406L387.86 197.147Z" fill="#333333"/>
<path d="M378.692 155.224L369.768 162.178L367.613 157.872L361.664 161.209C361.664 161.209 361.441 180.047 363.036 180.807C364.631 181.568 384.21 170.043 384.21 170.043C384.21 170.043 385.517 190.775 385.194 193.875C384.871 196.975 386.99 198.446 388.463 198.281C389.936 198.116 417.713 194.528 418.366 193.717C419.2 192.469 419.552 190.954 419.351 189.469C419.02 188.163 412.978 165.472 412.978 165.472C412.978 165.472 429.503 168.084 430.135 166.62C430.767 165.156 435.689 151.112 435.689 151.112L427.355 149.153L424.251 153.882C424.251 153.882 406.44 146.541 400.72 146.541C395.001 146.541 380.488 153.918 378.692 155.224Z" fill="white" stroke="#333333" stroke-miterlimit="10"/>
<path d="M361.7 161.209L360.909 143.326C360.909 143.326 357.698 137.191 357.626 136.71C357.999 134.184 358.517 131.687 359.178 129.225C359.523 128.185 361.333 129.225 362.26 131.084C363.187 132.942 362.734 135.468 362.734 135.468C362.734 135.468 364.847 138.626 365.22 140.054C365.393 141.238 365.278 142.436 364.904 143.57L367.649 157.851L361.7 161.209Z" fill="white" stroke="#333333" stroke-miterlimit="10"/>
<path d="M361.326 136.293L360.608 136.2C360.723 135.353 360.026 132.504 359.688 131.177C359.616 130.868 359.559 130.617 359.515 130.459C359.429 130.122 359.487 129.77 359.666 129.476C359.896 129.153 360.234 128.923 360.615 128.83L360.773 129.548C360.428 129.584 360.169 129.892 360.205 130.237C360.205 130.265 360.205 130.287 360.22 130.316C360.256 130.481 360.313 130.725 360.392 131.033C360.909 133.071 361.448 135.389 361.326 136.293Z" fill="#333333"/>
<path d="M427.391 148.422C427.391 148.422 439.799 127.367 440.934 126.757C442.069 126.147 450.756 126.377 450.756 126.377C450.756 126.377 454.104 121.741 454.557 122.272L455.016 122.81C455.016 122.81 456.231 122.092 456.611 122.502L456.992 122.882C456.992 122.882 457.833 122.2 458.285 122.43C458.738 122.659 458.745 123.341 458.745 123.341C458.745 123.341 459.658 122.81 459.464 123.793C459.27 124.776 456.417 129.649 455.282 130.331C454.147 131.012 442.493 131.048 442.493 131.048L436.178 149.749L427.391 148.422Z" fill="white" stroke="#333333" stroke-miterlimit="10"/>
<path d="M359.594 160.362L361.34 165.551L370.336 159.293L368.173 154.657L359.594 160.362Z" fill="white" stroke="#333333" stroke-miterlimit="10"/>
<path d="M413.502 127.64C413.481 129.627 413.208 131.601 412.683 133.517C411.864 136.129 414.156 138.411 413.502 139.258C412.669 140.033 411.735 140.693 410.722 141.217C410.722 141.217 409.745 145.623 408.107 146.24C406.468 146.857 401.899 144.934 401.899 144.934C401.899 144.934 397.811 139.71 400.591 135.146C403.372 130.582 413.502 127.64 413.502 127.64Z" fill="white" stroke="#333333" stroke-miterlimit="10"/>
<path d="M410.557 135.733C410.363 136.343 410.003 136.767 409.759 136.688C409.515 136.609 409.464 136.056 409.658 135.446C409.852 134.836 410.212 134.413 410.456 134.492C410.7 134.571 410.751 135.131 410.557 135.733Z" fill="#333333"/>
<path d="M416.937 119.967C416.937 119.967 418.733 124.215 416.606 126.985C414.479 129.755 409.091 129.928 405.829 134.162C402.567 138.396 403.867 143.957 404.687 145.751C405.506 147.545 404.191 154.406 401.906 155.382C399.621 156.357 395.856 157.018 396.877 159.3C397.897 161.582 398.996 165.5 398.019 167.459C397.042 169.418 390.834 172.848 385.927 171.047C381.02 169.246 381.185 165.658 382.493 163.211C383.8 160.764 381.185 161.905 378.404 157.986C375.624 154.068 372.197 147.222 376.608 143.785C381.02 140.347 384.454 139.214 384.785 135.948C385.115 132.683 383.427 124.933 387.658 121.668C391.89 118.403 394.312 119.178 394.312 119.178C394.312 119.178 398.328 114.729 402.747 114.729C407.165 114.729 408.954 117.506 408.954 117.506C408.954 117.506 414.479 113.114 416.937 119.967Z" fill="#333333"/>
<path d="M388.873 171.923C387.816 171.93 386.767 171.758 385.776 171.399C383.621 170.609 382.227 169.418 381.63 167.868C381.113 166.261 381.3 164.51 382.148 163.053C382.701 162.027 382.543 161.933 381.537 161.331C380.165 160.57 378.986 159.501 378.088 158.209C376.364 155.783 371.162 147.56 376.364 143.519C377.6 142.558 378.764 141.768 379.784 141.079C382.428 139.3 384.174 138.116 384.396 135.927C384.454 134.929 384.454 133.939 384.396 132.942C384.26 129.16 384.066 123.986 387.436 121.395C391.086 118.589 393.457 118.675 394.182 118.797C394.958 117.987 398.637 114.384 402.739 114.384C405.125 114.269 407.431 115.245 409.019 117.025C409.737 116.515 411.792 115.346 413.826 115.92C415.349 116.358 416.513 117.678 417.289 119.838C417.411 120.125 419.106 124.337 416.915 127.208C415.909 128.521 414.228 129.275 412.446 130.078C410.291 131.033 407.877 132.124 406.123 134.384C402.941 138.518 404.299 144.007 405.024 145.6C405.606 146.878 405.24 150.229 404.255 152.777C403.831 153.867 403.106 155.267 402.1 155.712C401.619 155.92 401.073 156.106 400.548 156.293C399.111 156.795 397.545 157.355 397.171 158.202C397.049 158.51 397.071 158.862 397.221 159.156C398.364 161.826 399.377 165.615 398.357 167.624C397.494 169.275 393.184 171.923 388.873 171.923ZM393.593 119.472C392.666 119.472 390.719 119.795 387.845 121.969C384.77 124.33 384.971 129.289 385.086 132.913C385.151 133.939 385.151 134.973 385.086 135.999C384.835 138.525 382.881 139.845 380.165 141.675C379.152 142.393 378.009 143.11 376.781 144.086C372.082 147.732 377.025 155.504 378.649 157.793C379.482 159.006 380.589 160.003 381.882 160.713C382.895 161.323 383.635 161.761 382.758 163.39C382.011 164.668 381.839 166.196 382.284 167.61C382.801 168.959 384.052 170.007 385.999 170.724C390.669 172.432 396.733 169.138 397.645 167.308C398.472 165.658 397.645 162.17 396.496 159.415C396.259 158.934 396.244 158.381 396.445 157.886C396.941 156.752 398.601 156.164 400.239 155.59C400.785 155.396 401.295 155.217 401.748 155.023C402.387 154.75 403.027 153.853 403.551 152.49C404.536 149.949 404.787 146.849 404.342 145.873C403.515 144.05 402.107 138.353 405.527 133.918C407.388 131.499 409.903 130.373 412.123 129.382C413.89 128.586 415.421 127.904 416.312 126.734C418.287 124.158 416.613 120.111 416.592 120.075C415.873 118.137 414.889 116.968 413.603 116.602C411.447 115.984 409.163 117.771 409.141 117.786L408.832 118.03L408.617 117.699C408.545 117.592 406.856 115.087 402.711 115.087C398.565 115.087 394.585 119.393 394.549 119.393L394.391 119.565L394.168 119.494C393.974 119.465 393.773 119.458 393.579 119.472H393.593Z" fill="#333333"/>
<path d="M426.737 146.577L425.271 150.33L435.89 154.083L437.363 148.206L426.737 146.577Z" fill="white" stroke="#333333" stroke-miterlimit="10"/>
<path d="M393.105 266.096L390.252 259.537C390.252 259.537 374.532 265.041 370.465 267.51C370.372 267.567 370.293 267.617 370.214 267.668C370.178 267.689 370.149 267.711 370.113 267.732C370.048 267.775 369.984 267.818 369.934 267.861C369.854 267.919 369.79 267.976 369.732 268.027C369.711 268.048 369.689 268.07 369.668 268.091C369.632 268.134 369.596 268.17 369.574 268.206C369.56 268.22 369.553 268.242 369.546 268.256C369.524 268.306 369.502 268.357 369.51 268.4C369.761 269.921 374.697 283.197 376.694 285.35C378.067 286.828 378.929 287.89 379.461 287.833C379.547 287.826 379.626 287.775 379.698 287.704C379.698 287.704 379.712 287.696 379.712 287.689C379.827 287.553 379.913 287.33 379.985 287C380.359 285.228 379.863 283.082 379.863 282.192C379.863 281.302 380.876 271.191 381.257 270.71C381.638 270.23 393.105 266.096 393.105 266.096Z" fill="white" stroke="#333333" stroke-miterlimit="10"/>
<path d="M406.116 306.175C404.945 305.744 401.726 304.933 401.726 304.933L397.027 298.762V298.783L397.006 298.762L401.597 285.063L393.291 283.312C393.291 283.312 390.504 292.906 388.794 299.372L388.751 299.357C388.557 300.19 388.37 300.943 388.212 301.611C387.924 302.759 387.702 303.699 387.579 304.316C387.5 304.704 387.464 304.984 387.479 305.091C387.68 306.218 393.392 307.962 395.583 308.615C397.775 309.268 403.35 309.017 404.837 308.414C406.325 307.811 407.266 306.605 406.116 306.168V306.175Z" fill="white" stroke="#333333" stroke-miterlimit="10"/>
<path d="M297.747 208.845C288.522 210.538 280.497 209.878 273.671 206.857C266.759 203.764 260.911 198.705 256.873 192.304C252.504 185.608 249.444 177.506 247.691 168.012L233.838 92.9279C232.035 83.1396 231.906 74.2914 233.45 66.3761C234.995 58.4608 238.429 51.8802 243.739 46.6273C249.041 41.3671 256.435 37.8652 265.911 36.1285C275.259 34.4134 283.32 35.0665 290.088 38.0948C296.857 41.1232 302.367 46.0604 306.614 52.9136C310.881 59.7525 313.92 68.0697 315.724 77.858L329.576 152.942C331.329 162.458 331.358 171.112 329.662 178.913C328.175 186.326 324.533 193.136 319.18 198.489C313.863 203.742 306.721 207.194 297.747 208.845ZM292.596 180.714C296.009 180.083 298.258 178.454 299.342 175.834C300.463 172.992 300.973 169.95 300.83 166.9C300.765 163.836 300.463 160.786 299.932 157.765L286.28 83.9218C285.684 80.7428 284.879 77.6068 283.866 74.5282C282.954 71.5501 281.409 68.8088 279.34 66.4837C277.378 64.3524 274.627 63.6133 271.092 64.2591C267.557 64.905 265.222 66.577 264.079 69.2825C262.915 72.1816 262.427 75.3104 262.642 78.4249C262.786 81.6614 263.145 84.8835 263.72 88.0697L277.335 161.912C277.91 164.926 278.722 167.883 279.749 170.775C280.719 173.703 282.35 176.365 284.52 178.554C286.597 180.599 289.291 181.324 292.596 180.714Z" fill="#333333"/>
<path d="M293.63 209.792C284.405 211.492 276.38 210.832 269.547 207.804C262.635 204.711 256.794 199.644 252.756 193.251C248.387 186.555 245.327 178.453 243.574 168.959L229.721 93.8749C227.918 84.0866 227.788 75.2383 229.333 67.323C230.878 59.4077 234.298 52.8272 239.608 47.5742C244.91 42.3141 252.303 38.8121 261.78 37.0755C271.127 35.3604 279.182 36.0134 285.957 39.0489C292.732 42.0844 298.236 47.0216 302.482 53.8605C306.75 60.7066 309.789 69.0238 311.592 78.8121L325.438 153.889C327.191 163.405 327.219 172.059 325.524 179.86C324.029 187.28 320.379 194.09 315.02 199.436C309.732 204.689 302.604 208.141 293.63 209.792ZM288.443 181.661C291.856 181.037 294.105 179.408 295.189 176.788C296.31 173.947 296.82 170.897 296.677 167.847C296.612 164.783 296.31 161.726 295.771 158.712L282.156 84.8688C281.56 81.6897 280.748 78.5466 279.735 75.4752C278.822 72.497 277.285 69.7558 275.216 67.4307C273.254 65.2993 270.502 64.5602 266.967 65.2061C263.432 65.8519 261.097 67.524 259.955 70.2294C258.791 73.1286 258.302 76.2574 258.518 79.3718C258.676 82.6011 259.035 85.8232 259.61 89.0094L273.261 162.845C273.836 165.859 274.648 168.823 275.675 171.708C276.624 174.636 278.233 177.305 280.381 179.508C282.465 181.546 285.152 182.264 288.443 181.661Z" fill="#9ADAF3"/>
<path d="M247.662 115.117C247.662 115.117 254.013 120.801 254.94 120.801C255.867 120.801 256.794 118.024 258.252 120.004C259.711 121.985 258.252 124.238 258.252 124.238C258.252 124.238 264.079 130.589 263.152 131.78C262.226 132.972 257.857 135.483 257.857 135.483L256.93 146.592L245.011 143.284L244.881 139.186L238.652 135.081C238.652 135.081 235.347 129.527 237.596 124.109C239.845 118.691 247.662 115.117 247.662 115.117Z" fill="white" stroke="#333333" stroke-miterlimit="10"/>
<path d="M247.662 115.116C247.662 115.116 241.433 120.534 242.101 121.195C242.769 121.855 246.074 122.78 245.542 123.706C245.011 124.632 243.552 127.545 243.552 127.545C243.552 127.545 246.203 128.981 246.074 129.792C245.945 130.603 245.277 131.378 244.881 131.227C244.486 131.076 240.642 129.792 240.247 131.887C239.852 133.983 241.569 135.985 243.028 136.652C244.486 137.319 246.864 135.855 246.864 135.855C246.864 135.855 245.277 139.027 244.881 139.164C244.486 139.3 237.33 136.121 234.55 134.93C231.769 133.739 229.254 132.023 229.915 129.11C230.576 126.196 231.352 122.501 233.889 120.384C235.527 118.984 237.071 117.477 238.523 115.884C238.523 115.884 234.93 113.904 237.596 112.841C239.356 112.232 241.267 112.232 243.028 112.841C243.028 112.841 242.101 109.935 244.465 110.466C246.828 110.997 248.05 112.598 247.662 115.116Z" fill="#333333"/>
<path d="M252.763 122.573C253.245 123.168 253.338 123.893 252.972 124.195C252.605 124.496 251.908 124.252 251.427 123.656C250.945 123.061 250.852 122.336 251.218 122.035C251.585 121.733 252.282 121.977 252.763 122.573Z" fill="#333333"/>
<path d="M237.926 292.741C237.926 292.741 238.58 299.271 239.234 300.254C239.888 301.238 246.095 304.331 247.403 305.637C248.711 306.943 245.765 307.926 244.299 308.579C242.834 309.232 241.188 309.067 238.25 308.249C235.311 307.431 232.502 304.984 230.734 304.173C228.967 303.362 224.361 301.883 224.685 300.742C225.008 299.601 230.734 290.294 230.734 290.294L237.926 292.741Z" fill="white" stroke="#333333" stroke-miterlimit="10"/>
<path d="M302.317 296.006C302.317 296.006 309.502 305.335 309.997 305.479C311.176 305.866 315.997 300.592 316.938 299.824C319.704 297.621 322.126 295.016 324.123 292.095C324.928 290.875 327.37 286.727 325.38 285.4C322.909 283.756 319.92 287.617 317.865 288.5C316.694 289.002 313.432 290.437 313.432 290.437L302.317 296.006Z" fill="white" stroke="#333333" stroke-miterlimit="10"/>
<path d="M244.134 208.679C244.134 208.679 244.623 217.004 245.276 218.008C245.93 219.013 248.222 226.62 248.222 226.62L243.02 256.509L229.779 289.641L239.263 293.889L258.216 258.956C258.216 258.956 264.754 242.142 264.92 241.654C265.085 241.166 302.346 296.006 302.346 296.006L310.191 290.947L285.346 236.918L273.089 207.861L244.134 208.679Z" fill="#95C03D" stroke="#333333"/>
<path d="M229.915 283.764L228.608 291.112L239.069 295.683L242.992 289.806L229.915 283.764Z" fill="white" stroke="#333333" stroke-miterlimit="10"/>
<path d="M298.717 294.212L302.971 298.46L313.425 290.459L309.509 285.564L298.717 294.212Z" fill="white" stroke="#333333" stroke-miterlimit="10"/>
<path d="M243.286 145.665C243.286 145.665 238.918 161.797 239.45 166.031C239.981 170.265 238.523 210.208 238.523 210.208C245.248 212.023 252.246 212.604 259.179 211.923C270.323 210.731 276.789 208.629 276.789 208.629C276.789 208.629 265.667 164.589 263.813 159.3C261.96 154.011 257.347 147.926 257.347 147.926L243.286 145.665Z" fill="white" stroke="#333333" stroke-miterlimit="10"/>
<path d="M243.689 141.432L241.964 146.591L259.84 151.22L260.372 145.271L243.689 141.432Z" fill="white" stroke="#333333" stroke-miterlimit="10"/>
<path d="M284.865 205.314L288.579 206.239C288.579 206.239 290.167 203.986 291.36 203.591C292.553 203.197 294.004 203.462 295.463 203.462C296.921 203.462 298.243 201.474 299.436 202.4C300.628 203.326 298.775 204.388 298.107 204.653C297.438 204.919 294.27 205.579 294.27 205.579C294.27 205.579 301.814 207.825 302.346 207.825C302.877 207.825 301.95 209.146 301.289 209.54C300.628 209.935 298.344 210.064 298.344 210.064C298.344 210.064 294.636 211.392 292.783 211.499C290.929 211.607 286.029 210.064 286.029 210.064L282.982 208.873L281.129 208.213L284.865 205.314Z" fill="white" stroke="#333333" stroke-miterlimit="10"/>
<path d="M247.525 152.942C247.525 152.942 241.964 157.966 243.423 162.594C244.881 167.223 279.972 211.5 279.972 211.5L287.25 204.625L256.672 153.732" fill="white"/>
<path d="M247.525 152.942C247.525 152.942 241.964 157.966 243.423 162.594C244.881 167.223 279.972 211.5 279.972 211.5L287.25 204.625L256.672 153.732" stroke="#333333" stroke-miterlimit="10"/>
<path d="M132.855 190.402L141.994 151.715L95.8462 140.836L101.702 116.057L165.467 23.0537L199.236 31.0121L174.901 133.997L189.536 137.442L183.825 161.597L169.196 158.152L160.05 196.839L132.855 190.402ZM124.471 122.078L147.706 127.539L164.339 57.1262L124.471 122.078Z" fill="#333333"/>
<path d="M129.134 189.583L138.28 150.896L92.1388 140.017L97.9873 115.245L161.753 22.2275L195.521 30.1931L171.172 133.15L185.8 136.601L180.096 160.756L165.46 157.305L156.321 195.991L129.134 189.583ZM120.72 121.259L143.985 126.741L160.625 56.3215L120.72 121.259Z" fill="#9ADAF3"/>
<path d="M100.94 118.446C100.94 118.446 96.6796 122.601 96.3707 125.199C96.0617 127.797 92.419 138.59 93.6692 140.671C94.9193 142.752 101.572 146.9 101.572 146.9C101.572 146.9 93.468 148.974 94.0859 153.229C94.7038 157.485 97.6208 157.901 97.6208 157.901C97.6208 157.901 91.0754 161.747 93.2596 164.546C95.4438 167.345 100.638 166.936 101.472 164.654C102.305 162.372 100.753 159.458 100.753 159.458C100.753 159.458 104.913 158.217 105.955 156.451C106.573 155.418 106.825 154.212 106.674 153.021C106.674 153.021 110.316 153.645 112.501 152.088C114.685 150.531 115.619 145.63 115.619 145.63C115.619 145.63 123.307 141.266 126.008 134.205C128.71 127.144 127.776 124.237 126.008 122.063C124.241 119.889 111.351 113.452 107.407 114.27C104.856 114.923 102.586 116.387 100.94 118.446Z" fill="#333333"/>
<path d="M109.778 144.718L111.861 154.377L122.567 148.141L119.693 143.993C119.693 143.993 112.256 146.483 109.778 144.718Z" fill="white"/>
<path d="M111.61 154.93L109.232 143.893L109.986 144.424C112.307 146.06 119.47 143.706 119.542 143.649L119.793 143.562L123.084 148.256L111.61 154.93ZM110.288 145.378L112.106 153.817L122.049 148.026L119.513 144.438C118.27 144.811 113.011 146.368 110.288 145.378Z" fill="#333333"/>
<path d="M109.153 124.468L102.607 135.993C102.607 135.993 105 141.289 106.451 142.954C107.902 144.618 109.677 146.692 114.563 147.209C119.448 147.726 122.358 142.954 122.567 139.839C122.775 136.725 119.441 127.482 119.441 127.482L109.153 124.468Z" fill="white" stroke="#333333" stroke-miterlimit="10"/>
<path d="M103.441 137.033C103.441 137.033 100.322 135.791 101.048 138.382C101.774 140.972 105.1 140.98 105.1 140.98L103.441 137.033Z" fill="white" stroke="#333333" stroke-miterlimit="10"/>
<path d="M120.282 130.179C120.368 129.533 120.964 129.074 121.611 129.16C121.848 129.189 122.078 129.296 122.258 129.461C123.817 130.502 121.733 134.341 121.733 134.341L120.282 130.179Z" fill="white" stroke="#333333" stroke-miterlimit="10"/>
<path d="M109.706 135.568C109.972 136.114 109.893 136.695 109.533 136.867C109.174 137.039 108.664 136.752 108.398 136.214C108.132 135.676 108.211 135.087 108.571 134.915C108.93 134.743 109.44 135.03 109.706 135.568Z" fill="#333333"/>
<path d="M160.869 127.496C160.869 127.496 166.804 123.47 167.228 123.047C167.652 122.623 170.202 120.894 171.366 119.968C172.53 119.042 172.853 115.842 174.125 116.38C175.181 116.76 175.727 117.923 175.346 118.978C175.325 119.028 175.311 119.078 175.289 119.128C174.865 120.083 172.746 121.784 172.746 121.784C172.746 121.784 178.58 120.614 178.896 121.253C179.241 122.071 179.205 123.004 178.795 123.793C178.371 124.324 177.84 124.955 177.84 124.955C177.84 124.955 177.416 128.544 176.776 129.728C176.137 130.912 173.701 131.636 172.006 131.636C170.31 131.636 166.804 132.06 166.804 132.06L162.881 133.646L160.869 127.496Z" fill="white" stroke="#333333" stroke-miterlimit="10"/>
<path d="M108.973 191.558L108.693 196.409L139.056 193.639L137.669 189.211L108.973 191.558Z" fill="#5FC1E8" stroke="#333333" stroke-miterlimit="10"/>
<path d="M111.38 152.583C111.38 152.583 106.099 155.669 104.698 158.066C103.297 160.462 92.304 178.03 93.1015 180.032C93.899 182.034 97.4986 184.424 99.1008 184.424C100.703 184.424 114.907 186.62 114.907 186.62L112.659 154.808L111.38 152.583Z" fill="#5FC1E8" stroke="#333333" stroke-miterlimit="10"/>
<path d="M160.869 127.495C160.869 127.495 113.981 150.588 110.575 152.181C107.169 153.774 103.685 161.187 104.533 167.014C105.38 172.841 109.411 179.214 109.727 180.154C110.043 181.094 108.664 189.052 108.348 190.538C108.032 192.023 108.139 193.186 109.519 193.817C110.898 194.449 137.094 190.854 138.05 190.323C139.005 189.791 139.853 188.521 139.221 186.297C138.589 184.072 135.93 178.245 135.93 177.685C135.93 177.126 131.368 162.615 131.368 162.615C131.368 162.615 152.793 144.495 155.236 141.525C157.679 138.554 162.873 133.581 162.873 133.581L160.869 127.495Z" fill="#5FC1E8" stroke="#333333" stroke-miterlimit="10"/>
<path d="M122.416 266.038L116.732 288.055L113.14 293.587L110.783 301.481L115.633 303.835C115.633 303.835 118.263 301.209 119.793 302.73C121.324 304.251 121.453 306.885 121.453 306.885C121.453 306.885 128.781 309.095 130.319 308.973C131.857 308.851 134.199 309.253 134.479 308.557C134.759 307.861 134.896 302.608 134.199 301.912C133.717 301.431 128.681 299.823 125.469 297.068C124.032 295.862 123.005 292.21 122.832 292.08C122.279 291.664 134.199 267.574 134.199 267.574L122.416 266.038Z" fill="white" stroke="#333333" stroke-miterlimit="10"/>
<path d="M134.479 308.558C134.752 307.84 134.896 302.609 134.199 301.913C133.717 301.432 128.681 299.825 125.469 297.069C124.032 295.863 123.005 292.211 122.832 292.081C122.775 292.038 122.832 291.744 123.026 291.263L116.323 288.694L113.133 293.603L110.776 301.497L115.626 303.85C115.626 303.85 118.256 301.224 119.786 302.745C121.316 304.267 121.446 306.9 121.446 306.9C121.446 306.9 128.781 309.096 130.319 308.974C131.857 308.852 134.199 309.254 134.479 308.558Z" fill="#333333"/>
<path d="M143.489 259.264L157.061 293.092C157.061 293.092 156.185 298.202 157.061 299.551C158.124 301.617 159.087 303.742 159.935 305.909L167.17 304.165C167.17 304.165 166.552 301.668 168.542 301.797C169.764 301.876 170.957 302.22 172.041 302.794C172.041 302.794 177.904 299.673 179.65 298.675C181.396 297.678 182.273 296.314 182.143 295.805C182.014 295.295 180.275 291.442 178.278 291.815C176.28 292.188 172.53 293.81 170.669 293.81C168.808 293.81 164.677 292.439 163.808 290.939C162.938 289.439 157.083 264.352 157.083 264.352L155.416 252.31L149.459 231.951L143.489 259.264Z" fill="white" stroke="#333333" stroke-miterlimit="10"/>
<path d="M182.136 295.834C182.014 295.339 180.268 291.471 178.271 291.844C176.273 292.217 172.523 293.839 170.662 293.839C168.801 293.839 164.67 292.469 163.8 290.969C163.642 290.617 163.506 290.251 163.405 289.878L156.867 292.612L157.061 293.086C157.061 293.086 156.184 298.195 157.061 299.544C158.124 301.611 159.087 303.735 159.935 305.902L167.17 304.159C167.17 304.159 166.552 301.661 168.542 301.79C169.764 301.869 170.956 302.214 172.041 302.788C172.041 302.788 177.904 299.666 179.65 298.669C181.396 297.671 182.265 296.336 182.136 295.834Z" fill="#333333"/>
<path d="M150.101 235.601L149.129 235.621L142.105 268.093C141.996 268.106 141.858 268.121 141.688 268.139C141.142 268.197 140.268 268.278 138.964 268.373C136.356 268.563 132.03 268.805 125.174 269.013C116.802 269.237 108.43 268.891 100.106 267.967L109.11 196.891L138.746 194.172L138.763 194.219L139.184 195.383C139.549 196.389 140.072 197.831 140.706 199.577C141.975 203.069 143.69 207.776 145.474 212.64C149.038 222.355 152.892 232.728 154.011 235.241C154.543 236.438 155.193 238.781 155.87 241.67C156.544 244.542 157.236 247.91 157.859 251.126C158.482 254.342 159.036 257.402 159.434 259.658C159.633 260.787 159.793 261.714 159.903 262.359C159.943 262.589 159.976 262.784 160.002 262.939L157.455 263.752L150.101 235.601Z" fill="#666666" stroke="#333333"/>
<path d="M104.712 133.724C104.712 132.059 106.063 130.71 107.73 130.71C108.319 130.71 108.872 130.882 109.339 131.176" stroke="#333333" stroke-linecap="round" stroke-linejoin="round"/>
<path d="M117.595 138.812C117.595 140.477 116.093 141.826 114.239 141.826C113.578 141.826 112.968 141.654 112.45 141.36" stroke="#333333" stroke-linecap="round" stroke-linejoin="round"/>
<path d="M112.709 130.215C112.709 128.55 114.06 127.201 115.727 127.201C116.316 127.201 116.869 127.373 117.336 127.668" stroke="#333333" stroke-linecap="round" stroke-linejoin="round"/>
<path d="M115.173 133.445C115.504 132.497 116.546 131.995 117.494 132.325" stroke="#333333" stroke-linecap="round" stroke-linejoin="round"/>
<path d="M112.838 136.2L113.327 138.626L114.383 138.26" stroke="#333333" stroke-linecap="round" stroke-linejoin="round"/>
<path d="M132 162.085L120.282 170.682" stroke="#333333" stroke-linecap="round" stroke-linejoin="round"/>
<path d="M107.644 176.071L102.104 178.073" stroke="#333333" stroke-linecap="round" stroke-linejoin="round"/>
<path d="M105.344 178.805L107.644 176.071" stroke="#333333" stroke-linecap="round" stroke-linejoin="round"/>
<path d="M123.508 171.665L126.669 165.996" stroke="#333333" stroke-linecap="round" stroke-linejoin="round"/>
<path d="M248.093 121.697C247.978 120.7 248.696 119.795 249.695 119.681" stroke="#333333" stroke-linecap="round" stroke-linejoin="round"/>
<path d="M404.665 253.014L414.573 249.103L405.807 224.065L398.673 218.812" stroke="white" stroke-miterlimit="10" stroke-linecap="round"/>
<path d="M409.536 132.332C410.204 131.944 411.016 132.095 411.354 132.676" stroke="#333333" stroke-linecap="round" stroke-linejoin="round"/>
<path d="M408.911 142.193C408.142 142.193 407.517 141.655 407.51 140.987" stroke="#333333" stroke-linecap="round" stroke-linejoin="round"/>
<path d="M369.768 162.178L366.018 165.185" stroke="#333333" stroke-linecap="round" stroke-linejoin="round"/>
<path d="M413.488 165.55L404.205 164.488" stroke="#333333" stroke-linecap="round" stroke-linejoin="round"/>
<path d="M410.679 165.228L405.534 167.144" stroke="#333333" stroke-linecap="round" stroke-linejoin="round"/>
<path d="M409.615 173.279C405.807 185.651 395.231 190.05 395.231 190.05" stroke="#333333" stroke-linecap="round" stroke-linejoin="round"/>
<path d="M264.884 241.439L259.883 234.019" stroke="#333333" stroke-miterlimit="10" stroke-linecap="round"/>
<path d="M30.7122 40.0637C30.5024 38.5183 32.0635 37.3381 33.4932 37.9613L72.1828 54.8269C73.5851 55.4381 73.81 57.3332 72.5898 58.2556L39.5778 83.2123C38.3576 84.1348 36.5957 83.4017 36.3899 81.886L30.7122 40.0637Z" stroke="#9ADAF3" stroke-width="2"/>
<path d="M527.806 147.608C529.078 146.706 530.848 147.543 530.958 149.098L533.496 184.952C533.604 186.478 532.029 187.555 530.646 186.901L498.785 171.835C497.403 171.181 497.236 169.28 498.484 168.395L527.806 147.608Z" stroke="white" stroke-width="2"/>
<path d="M37.9456 181.181C36.8436 180.078 37.3728 178.194 38.8882 177.825L49.948 175.135C51.4343 174.773 52.7598 176.146 52.3462 177.619L49.3287 188.364C48.9151 189.836 47.0687 190.319 45.9879 189.236L37.9456 181.181Z" fill="white"/>
<path d="M505.946 243.181C504.844 242.078 505.373 240.194 506.888 239.825L517.948 237.135C519.434 236.773 520.76 238.146 520.346 239.619L517.329 250.364C516.915 251.836 515.069 252.319 513.988 251.236L505.946 243.181Z" fill="#5FC1E8"/>
<path d="M494.343 27.7836C492.9 28.3736 491.366 27.1576 491.612 25.6175L493.403 14.377C493.644 12.8665 495.422 12.1743 496.621 13.1247L505.366 20.0592C506.564 21.0096 506.296 22.899 504.88 23.4776L494.343 27.7836Z" fill="#5FC1E8"/>
</svg>
