<svg width="160" height="160" viewBox="0 0 160 160" fill="none" xmlns="https://www.w3.org/2000/svg">
<g clip-path="url(#clip0_814_677)">
<path d="M68.4796 39.339C72.8712 35.8071 79.1289 35.8071 83.5205 39.339L137.456 82.716C143.402 87.4978 143.434 96.5415 137.522 101.365L83.5861 145.371C79.1704 148.973 72.8297 148.973 68.4139 145.371L14.4783 101.365C8.56633 96.5415 8.59813 87.4978 14.5439 82.716L68.4796 39.339Z" fill="#07569D"/>
<path d="M102.006 86.9069C102.006 86.9069 110.789 87.3828 112.583 97.471C114.378 107.559 112.189 121.048 112 122C108.5 125.5 101.5 131 101 131L98.7 86.4311L102.006 86.9069Z" fill="#9ADAF3" stroke="#444444" stroke-linecap="round" stroke-linejoin="round"/>
<path d="M85 144.5C87.6977 142.252 101 131 101 131C101 129.097 102.856 97.9468 102.856 97.9468L103.139 90.2379C99.3611 88.3345 95.7722 86.2407 92.1833 83.9566C89.1611 81.8629 86.8 82.2435 86.7056 79.1029C86.6111 76.0574 87.3667 67.1113 87.3667 67.1113C87.3667 67.1113 84.9111 68.3485 79.6222 68.063C75.9389 67.7775 72.35 66.8258 69.0445 65.3982C69.0445 65.3982 69.1389 75.296 68.1945 77.1043C67.25 78.9125 61.1111 78.7222 61.1111 78.7222C61.1111 78.7222 54.7833 77.0091 49.6833 78.627C46.1889 79.7691 44.5833 80.1498 44.5833 80.1498C44.5833 80.1498 32.9667 81.387 32.3056 81.6725C31.6444 81.958 28.3389 95.5675 29.7556 98.5179C31.1722 101.468 35.1389 102.23 35.7056 102.42C36.2722 102.61 48.6444 101.373 48.6444 101.373C48.6444 101.373 50.4389 103.562 50.4389 104.514C50.4389 105.465 50.7222 131.733 50.7222 131.733L66.5 144C66.5 144 76 152 85 144.5Z" fill="#9ADAF3" stroke="#444444" stroke-linecap="round" stroke-linejoin="round"/>
<path d="M69.8 23.9034C68.1944 24.76 66.5889 25.902 65.2667 27.1393C62.8111 29.1379 60.5444 31.422 58.4667 33.9916C58.1833 34.3723 57.9 34.753 57.6167 35.1337C57.05 35.9902 56.4833 36.9419 56.1056 37.8936C53.2722 44.8411 55.7278 52.55 55.5389 55.5004C55.35 58.4507 55.2556 60.6396 54.1222 62.0672C52.9889 63.4948 49.4944 65.3982 49.3056 68.1582C49.1167 70.9181 53.7444 70.9181 53.2722 72.6312C52.8 74.3443 50.5333 74.725 50.25 76.5332C49.8722 78.1512 50.0611 79.7691 50.9111 81.1966C51.6667 82.3387 102.1 92.6172 102.1 92.6172C103.422 91.0945 103.8 88.9055 103.233 87.0021C102.289 83.5759 100.494 81.5773 100.683 80.9111C100.872 80.2449 107.106 79.2932 106.728 75.5815C106.35 71.8698 103.706 70.1568 103.233 68.063C102.761 65.9692 100.778 53.1211 100.211 44.9363C99.6444 36.7516 98.9833 34.0868 94.3556 28.8523C90.9556 25.0455 85.2889 23.3324 80.3778 22.7614C77.9222 22.3807 75.4667 22.3807 73.1056 22.8565C71.8778 23.0469 70.8389 23.4276 69.8 23.9034Z" fill="#444444" stroke="#444444" stroke-linecap="round" stroke-linejoin="round"/>
<path d="M40.8056 87.3828C40.8056 87.3828 41.4667 93.7593 39.1056 98.8034" stroke="#444444" stroke-linecap="round" stroke-linejoin="round"/>
<path d="M86.7056 78.2463C86.6111 75.2009 87.4611 67.1113 87.4611 67.1113C87.4611 67.1113 85.0056 68.3485 79.7167 68.063C76.0333 67.7775 72.4445 66.8258 69.1389 65.3982C69.1389 65.3982 69.2333 75.296 68.2889 77.1043C67.5333 78.4367 63.6611 78.1512 62.0556 78.5319C62.9056 80.5305 63.4722 82.5291 63.6611 84.718C64.2278 89.7621 65.7389 97.6613 65.7389 97.6613L92.4667 101.944C93.0333 97.3758 93.3167 92.7124 93.4111 88.1442C93.4111 87.0021 93.3167 85.7649 93.2222 84.718C92.8445 84.4325 92.5611 84.2421 92.2778 83.9566C89.5389 81.387 86.8945 81.2918 86.7056 78.2463Z" fill="white" stroke="#444444" stroke-linecap="round" stroke-linejoin="round"/>
<path d="M64.7 80.6256C64.7 80.6256 72.9167 83.1001 74.05 83.8614" stroke="#444444" stroke-linecap="round" stroke-linejoin="round"/>
<path d="M91.3333 86.3359H84.5333" stroke="#444444" stroke-linecap="round" stroke-linejoin="round"/>
<path d="M63.6611 48.9335C63.6611 48.9335 61.0167 48.1722 60.9222 51.2177C60.8278 54.2631 64.7 56.6424 64.7 56.6424L63.6611 48.9335Z" fill="white" stroke="#444444" stroke-linecap="round" stroke-linejoin="round"/>
<path d="M92.5611 48.8384C92.5611 48.8384 95.2056 47.9818 95.3945 51.0273C95.5834 54.0728 91.8056 56.6424 91.8056 56.6424L92.5611 48.8384Z" fill="white" stroke="#444444" stroke-linecap="round" stroke-linejoin="round"/>
<path d="M73.5778 32.6592C73.5778 32.6592 64.0389 39.0357 63.4722 41.7005C62.9056 44.3653 64.1333 60.8299 66.1167 63.6851C69.9889 69.3002 74.6167 72.1553 77.5445 72.4408C78.8667 72.7264 80.1889 72.536 81.3222 71.7746C82.4556 71.2988 90.0111 67.8726 91.8056 63.2092C92.8444 60.4492 93.7889 47.2204 93.7889 47.2204C91.5222 44.9363 89.0667 42.8425 86.5167 40.9391C83.3056 38.5598 73.5778 32.6592 73.5778 32.6592Z" fill="white" stroke="#444444" stroke-linecap="round" stroke-linejoin="round"/>
<path d="M68.2889 45.6977C70.1778 44.2701 72.8222 44.0798 74.9 45.2218" stroke="#444444" stroke-linecap="round" stroke-linejoin="round"/>
<path d="M82.2667 45.317C84.4389 44.3653 86.9889 44.746 88.8778 46.1735" stroke="#444444" stroke-linecap="round" stroke-linejoin="round"/>
<path d="M77.2611 55.2148C76.9778 56.1666 80.85 57.499 80.85 55.31" stroke="#444444" stroke-linecap="round" stroke-linejoin="round"/>
<path d="M84.25 59.4976C80.9445 61.6865 77.2611 62.0672 73.9556 60.83C73.9556 60.83 74.1445 63.7803 78.8667 63.8754C83.4 63.8754 84.25 59.4976 84.25 59.4976Z" fill="white" stroke="#444444" stroke-linecap="round" stroke-linejoin="round"/>
<path d="M73.2 51.3128C73.7738 51.3128 74.2389 50.6736 74.2389 49.8852C74.2389 49.0968 73.7738 48.4576 73.2 48.4576C72.6263 48.4576 72.1611 49.0968 72.1611 49.8852C72.1611 50.6736 72.6263 51.3128 73.2 51.3128Z" fill="#444444"/>
<path d="M85.3833 50.1707C85.3833 51.0273 84.9111 51.5983 84.3445 51.5983C83.7778 51.5983 83.3056 50.9321 83.3056 50.1707C83.3056 49.4094 83.7778 48.7432 84.3445 48.7432C84.9111 48.7432 85.3833 49.4094 85.3833 50.1707Z" fill="#444444"/>
<path d="M22.2 74.2491C22.2 74.2491 20.5945 88.7152 21.8222 93.3786C23.05 98.042 29.6611 102.515 32.3056 102.134C34.95 101.754 37.0278 95.5675 36.5556 91.38C36.0833 87.1924 30.9833 72.7264 30.9833 72.7264L22.2 74.2491Z" fill="white" stroke="#444444" stroke-linecap="round" stroke-linejoin="round"/>
<path d="M39.5778 84.3373C42.0333 89.0007 43.1667 94.2351 43.0722 99.5647" stroke="#444444" stroke-linecap="round" stroke-linejoin="round"/>
<path d="M26.0722 54.0728C26.2611 52.9307 26.6389 51.7886 27.1111 50.8369C27.7722 49.6949 28.2445 48.4576 28.3389 47.1252" stroke="white" stroke-linecap="round" stroke-linejoin="round"/>
<path d="M29 54.0728C29.0944 52.7404 29.4722 51.5031 30.0389 50.2659C31.1722 48.077 31.4556 45.5073 30.7 43.1281" stroke="white" stroke-linecap="round" stroke-linejoin="round"/>
<path d="M15.3056 57.0231H36.0834V66.2547C36.0834 72.0602 31.4556 76.7236 25.6945 76.7236C19.9334 76.7236 15.3056 72.0602 15.3056 66.2547V57.0231Z" fill="white" stroke="#444444" stroke-linecap="round" stroke-linejoin="round"/>
<path d="M36.1778 57.8797C36.1778 57.8797 39.2944 56.7376 41.5611 57.1183C43.8278 57.499 44.0167 60.5445 43.9222 62.8286C43.8278 65.1127 42.8833 67.2065 41.1833 68.3485C39.5778 69.4906 35.6111 69.5857 35.6111 69.5857L36.0833 68.1582C36.0833 68.1582 38.9167 68.3485 40.4278 66.6354C41.8444 64.8272 42.1278 60.9251 40.9944 60.0686C39.8611 59.212 36.1778 59.6879 36.1778 59.6879V57.8797Z" fill="white" stroke="#444444" stroke-linecap="round" stroke-linejoin="round"/>
<path d="M17.3833 59.9734C17.3833 59.9734 14.55 59.3072 13.6056 60.3541C12.6611 61.401 13.1333 63.114 13.9833 63.4947C15.4945 63.8754 17.0056 63.8754 18.5167 63.3996C19.2722 62.7334 19.4611 61.5913 19.0833 60.6396C18.6111 59.9734 17.3833 59.9734 17.3833 59.9734Z" fill="white" stroke="#444444" stroke-linecap="round" stroke-linejoin="round"/>
<path d="M16.8167 64.2562C16.8167 64.2562 13.9833 63.59 13.0389 64.6368C12.0944 65.6837 12.5667 67.3968 13.4167 67.7775C14.9278 68.063 16.4389 68.063 17.8555 67.5872C18.6111 66.921 18.8 65.7789 18.4222 64.8272C18.0444 64.2562 16.8167 64.2562 16.8167 64.2562Z" fill="white" stroke="#444444" stroke-linecap="round" stroke-linejoin="round"/>
<path d="M17.3833 68.634C17.3833 68.634 14.55 67.9678 13.6056 69.0147C12.6611 70.0616 13.1333 71.7747 13.9833 72.1554C15.4945 72.4409 17.0056 72.4409 18.4222 71.965C19.1778 71.2988 19.3667 70.1568 18.9889 69.2051C18.6111 68.634 17.3833 68.634 17.3833 68.634Z" fill="white" stroke="#444444" stroke-linecap="round" stroke-linejoin="round"/>
<path d="M17.4778 72.536C17.4778 72.536 15.3056 72.0602 14.55 72.8215C13.9833 73.4877 13.9833 74.4395 14.6445 75.0105C14.7389 75.2008 14.8333 75.296 14.9278 75.296C16.0611 75.5815 17.1945 75.4863 18.3278 75.2008C18.8945 74.6298 19.0833 73.8684 18.8 73.1071C18.4222 72.536 17.4778 72.536 17.4778 72.536Z" fill="white" stroke="#444444" stroke-linecap="round" stroke-linejoin="round"/>
<path d="M34.95 60.4493C35.5167 59.9734 36.1778 59.8783 36.8389 60.1638C37.7833 60.6396 38.1611 61.8769 38.35 63.1141C38.5389 64.3513 38.6333 66.3499 37.1222 66.7306C36.2722 67.0161 35.4222 66.6354 35.0445 65.8741L34.95 60.4493Z" fill="white" stroke="#444444" stroke-linecap="round" stroke-linejoin="round"/>
<path d="M134.613 123.856C137.175 121.796 140.825 121.796 143.387 123.856L149.266 128.584C152.734 131.374 152.753 136.649 149.304 139.463L143.425 144.26C140.849 146.361 137.151 146.361 134.575 144.26L128.696 139.463C125.247 136.649 125.266 131.374 128.734 128.584L134.613 123.856Z" fill="#95C03D"/>
<path d="M20.8905 23.1221C21.5854 23.5011 21.5854 24.4989 20.8905 24.8779L12.9789 29.1934C12.3125 29.5568 11.5 29.0745 11.5 28.3155L11.5 19.6845C11.5 18.9255 12.3125 18.4432 12.9789 18.8066L20.8905 23.1221Z" fill="#FF6F3D"/>
<path d="M145.429 42.8575C144.782 42.4691 144.782 41.5309 145.429 41.1425L152.486 36.9087C153.152 36.5088 154 36.9889 154 37.7662L154 46.2338C154 47.0111 153.152 47.4912 152.486 47.0913L145.429 42.8575Z" fill="white"/>
<rect x="118" y="11" width="4" height="12" fill="#5FC1E8"/>
<rect x="114" y="19" width="4" height="12" transform="rotate(-90 114 19)" fill="#5FC1E8"/>
</g>
<defs>
<clipPath id="clip0_814_677">
<rect width="160" height="160" fill="white"/>
</clipPath>
</defs>
</svg>
