<svg width="160" height="160" viewBox="0 0 160 160" fill="none" xmlns="https://www.w3.org/2000/svg">
<g clip-path="url(#clip0_791_83)">
<path d="M44.9795 12.1089C49.3712 8.57697 55.6288 8.57697 60.0205 12.1089L97.4562 42.216C103.402 46.9978 103.434 56.0415 97.5218 60.865L60.0861 91.4085C55.6703 95.0113 49.3297 95.0113 44.9139 91.4085L7.47821 60.865C1.56626 56.0415 1.59809 46.9978 7.54385 42.216L44.9795 12.1089Z" fill="#07569D"/>
<path d="M59.5843 25.9034C55.9193 36.0517 52.6302 43.3138 54.8856 49.3655C57.141 55.4172 57.8928 58.7689 54.1338 62.5862C50.3749 66.4034 54.1338 72.6414 54.1338 72.6414C54.1338 72.6414 46.8979 72.7345 45.7702 66.031C44.6425 59.3276 42.951 51.6931 37.5005 50.2965C32.0501 48.9 20.6083 54.9172 14.5 56.5C14.5 56.5 11.4699 46.3862 15.8866 42.3827C18.7058 39.7758 18.4239 32.1414 18.3299 25.8103C18.236 19.4793 21.525 0.672394 36.7487 4.86205C51.9724 9.0517 59.5843 25.9034 59.5843 25.9034Z" fill="#444444"/>
<path d="M8 61C8 61 15.1348 46.4793 32.8958 49.4586C50.6568 52.4379 59.6783 56.2552 60.8059 57.5586C61.9336 58.8621 76 74.5 76 74.5C76 74.5 64.5 88.5 59.5 91.5C59.5 91.5 54.2814 94.6464 50.5 94C46 93.2308 44 91 44 91L8 61Z" fill="#5FC1E8" stroke="#444444" stroke-linecap="round" stroke-linejoin="round"/>
<path d="M28.0092 33.631C28.0092 33.631 30.3585 47.8759 25.3779 48.5276C25.3779 48.5276 28.2911 56.1621 40.4137 54.5793C40.4137 54.5793 38.2523 46.0138 43.8907 43.2207C49.5291 40.4276 28.0092 33.631 28.0092 33.631Z" fill="white" stroke="#444444" stroke-linecap="round" stroke-linejoin="round"/>
<path d="M28.479 37.7276C20.6793 27.1138 28.2911 9.51722 36.6547 6.91033C52.2543 2.06895 56.953 12.9621 57.1409 18.9207C57.3289 23.9483 53.7579 29.9069 53.9459 32.8862C54.5097 40.4276 46.5219 47.8758 42.1052 47.8758C39.38 47.8758 36.7487 46.3862 33.9295 43.9655" fill="white"/>
<path d="M28.479 37.7276C20.6793 27.1138 28.2911 9.51722 36.6547 6.91033C52.2543 2.06895 56.953 12.9621 57.1409 18.9207C57.3289 23.9483 53.7579 29.9069 53.9459 32.8862C54.5097 40.4276 46.5219 47.8758 42.1052 47.8758C39.38 47.8758 36.7487 46.3862 33.9295 43.9655" stroke="#444444" stroke-linecap="round" stroke-linejoin="round"/>
<path d="M34.4933 23.669C35.715 21.6207 38.0643 20.5034 40.5076 20.6896" stroke="#444444" stroke-linecap="round" stroke-linejoin="round"/>
<path d="M50.3749 22.1793C50.3749 22.1793 53.8519 21.8069 54.8856 25.0655" stroke="#444444" stroke-linecap="round" stroke-linejoin="round"/>
<path d="M40.5077 26.9276C40.4137 27.8586 39.8499 28.6034 39.286 28.5103C38.7222 28.4172 38.4403 27.5793 38.5342 26.6482C38.6282 25.7172 39.192 24.9724 39.7559 25.0655C40.3197 25.1586 40.6016 25.9034 40.5077 26.9276Z" fill="#444444"/>
<path d="M51.6905 28.0448C51.5965 28.9758 51.0327 29.7207 50.4688 29.6276C49.905 29.5345 49.6231 28.6965 49.7171 27.7655C49.811 26.8345 50.3749 26.0896 50.9387 26.1827C51.5026 26.2758 51.7845 27.1138 51.6905 28.0448Z" fill="#444444"/>
<path d="M45.7702 30.2793C46.0521 31.2103 46.6159 31.9552 47.4617 32.6069C48.4954 33.2586 45.7702 35.4931 45.7702 35.4931" stroke="#444444" stroke-linecap="round" stroke-linejoin="round"/>
<path d="M46.7099 38.1931C46.7099 38.1931 42.1052 37.7276 39.4739 35.3069" stroke="#444444" stroke-linecap="round" stroke-linejoin="round"/>
<path d="M39.9438 35.6793C39.9438 35.6793 40.5077 39.1242 42.951 39.9621C45.3943 40.8 46.0521 38.1 46.0521 38.1" stroke="#444444" stroke-linecap="round" stroke-linejoin="round"/>
<path d="M27.9152 25.0655C29.3248 25.5311 30.4525 26.6483 30.9224 27.9517C30.9224 27.9517 47.6496 25.9966 52.6302 15.4759C52.6302 15.4759 56.1072 17.8035 55.8253 28.6966C55.8253 28.6966 61.2758 28.0448 60.8059 19.4793C60.336 10.9138 47.9316 -1.93447 36.7487 4.95519C36.7487 4.95519 29.4188 1.97588 23.6864 12.3104C17.954 22.6448 20.9612 35.0276 28.0092 36.8897C28.0092 36.7966 25.6598 30.2793 27.9152 25.0655Z" fill="#444444"/>
<path d="M29.6067 26.8345C29.6067 26.8345 26.5996 23.0172 25.002 24.2276C23.4045 25.4379 22.9346 31.0241 25.002 32.8862C27.0694 34.7483 28.667 36.4241 28.9489 34.6552" fill="white"/>
<path d="M29.6067 26.8345C29.6067 26.8345 26.5996 23.0172 25.002 24.2276C23.4045 25.4379 22.9346 31.0241 25.002 32.8862C27.0694 34.7483 28.667 36.4241 28.9489 34.6552" stroke="#444444" stroke-linecap="round" stroke-linejoin="round"/>
<path d="M38.4403 21.4345C38.4403 21.4345 25.8478 31.3035 24.6262 34.8414C21.3371 44.0586 23.7804 47.131 23.7804 47.131C23.7804 47.131 16.5444 46.7586 18.7998 33.1655C20.1154 25.1586 24.9081 18.1759 31.9561 14.1724L38.4403 21.4345Z" fill="#444444"/>
<path d="M69.3575 66.9621L75.3718 72.6414C75.3718 72.6414 76.3115 68.9172 78.191 69.1034C78.285 67.8 78.285 66.4965 78.191 65.1C78.191 65.1 80.6343 63.6103 86.0848 65.1C89.7497 66.2172 92.7569 69.0103 93.9785 72.6414C94.4484 73.9448 92.475 75.9 92.475 75.9C92.475 75.9 84 90.5 75.3718 90.5C66.7436 90.5 61.7472 88.0586 61 83" fill="#5FC1E8"/>
<path d="M69.3575 66.9621L75.3718 72.6414C75.3718 72.6414 76.3115 68.9172 78.191 69.1034C78.285 67.8 78.285 66.4965 78.191 65.1C78.191 65.1 80.6343 63.6103 86.0848 65.1C89.7497 66.2172 92.7569 69.0103 93.9785 72.6414C94.4484 73.9448 92.475 75.9 92.475 75.9C92.475 75.9 84 90.5 75.3718 90.5C66.7436 90.5 61.7472 88.0586 61 83" stroke="#444444" stroke-linecap="round" stroke-linejoin="round"/>
<path d="M82.3258 68.0793C83.1716 64.0759 84.9571 58.5828 83.8294 54.3931L93.9785 53.8345C90.5015 62.2138 89.9377 72.6414 89.9377 72.6414C89.9377 72.6414 85.8029 71.9896 83.9234 69.7552" fill="white"/>
<path d="M82.3258 68.0793C83.1716 64.0759 84.9571 58.5828 83.8294 54.3931L93.9785 53.8345C90.5015 62.2138 89.9377 72.6414 89.9377 72.6414C89.9377 72.6414 85.8029 71.9896 83.9234 69.7552" stroke="#444444" stroke-linecap="round" stroke-linejoin="round"/>
<path d="M84.3933 55.8828C82.8897 55.231 82.2319 53.0897 81.9499 51.9724C81.668 50.9483 81.574 49.9242 81.574 48.9C81.574 47.969 81.4801 47.0379 81.2921 46.1069C81.1982 45.4552 81.1042 44.8966 80.9162 44.3379C80.6343 43.1276 80.3524 42.0104 79.9765 40.8931C79.9765 40.8931 81.1042 39.2173 82.1379 40.6138C82.4198 40.9862 82.6078 41.4517 82.7957 41.9173C83.0776 42.7552 83.2656 43.5931 83.4535 44.3379C83.5475 44.7104 83.7354 45.0828 84.0174 45.4552C84.1113 45.5483 84.2993 45.6414 84.3933 45.6414L84.5812 45.7345C84.8631 45.8276 85.239 45.8276 85.5209 45.7345C85.7089 45.7345 85.8029 45.6414 85.8968 45.5483C85.8968 45.5483 85.9908 45.5483 85.9908 45.4552C86.0848 45.3621 86.1787 45.269 86.2727 45.1759C86.6486 44.7104 87.0245 44.1517 87.3064 43.5931C87.6823 42.7552 88.0582 41.8242 88.4341 40.8931C88.5281 40.5207 88.716 40.1483 88.81 39.869C89.0919 38.8448 89.3738 37.9138 89.4678 37.2621C89.5618 36.6104 89.7497 35.9586 89.9377 35.3069C90.1256 34.6552 90.3136 34.0035 90.5015 33.4448C91.0654 31.769 91.7232 30.5586 92.5689 31.2104C93.4147 31.8621 93.1328 32.4207 92.7569 33.9104C92.6629 34.469 92.475 35.0276 92.381 35.8655C92.0991 37.169 92.0051 38.5655 91.9111 39.869V40.4276L92.475 40.6138C92.475 40.7069 92.6629 40.5207 92.8509 40.0552C93.5087 38.8448 94.0725 37.6345 94.5424 36.331C94.7303 35.7724 95.0122 35.1207 95.2002 34.469C95.3881 33.8173 95.5761 33.3517 95.764 32.7931C96.6098 30 97.9254 31.3966 98.1134 32.3276C98.0194 33.3517 97.8315 34.3759 97.3616 35.3069C97.1736 35.9586 96.8917 36.6104 96.7038 37.169C96.6098 37.4483 96.5158 37.8207 96.4219 38.1C96.046 39.3104 95.6701 40.5207 95.4821 41.3586C95.4821 41.4517 95.3881 41.5448 95.3881 41.731L95.952 42.2897L96.2339 41.9173C96.9857 40.9862 97.6435 39.869 98.3013 38.8448C98.6772 38.1 99.0531 37.4483 99.2411 36.9828C99.7109 36.0517 99.9928 35.6793 100.651 35.7724C101.308 35.8655 101.308 36.9828 101.027 38.2862C100.745 39.3104 100.369 40.2414 99.8049 41.0793C99.7109 41.2655 99.6169 41.3586 99.523 41.5448C98.9591 42.2897 98.5832 43.1276 98.2073 43.9655L98.0194 44.5241L98.2073 45.1759C98.3953 44.9897 98.5832 44.8035 98.7712 44.6173C99.429 43.9655 99.8989 43.3138 100.369 42.8483C100.745 42.2897 101.214 41.8242 101.59 41.3586C101.966 40.9862 102.248 40.8931 102.53 40.9862C102.718 41.1724 102.624 42.1035 102.154 43.0345C101.872 43.5931 101.59 44.1517 101.214 44.6173C100.933 44.9897 100.651 45.3621 100.369 45.6414C99.8049 46.2931 99.2411 46.9448 98.7712 47.6897C98.5832 47.969 98.3953 48.2483 98.2073 48.5276C97.5495 49.5517 96.8917 50.669 96.7038 50.9483L96.5158 51.1345C96.1399 52.0655 95.858 52.8104 95.5761 53.4621C94.9183 55.0448 93.9785 56.3483 92.7569 57.5586C92.193 58.1173 91.0654 58.2104 89.7497 58.0241" fill="white"/>
<path d="M84.3933 55.8828C82.8897 55.231 82.2319 53.0897 81.9499 51.9724C81.668 50.9483 81.574 49.9242 81.574 48.9C81.574 47.969 81.4801 47.0379 81.2921 46.1069C81.1982 45.4552 81.1042 44.8966 80.9162 44.3379C80.6343 43.1276 80.3524 42.0104 79.9765 40.8931C79.9765 40.8931 81.1042 39.2173 82.1379 40.6138C82.4198 40.9862 82.6078 41.4517 82.7957 41.9173C83.0776 42.7552 83.2656 43.5931 83.4535 44.3379C83.5475 44.7104 83.7354 45.0828 84.0174 45.4552C84.1113 45.5483 84.2993 45.6414 84.3933 45.6414L84.5812 45.7345C84.8631 45.8276 85.239 45.8276 85.5209 45.7345C85.7089 45.7345 85.8029 45.6414 85.8968 45.5483C85.8968 45.5483 85.9908 45.5483 85.9908 45.4552C86.0848 45.3621 86.1787 45.269 86.2727 45.1759C86.6486 44.7104 87.0245 44.1517 87.3064 43.5931C87.6823 42.7552 88.0582 41.8242 88.4341 40.8931C88.5281 40.5207 88.716 40.1483 88.81 39.869C89.0919 38.8448 89.3738 37.9138 89.4678 37.2621C89.5618 36.6104 89.7497 35.9586 89.9377 35.3069C90.1256 34.6552 90.3136 34.0035 90.5015 33.4448C91.0654 31.769 91.7232 30.5586 92.5689 31.2104C93.4147 31.8621 93.1328 32.4207 92.7569 33.9104C92.6629 34.469 92.475 35.0276 92.381 35.8655C92.0991 37.169 92.0051 38.5655 91.9111 39.869V40.4276L92.475 40.6138C92.475 40.7069 92.6629 40.5207 92.8509 40.0552C93.5087 38.8448 94.0725 37.6345 94.5424 36.331C94.7303 35.7724 95.0122 35.1207 95.2002 34.469C95.3881 33.8173 95.5761 33.3517 95.764 32.7931C96.6098 30 97.9254 31.3966 98.1134 32.3276C98.0194 33.3517 97.8315 34.3759 97.3616 35.3069C97.1736 35.9586 96.8917 36.6104 96.7038 37.169C96.6098 37.4483 96.5158 37.8207 96.4219 38.1C96.046 39.3104 95.6701 40.5207 95.4821 41.3586C95.4821 41.4517 95.3881 41.5448 95.3881 41.731L95.952 42.2897L96.2339 41.9173C96.9857 40.9862 97.6435 39.869 98.3013 38.8448C98.6772 38.1 99.0531 37.4483 99.2411 36.9828C99.7109 36.0517 99.9928 35.6793 100.651 35.7724C101.308 35.8655 101.308 36.9828 101.027 38.2862C100.745 39.3104 100.369 40.2414 99.8049 41.0793C99.7109 41.2655 99.6169 41.3586 99.523 41.5448C98.9591 42.2897 98.5832 43.1276 98.2074 43.9655L98.0194 44.5242L98.2074 45.1759C98.3953 44.9897 98.5832 44.8035 98.7712 44.6173C99.429 43.9655 99.8989 43.3138 100.369 42.8483C100.745 42.2897 101.214 41.8242 101.59 41.3586C101.966 40.9862 102.248 40.8931 102.53 40.9862C102.718 41.1724 102.624 42.1035 102.154 43.0345C101.872 43.5931 101.59 44.1517 101.214 44.6173C100.933 44.9897 100.651 45.3621 100.369 45.6414C99.8049 46.2931 99.2411 46.9448 98.7712 47.6897C98.5832 47.969 98.3953 48.2483 98.2074 48.5276C97.5495 49.5517 96.8917 50.669 96.7038 50.9483L96.5158 51.1345C96.1399 52.0655 95.858 52.8104 95.5761 53.4621C94.9183 55.0448 93.9785 56.3483 92.7569 57.5586C92.193 58.1173 91.0654 58.2104 89.7497 58.0241" stroke="#444444" stroke-linecap="round" stroke-linejoin="round"/>
<path d="M86.0848 45.3621C88.1522 46.1069 89.3738 48.0621 89.1859 50.2034" stroke="#444444" stroke-linecap="round" stroke-linejoin="round"/>
<path d="M81.1042 66.031C80.9162 66.2172 84.7691 73.2 91.3473 72.6414" stroke="#444444" stroke-linecap="round" stroke-linejoin="round"/>
<path d="M75.3718 72.6414C75.3718 72.6414 73.6803 77.762 75.3718 80.8345V72.6414Z" fill="#92E3A9"/>
<path d="M75.3718 72.6414C75.3718 72.6414 73.6803 77.762 75.3718 80.8345" stroke="#444444" stroke-linecap="round" stroke-linejoin="round"/>
<path d="M78.097 69.1035C78.097 69.1035 82.2319 76.9241 88.0582 76.7379" stroke="#444444" stroke-linecap="round" stroke-linejoin="round"/>
<path d="M101.98 75.1089C106.371 71.577 112.629 71.577 117.02 75.1089L154.456 105.216C160.402 109.998 160.434 119.041 154.522 123.865L117.086 154.409C112.67 158.011 106.33 158.011 101.914 154.408L64.4782 123.865C58.5663 119.041 58.5981 109.998 64.5438 105.216L101.98 75.1089Z" fill="#07569D"/>
<path d="M59.489 92.4626C58.75 98.7359 57.272 104.86 55.055 110.834C51.5818 119.721 47.3695 131.222 47.3695 138.317C47.3695 143.619 78 144.5 78 144.5L76.3381 130.102L62.2972 129.579C62.2972 129.579 63.7752 124.277 64.3664 113.597C64.7359 107.548 69.1698 95.0018 69.1698 95.0018" fill="white"/>
<path d="M59.489 92.4626C58.75 98.7359 57.272 104.86 55.055 110.834C51.5818 119.721 47.3695 131.222 47.3695 138.317C47.3695 143.619 78 144.5 78 144.5L76.3381 130.102L62.2972 129.579C62.2972 129.579 63.7752 124.277 64.3664 113.597C64.7359 107.548 69.1698 95.0018 69.1698 95.0018" stroke="#444444" stroke-linecap="round" stroke-linejoin="round"/>
<path d="M102.651 126.42L102.79 126.159L102.79 126.159L102.791 126.158C102.791 126.156 102.793 126.154 102.795 126.151C102.796 126.148 102.799 126.144 102.802 126.139C102.814 126.12 102.835 126.087 102.867 126.042C102.932 125.954 103.04 125.819 103.203 125.656C103.529 125.33 104.08 124.883 104.954 124.455C106.702 123.599 109.766 122.801 114.948 123.207C120.162 123.615 123.406 124.411 125.333 125.094C126.296 125.435 126.928 125.747 127.313 125.967C127.506 126.078 127.636 126.165 127.715 126.222C127.755 126.25 127.781 126.271 127.796 126.283C127.804 126.289 127.808 126.292 127.81 126.294L127.811 126.295L127.915 126.388L128.057 126.413L128.142 125.92C128.057 126.413 128.057 126.413 128.057 126.413L128.057 126.413L128.059 126.413L128.067 126.414L128.099 126.42L128.223 126.442C128.333 126.461 128.494 126.489 128.7 126.526C129.112 126.6 129.706 126.708 130.429 126.843C131.876 127.115 133.841 127.497 135.913 127.943C137.986 128.388 140.162 128.895 142.032 129.415C143.504 129.825 144.755 130.234 145.616 130.616C145.563 130.663 145.506 130.713 145.445 130.767C144.975 131.182 144.289 131.786 143.421 132.542C141.687 134.055 139.231 136.176 136.344 138.61C130.57 143.48 123.08 149.596 116.206 154.596C110.926 158.436 104.383 156.872 101.334 154.128C98.8307 151.875 96.9518 150.253 95.6977 149.193C95.0707 148.664 94.5998 148.274 94.2852 148.017C94.1279 147.889 94.0096 147.793 93.9304 147.729L93.8409 147.658L93.8181 147.64L93.8122 147.635L93.8106 147.634L93.8102 147.633L93.81 147.633C93.81 147.633 93.8099 147.633 93.5 148.025L93.8099 147.633L93.6896 147.538L93.5368 147.527L66.4598 145.533C66.4529 145.453 66.4453 145.364 66.4371 145.264C66.4004 144.822 66.3513 144.185 66.3015 143.407C66.2018 141.851 66.0998 139.734 66.0896 137.489C66.0795 135.241 66.1615 132.877 66.4269 130.823C66.6759 128.896 67.078 127.317 67.6627 126.351C67.7224 126.354 67.7909 126.358 67.8663 126.364C68.154 126.388 68.5325 126.44 68.911 126.55C69.6959 126.776 70.2893 127.183 70.3711 127.904C70.3899 128.144 70.5662 128.265 70.6225 128.297C70.6907 128.336 70.7517 128.349 70.7706 128.353C70.8168 128.362 70.8552 128.363 70.866 128.363L70.8663 128.363C70.8961 128.364 70.924 128.363 70.9398 128.361C70.9763 128.359 71.0226 128.355 71.0728 128.349C71.1757 128.338 71.3235 128.319 71.5083 128.295C71.8791 128.247 72.413 128.174 73.0653 128.085L73.1461 128.074C74.4446 127.896 76.1987 127.657 78.0919 127.415C81.9716 126.919 86.3898 126.42 88.6793 126.42H102.351H102.651ZM71.3668 127.81C71.3669 127.81 71.3669 127.81 71.367 127.809C71.3674 127.813 71.3677 127.817 71.368 127.821L71.3668 127.81Z" fill="#27ABA3" stroke="#444444"/>
<path d="M102.942 115.838C103.237 116.361 103.533 116.809 103.976 117.182C106.932 120.169 107.228 122.634 106.785 124.352C106.489 125.397 105.898 126.368 105.011 127.04C105.011 127.04 104.863 131.82 110.701 132.342C117.722 133.015 121.638 125.621 121.638 125.621C112.844 113.523 119.421 108.37 119.421 108.37C110.923 103.59 99.6902 110.087 102.942 115.838Z" fill="white" stroke="#444444" stroke-linecap="round" stroke-linejoin="round"/>
<path d="M120.752 102.843C123.929 89.102 117.352 83.1275 113.066 81.3351C106.119 78.4226 97.1038 82.9781 95.1085 90.6703C93.0393 98.2878 94.8868 100.08 94.8129 103.217C94.739 105.382 93.4088 106.503 94.8868 112.029C95.8475 115.688 97.4733 121.514 103.607 120.468C105.454 120.169 107.302 119.572 109.002 118.676" fill="white"/>
<path d="M120.752 102.843C123.929 89.102 117.352 83.1275 113.066 81.3351C106.119 78.4226 97.1038 82.9781 95.1085 90.6703C93.0393 98.2878 94.8868 100.08 94.8129 103.217C94.739 105.382 93.4088 106.503 94.8868 112.029C95.8475 115.688 97.4733 121.514 103.607 120.468C105.454 120.169 107.302 119.572 109.002 118.676" stroke="#444444" stroke-linecap="round" stroke-linejoin="round"/>
<path d="M102.794 98.4372C102.794 98.4372 105.38 97.4663 106.711 100.528" stroke="#444444" stroke-linecap="round" stroke-linejoin="round"/>
<path d="M94.1478 96.7942C94.1478 96.7942 96.8082 96.1967 97.9167 98.1384" stroke="#444444" stroke-linecap="round" stroke-linejoin="round"/>
<path d="M98.6556 102.097C98.6556 102.097 98.8773 104.486 97.9906 104.934C97.1038 105.383 95.6997 104.412 96.0692 106.353C96.4387 108.295 98.6556 108.37 98.6556 108.37" stroke="#444444" stroke-linecap="round" stroke-linejoin="round"/>
<path d="M103.311 102.694C103.311 103.366 103.607 103.889 103.976 103.889C104.346 103.889 104.642 103.366 104.642 102.694C104.642 102.022 104.346 101.499 103.976 101.499C103.607 101.499 103.311 102.097 103.311 102.694Z" fill="#444444" stroke="#444444" stroke-linecap="round" stroke-linejoin="round"/>
<path d="M96.0692 102.097C96.0692 102.769 96.3648 103.291 96.7343 103.291C97.1038 103.291 97.3994 102.769 97.3994 102.097C97.3994 101.424 97.1038 100.902 96.7343 100.902C96.3648 100.902 96.0692 101.424 96.0692 102.097Z" fill="#444444" stroke="#444444" stroke-linecap="round" stroke-linejoin="round"/>
<path d="M103.311 110.237C103.311 110.237 100.503 111.805 97.9167 111.133" stroke="#444444" stroke-linecap="round" stroke-linejoin="round"/>
<path d="M102.794 110.76C102.646 111.954 101.759 112.851 100.577 113C99.6163 113.149 98.7296 112.477 98.5818 111.506C98.5818 111.432 98.5818 111.357 98.5818 111.282" stroke="#444444" stroke-linecap="round" stroke-linejoin="round"/>
<path d="M92.5959 95.3753C92.5959 95.3753 89.1965 92.164 92.0786 85.4426C94.9607 78.7213 118.904 77.5264 124.003 85.368C129.102 93.2095 125.038 108.444 117.057 113.597C117.057 113.597 118.608 107.026 113.436 105.233C113.436 105.233 108.78 100.005 110.627 93.8069C110.627 93.8069 108.041 94.255 107.376 96.2714C107.376 96.2714 103.829 95.5246 103.607 92.3133C103.164 93.6576 102.942 95.0765 102.942 96.4955C102.942 96.4955 97.7689 95.2259 97.3994 92.9108C96.956 93.8816 97.1038 95.0765 97.8428 95.8233C95.9214 95.8233 94.1478 94.9272 92.9654 93.3589L92.5959 95.3753Z" fill="#444444"/>
<path d="M113.066 105.308C113.066 105.308 115.579 100.603 118.165 101.723C120.752 102.843 118.978 108.519 116.687 110.311C114.396 112.179 113.066 110.311 113.066 110.311" fill="white"/>
<path d="M113.066 105.308C113.066 105.308 115.579 100.603 118.165 101.723C120.752 102.843 118.978 108.519 116.687 110.311C114.396 112.179 113.066 110.311 113.066 110.311" stroke="#444444" stroke-linecap="round" stroke-linejoin="round"/>
<path d="M67.3223 98.0637C68.9481 97.9891 70.2044 96.2714 70.8695 95.4499C71.4607 94.6284 71.9041 93.8069 72.2736 92.836C72.5692 92.0146 73.0126 91.1931 73.456 90.4462C73.7516 89.9235 74.0472 89.4007 74.3428 88.9526C75.0079 87.9818 75.673 87.0856 76.412 86.1894C76.412 86.1894 75.8947 84.3971 74.4906 85.2932C74.1211 85.5173 73.7516 85.8907 73.456 86.2641C72.9387 86.8615 72.4214 87.6084 72.0519 88.1311C71.8302 88.5045 71.5346 88.7286 71.239 88.9526C71.0912 88.9526 70.9434 89.0273 70.7956 89.0273H70.6478H70.5C70.2044 89.0273 69.9088 88.8779 69.6132 88.7286C69.4654 88.6539 69.3915 88.5792 69.3176 88.4299L69.2437 88.3552C69.1698 88.2805 69.1698 88.1311 69.0959 88.0564C68.8742 87.459 68.7264 86.9362 68.6525 86.2641C68.5786 85.3679 68.5047 84.4717 68.5047 83.5756C68.5047 83.2768 68.5047 82.9034 68.5047 82.6047C68.5047 81.7832 68.6525 80.9617 68.7264 80.1402C68.8003 79.5428 68.8742 78.9453 68.9481 78.2732C69.022 77.6011 69.1698 77.0783 69.1698 76.4809C69.1698 74.8379 68.9481 73.5683 67.9874 73.867C67.0267 74.1657 67.1006 74.6885 66.9528 76.1821C66.8789 76.7049 66.805 77.3023 66.7311 77.9745C66.5094 79.2441 66.2139 80.439 65.8444 81.6339C65.7705 81.7832 65.7705 81.9326 65.6966 82.0819H65.1054C65.1054 82.1566 65.0315 81.9326 64.8837 81.4845C64.7359 80.2149 64.5881 78.9453 64.5881 77.6758C64.5881 77.0783 64.5881 76.4809 64.5881 75.8834C64.5881 75.286 64.5881 74.7632 64.662 74.2404C64.8098 71.4772 63.1101 72.2987 62.6667 73.1202C62.3711 74.0164 62.2972 74.9872 62.3711 75.9581C62.3711 76.5555 62.3711 77.2277 62.3711 77.8251C62.3711 78.1238 62.3711 78.4226 62.3711 78.7213C62.2972 79.8415 62.2233 81.0364 62.2233 81.8579C62.2233 82.0073 62.2233 82.0819 62.2233 82.1566L61.4843 82.4554C61.4104 82.306 61.4104 82.2313 61.3365 82.0819C60.967 80.9617 60.6714 79.8415 60.4497 78.7213C60.3019 77.8998 60.228 77.3023 60.1541 76.8543C60.0063 75.9581 59.9324 75.51 59.2673 75.3606C58.6022 75.2113 58.1588 76.2568 58.0849 77.4517C58.011 78.4226 58.0849 79.3187 58.3066 80.2896C58.3805 80.439 58.3805 80.5883 58.4544 80.7377C58.6761 81.5592 58.8239 82.4554 58.8978 83.2768C58.8978 83.4262 58.8978 83.6503 58.8978 83.7996L58.5283 84.3224C58.3805 84.0983 58.3066 83.8743 58.1588 83.6503C57.7893 82.9781 57.4937 82.306 57.272 81.5592C57.0503 80.9617 56.8286 80.3643 56.6069 79.8415C56.3852 79.3934 56.1635 79.2441 55.794 79.2441C55.2028 79.2441 55.055 80.0656 55.2028 81.0364C55.2767 81.6339 55.3506 82.1566 55.5723 82.7541C55.7201 83.1275 55.8679 83.5756 56.0896 83.949C56.4591 84.6958 56.7547 85.4426 56.9025 86.1894C56.9764 86.4881 57.0503 86.8615 57.1242 87.1603C57.4198 88.3552 57.6415 89.4007 57.7154 89.7741C57.7154 89.8488 57.7154 89.9235 57.7154 89.9235C57.7893 90.8197 57.7893 91.5665 57.8632 92.2386C58.011 93.8069 58.3805 95.3005 59.1934 96.7195C59.5629 97.4663 60.5975 97.8397 61.7799 98.0637" fill="white"/>
<path d="M67.3223 98.0637C68.9481 97.9891 70.2044 96.2714 70.8695 95.4499C71.4607 94.6284 71.9041 93.8069 72.2736 92.836C72.5692 92.0146 73.0126 91.1931 73.456 90.4462C73.7516 89.9235 74.0472 89.4007 74.3428 88.9526C75.0079 87.9818 75.673 87.0856 76.412 86.1894C76.412 86.1894 75.8947 84.3971 74.4906 85.2932C74.1211 85.5173 73.7516 85.8907 73.456 86.2641C72.9387 86.8615 72.4214 87.6084 72.0519 88.1311C71.8302 88.5045 71.5346 88.7286 71.239 88.9526C71.0912 88.9526 70.9434 89.0273 70.7956 89.0273H70.6478H70.5C70.2044 89.0273 69.9088 88.8779 69.6132 88.7286C69.4654 88.6539 69.3915 88.5792 69.3176 88.4299L69.2437 88.3552C69.1698 88.2805 69.1698 88.1311 69.0959 88.0564C68.8742 87.459 68.7264 86.9362 68.6525 86.2641C68.5786 85.3679 68.5047 84.4717 68.5047 83.5756C68.5047 83.2768 68.5047 82.9034 68.5047 82.6047C68.5047 81.7832 68.6525 80.9617 68.7264 80.1402C68.8003 79.5428 68.8742 78.9453 68.9481 78.2732C69.022 77.6011 69.1698 77.0783 69.1698 76.4809C69.1698 74.8379 68.9481 73.5683 67.9874 73.867C67.0267 74.1657 67.1006 74.6885 66.9528 76.1821C66.8789 76.7049 66.805 77.3023 66.7311 77.9745C66.5094 79.2441 66.2139 80.439 65.8444 81.6339C65.7705 81.7832 65.7705 81.9326 65.6966 82.0819H65.1054C65.1054 82.1566 65.0315 81.9326 64.8837 81.4845C64.7359 80.2149 64.5881 78.9453 64.5881 77.6758C64.5881 77.0783 64.5881 76.4809 64.5881 75.8834C64.5881 75.286 64.5881 74.7632 64.662 74.2404C64.8098 71.4772 63.1101 72.2987 62.6667 73.1202C62.3711 74.0164 62.2972 74.9872 62.3711 75.9581C62.3711 76.5555 62.3711 77.2277 62.3711 77.8251C62.3711 78.1238 62.3711 78.4226 62.3711 78.7213C62.2972 79.8415 62.2233 81.0364 62.2233 81.8579C62.2233 82.0073 62.2233 82.0819 62.2233 82.1566L61.4843 82.4554C61.4104 82.306 61.4104 82.2313 61.3365 82.0819C60.967 80.9617 60.6714 79.8415 60.4497 78.7213C60.3019 77.8998 60.228 77.3023 60.1541 76.8543C60.0063 75.9581 59.9324 75.51 59.2673 75.3606C58.6022 75.2113 58.1588 76.2568 58.0849 77.4517C58.011 78.4226 58.0849 79.3187 58.3066 80.2896C58.3805 80.439 58.3805 80.5883 58.4544 80.7377C58.6761 81.5592 58.8239 82.4554 58.8978 83.2768C58.8978 83.4262 58.8978 83.6503 58.8978 83.7996L58.5283 84.3224C58.3805 84.0983 58.3066 83.8743 58.1588 83.6503C57.7893 82.9781 57.4937 82.306 57.272 81.5592C57.0503 80.9617 56.8286 80.3643 56.6069 79.8415C56.3852 79.3934 56.1635 79.2441 55.794 79.2441C55.2028 79.2441 55.055 80.0656 55.2028 81.0364C55.2767 81.6339 55.3506 82.1566 55.5723 82.7541C55.7201 83.1275 55.8679 83.5756 56.0896 83.949C56.4591 84.6958 56.7547 85.4426 56.9025 86.1894C56.9764 86.4881 57.0503 86.8615 57.1242 87.1603C57.4198 88.3552 57.6415 89.4007 57.7154 89.7741C57.7154 89.8488 57.7154 89.9235 57.7154 89.9235C57.7893 90.8197 57.7893 91.5665 57.8632 92.2386C58.011 93.8069 58.3805 95.3005 59.1934 96.7195C59.5629 97.4663 60.5975 97.8397 61.7799 98.0637" stroke="#444444" stroke-linecap="round" stroke-linejoin="round"/>
<path d="M69.2437 88.4298C69.2437 88.4298 65.7704 88.2805 64.7358 91.7158" stroke="#444444" stroke-linecap="round" stroke-linejoin="round"/>
<path d="M62.3711 129.579C62.0016 131.073 60.967 132.268 59.5629 132.865" stroke="#444444" stroke-linecap="round" stroke-linejoin="round"/>
<path d="M9 77C9 75.3431 10.3431 74 12 74H38C39.6569 74 41 75.3431 41 77V95C41 96.6569 39.6569 98 38 98H33V103.5L25 98H12C10.3431 98 9 96.6569 9 95V77Z" fill="white"/>
<path d="M135 10C135 8.34314 133.657 7 132 7H111C109.343 7 108 8.34315 108 10V23.5254C108 25.1823 109.343 26.5254 111 26.5254H114.75V31L121.5 26.5254H132C133.657 26.5254 135 25.1823 135 23.5254V10Z" fill="white"/>
<path d="M30.3905 128.122C31.0854 128.501 31.0854 129.499 30.3905 129.878L22.4789 134.193C21.8125 134.557 21 134.075 21 133.315L21 124.685C21 123.925 21.8125 123.443 22.4789 123.807L30.3905 128.122Z" fill="#FF6F3D"/>
<path d="M142.429 48.8575C141.782 48.4691 141.782 47.5309 142.429 47.1425L149.486 42.9087C150.152 42.5088 151 42.9889 151 43.7662L151 52.2338C151 53.0111 150.152 53.4912 149.486 53.0913L142.429 48.8575Z" fill="#95C03D"/>
</g>
<defs>
<clipPath id="clip0_791_83">
<rect width="160" height="160" fill="white"/>
</clipPath>
</defs>
</svg>
