<svg width="160" height="160" viewBox="0 0 160 160" fill="none" xmlns="https://www.w3.org/2000/svg">
<g clip-path="url(#clip0_958_270)">
<path d="M68.4795 39.339C72.8712 35.8071 79.1288 35.8071 83.5205 39.339L137.456 82.716C143.402 87.4978 143.434 96.5415 137.522 101.365L83.5861 145.371C79.1703 148.973 72.8297 148.973 68.4139 145.371L14.4782 101.365C8.56629 96.5415 8.5981 87.4978 14.5439 82.716L68.4795 39.339Z" fill="#07569D"/>
<path d="M32.2833 90.4996L29.9487 86.3574C29.9487 86.3574 27.9906 81.4622 27.0116 80.1819C26.0325 78.9016 23.9238 78.2238 21.9657 78.1485C20.6101 77.9979 19.2545 77.546 18.1248 76.8682C17.3717 76.4917 15.9408 76.1904 15.9408 77.3954C15.9408 78.6004 16.1667 80.7091 17.7483 81.161C19.1039 81.5375 20.3842 81.9894 21.5891 82.5919C21.5891 82.5919 16.1667 83.7216 14.8864 84.0228C13.6062 84.324 8.33437 84.9265 7.65656 85.4537C6.97876 85.9809 7.65656 87.4118 7.65656 87.4118C7.65656 87.4118 6.22565 88.3155 7.80719 89.5205C9.38872 90.7255 15.5642 92.7589 15.5642 92.7589C15.5642 92.7589 15.263 92.9095 18.2755 94.5664C21.2879 96.2232 28.2165 97.8048 28.2165 97.8048L32.2833 90.4996Z" fill="white" stroke="#263238" stroke-miterlimit="10" stroke-linecap="round"/>
<path d="M19.0285 95.6208C19.0285 95.6208 15.2629 92.6836 14.8111 91.2527C14.3592 89.8218 13.1542 84.7006 14.5851 84.3994C16.0161 84.1734 17.447 88.3909 17.1457 88.9181C16.8445 89.4452 18.426 91.4786 18.5766 91.8552C18.8779 92.3071 19.2544 92.7589 19.7063 93.1355" fill="white"/>
<path d="M19.0285 95.6208C19.0285 95.6208 15.2629 92.6836 14.8111 91.2527C14.3592 89.8218 13.1542 84.7006 14.5851 84.3994C16.0161 84.1734 17.447 88.3909 17.1457 88.9181C16.8445 89.4452 18.426 91.4786 18.5766 91.8552C18.8779 92.3071 19.2544 92.7589 19.7063 93.1355" stroke="#263238" stroke-miterlimit="10" stroke-linecap="round"/>
<path d="M27.0117 91.7798C27.0117 91.7798 25.0536 91.5539 24.4511 91.5539C23.1708 91.7798 21.8905 92.0811 20.6855 92.4576C20.6855 92.4576 20.0077 85.9055 18.5015 85.7549C16.9953 85.6043 16.5434 87.4118 17.0706 88.9933C17.5978 90.5748 17.7484 95.696 18.7274 96.2232C19.7065 96.7504 27.0117 97.5035 27.0117 97.5035" fill="white"/>
<path d="M27.0117 91.7798C27.0117 91.7798 25.0536 91.5539 24.4511 91.5539C23.1708 91.7798 21.8905 92.0811 20.6855 92.4576C20.6855 92.4576 20.0077 85.9055 18.5015 85.7549C16.9953 85.6043 16.5434 87.4118 17.0706 88.9933C17.5978 90.5748 17.7484 95.696 18.7274 96.2232C19.7065 96.7504 27.0117 97.5035 27.0117 97.5035" stroke="#263238" stroke-miterlimit="10" stroke-linecap="round"/>
<path d="M7.65648 87.2612L13.4554 87.4119" stroke="#263238" stroke-miterlimit="10" stroke-linecap="round"/>
<path d="M35.0702 91.5537L31.6812 88.9932L26.3341 99.4614L31.9071 102.549L35.0702 91.5537Z" fill="white" stroke="#263238" stroke-miterlimit="10" stroke-linecap="round"/>
<path d="M91.8548 61.5801L67.0774 69.4878L51.8645 105.035L34.2417 90.8762L28.5934 105.637C28.5934 105.637 59.7722 128.532 61.0525 128.532C62.3328 128.532 68.7343 120.85 68.7343 120.85L69.1108 126.272L64.5001 141.5C64.5001 141.5 69.0544 145.851 72.5001 147C74.0001 147.5 78.6685 148.796 83.5001 145C90.5001 139.5 119 116 119 116L120.699 109.855L122 113.5C125.5 110.5 132 105.5 136 102L131.544 76.3411C131.544 76.3411 129.661 74.0817 128.833 73.6299C128.004 73.178 106.39 61.5801 106.39 61.5801H91.8548Z" fill="#D9F4FF" stroke="#263238" stroke-miterlimit="10" stroke-linecap="round"/>
<path d="M83.3444 64.6675L76.2651 77.9976L82.0641 82.1397C82.0641 82.1397 77.4701 83.7965 76.6417 84.2484C75.8132 84.7003 77.2442 96.2982 79.3529 101.721C81.085 105.863 83.1184 109.93 85.3778 113.77L82.6666 116.933L84.0975 138.171" stroke="#263238" stroke-miterlimit="10" stroke-linecap="round"/>
<path d="M85.6039 115.051C85.6039 115.051 98.4821 107.746 102.624 101.344C106.766 94.8675 109.252 86.3573 109.252 86.3573L105.11 83.872L111.36 81.6127C111.36 81.6127 110.08 71.4457 110.08 66.6258C110.08 65.4961 110.08 64.6677 110.005 63.9146" stroke="#263238" stroke-miterlimit="10" stroke-linecap="round"/>
<path d="M89.3692 59.9227C89.3692 59.9227 86.0555 70.3157 86.0555 75.3615C86.0555 80.4074 87.4864 109.929 87.4864 109.929C87.4864 109.929 99.9881 84.7754 102.021 80.558C103.829 76.9431 105.109 73.1022 105.787 69.1107C106.239 65.4204 106.54 61.8055 106.615 58.1152C103.528 59.019 100.44 59.7721 97.2769 60.224C94.641 60.2993 91.9298 60.2993 89.3692 59.9227Z" fill="white" stroke="#263238" stroke-miterlimit="10" stroke-linecap="round"/>
<path d="M95.7709 66.7764L89.9719 72.4247L91.4028 79.7299L86.7336 94.4156C87.1101 102.474 87.4867 109.854 87.4867 109.854L96.3734 91.9303L93.8881 79.504L99.5365 73.2531L95.7709 66.7764Z" fill="#FF6F3D" stroke="#263238" stroke-miterlimit="10" stroke-linecap="round"/>
<path d="M89.3692 59.9227C89.3692 59.9227 86.0555 70.3157 86.0555 75.3615C86.0555 75.5121 86.0555 75.8134 86.0555 76.0393L94.1891 71.2194L95.4694 71.6713L102.624 79.5036C104.13 76.1899 105.26 72.7256 105.862 69.1107C106.314 65.4204 106.615 61.8055 106.691 58.1152C103.603 59.019 100.515 59.7721 97.3522 60.224C94.641 60.3746 91.9298 60.2993 89.3692 59.9227Z" fill="white" stroke="#263238" stroke-miterlimit="10" stroke-linecap="round"/>
<path d="M106.465 61.5802C106.54 59.5468 106.616 58.0405 106.616 58.0405C103.528 58.9443 100.44 59.6974 97.277 60.1492C94.6411 60.3752 92.0052 60.2999 89.3693 59.9233C89.3693 59.9233 92.683 70.7681 94.1892 71.1447C95.4695 71.5212 102.398 67.831 106.465 61.5802Z" fill="white" stroke="#263238" stroke-miterlimit="10" stroke-linecap="round"/>
<path d="M88.9929 22.7193C88.9929 22.7193 86.9595 22.1921 85.6792 25.6564C84.3989 29.1208 85.3027 41.1706 85.3027 41.1706C85.3027 41.1706 83.9471 39.0618 82.968 41.0199C81.3865 43.8818 83.4952 48.1745 84.0977 48.7017C84.4742 49.0782 84.9261 49.4548 85.378 49.756H86.1311C86.1311 49.756 86.1311 56.6847 87.2608 58.1909C88.3904 59.6971 91.2523 64.5924 92.7585 64.743C94.2647 64.8936 98.0303 64.8936 98.6328 64.8936C99.2352 64.8936 106.315 60.149 107.595 58.3415C108.875 56.5341 110.005 52.0907 110.005 52.0907C110.005 52.0907 114.9 49.5301 115.277 46.0658C115.653 42.6015 113.243 40.9446 112.716 40.9446C112.339 40.9446 111.963 41.0199 111.586 41.0953C111.586 41.0953 114.147 31.7567 113.017 26.8614C111.888 21.9662 99.4612 19.5562 95.3191 19.9328C92.9091 20.0834 90.6498 21.0625 88.9929 22.7193Z" fill="white" stroke="#263238" stroke-miterlimit="10" stroke-linecap="round"/>
<path d="M112.189 41.0199C111.963 41.0199 111.737 41.0952 111.511 41.1705C111.511 41.1705 114.071 31.8319 112.942 26.9367C111.812 22.0415 102.775 17.7487 96.3733 19.1796C93.7374 19.8574 91.1768 21.0624 88.9928 22.7193C88.9928 22.7193 86.9594 22.1921 85.6791 25.6564C84.3988 29.1207 85.3025 41.1705 85.3025 41.1705L85.5285 35.2962C85.5285 35.2962 86.2816 31.0788 87.1853 29.2713C88.089 27.4639 91.1768 25.4305 91.1768 25.4305C93.0596 26.3342 95.0177 27.0873 97.0511 27.6145C99.6117 28.1417 105.109 26.3342 105.109 26.3342C105.109 26.3342 106.917 27.4639 107.143 29.0454C107.369 30.6269 106.239 33.2628 106.39 35.0703C106.54 36.8778 109.477 39.4384 109.477 39.4384C109.477 39.4384 108.197 43.2792 110.005 43.2792C110.682 43.3546 111.436 42.3002 112.189 41.0199Z" fill="#263238" stroke="#263238" stroke-miterlimit="10" stroke-linecap="round"/>
<path d="M93.2101 44.4092C93.2101 44.4092 90.273 50.8106 91.4026 51.5638C92.5323 52.3169 95.6201 52.4675 96.9004 52.3169C97.5782 52.2416 98.1807 52.0156 98.7078 51.5638L101.268 54.1243" stroke="#263238" stroke-miterlimit="10" stroke-linecap="round"/>
<path d="M90.4991 51.0366C89.9719 52.0157 89.8213 52.8441 89.6706 53.1453" stroke="#263238" stroke-miterlimit="10" stroke-linecap="round"/>
<path d="M91.403 56.6848C91.403 56.6848 98.8588 58.2663 99.4613 56.5342" stroke="#263238" stroke-miterlimit="10" stroke-linecap="round"/>
<path d="M100.817 44.7854C101.274 44.7854 101.645 44.1785 101.645 43.4298C101.645 42.6811 101.274 42.0742 100.817 42.0742C100.359 42.0742 99.9883 42.6811 99.9883 43.4298C99.9883 44.1785 100.359 44.7854 100.817 44.7854Z" fill="#263238"/>
<path d="M91.177 41.9992C91.177 42.7523 90.8004 43.3548 90.3485 43.3548C89.8967 43.3548 89.5201 42.7523 89.5201 41.9992C89.5201 41.246 89.8967 40.6436 90.3485 40.6436C90.8004 40.6436 91.177 41.246 91.177 41.9992Z" fill="#263238"/>
<path d="M98.1054 38.3086C100.44 38.5345 102.85 39.0617 105.109 39.7395" stroke="#263238" stroke-miterlimit="10" stroke-linecap="round"/>
<path d="M92.5324 38.1583C90.8756 38.083 89.2187 38.4596 87.7878 39.288" stroke="#263238" stroke-miterlimit="10" stroke-linecap="round"/>
<path d="M110.758 94.1898L118.665 94.6417L116.557 92.3823L110.758 94.1898Z" fill="white" stroke="#263238" stroke-miterlimit="10" stroke-linecap="round"/>
<path d="M120.774 109.855L123.636 86.3574" stroke="#263238" stroke-miterlimit="10" stroke-linecap="round"/>
<path d="M68.7339 120.85C68.7339 120.85 64.7424 90.876 68.9599 78.8262" stroke="#263238" stroke-miterlimit="10" stroke-linecap="round"/>
<path d="M131.613 37.8561C134.175 35.7958 137.825 35.7958 140.387 37.8561L146.266 42.5843C149.734 45.3737 149.753 50.6492 146.304 53.4629L140.425 58.2596C137.849 60.3613 134.151 60.3613 131.575 58.2596L125.696 53.4629C122.247 50.6492 122.266 45.3737 125.734 42.5843L131.613 37.8561Z" fill="#9ADAF3"/>
<path d="M24.3905 50.1221C25.0854 50.5011 25.0854 51.4989 24.3905 51.8779L16.4789 56.1934C15.8125 56.5568 15 56.0745 15 55.3155L15 46.6845C15 45.9255 15.8125 45.4432 16.4789 45.8066L24.3905 50.1221Z" fill="#5FC1E8"/>
<path d="M137.429 127.857C136.782 127.469 136.782 126.531 137.429 126.143L144.486 121.909C145.152 121.509 146 121.989 146 122.766L146 131.234C146 132.011 145.152 132.491 144.486 132.091L137.429 127.857Z" fill="#95C03D"/>
<path d="M22 7C22 5.34315 23.3431 4 25 4H51C52.6569 4 54 5.34315 54 7V25C54 26.6569 52.6569 28 51 28H46V33.5L38 28H25C23.3431 28 22 26.6569 22 25V7Z" fill="white"/>
</g>
<defs>
<clipPath id="clip0_958_270">
<rect width="160" height="160" fill="white"/>
</clipPath>
</defs>
</svg>
