<svg width="160" height="160" viewBox="0 0 160 160" fill="none" xmlns="http://www.w3.org/2000/svg">
<g clip-path="url(#clip0_810_376)">
<path d="M68.4796 39.339C72.8712 35.8071 79.1289 35.8071 83.5205 39.339L137.456 82.716C143.402 87.4978 143.434 96.5415 137.522 101.365L83.5861 145.371C79.1704 148.973 72.8297 148.973 68.4139 145.371L14.4783 101.365C8.56633 96.5415 8.59813 87.4978 14.5439 82.716L68.4796 39.339Z" fill="#07569D"/>
<path d="M69.4 27.4C69.4 27.4 72.8 21.6 77.2 20C81.6 18.4 85.2 20.5 83.7 20.9C82.9 21.1 82.1 21.4 81.3 21.7C81.3 21.7 87.5 22.1 92.9 27.7C98.3 33.3 98 40.3 97 41.3C96 42.4 94.3 42 94.3 42C94.3 42 98 49.9 98.3 55.3C98.6 60.7 94.8 67 93.7 67.3C93.3 67.5 92.9 67.3 92.7 66.9C92.7 66.8 92.6 66.7 92.7 66.5C92.7 66.5 88.8 71.4 84 72.9C79.2 74.5 73 73.2 69.7 71.7C66.5 70.3 62.1 65.3 59.8 53.3C57.5 41.3 69.4 27.4 69.4 27.4Z" fill="#444444"/>
<path d="M70.3 70L77.7 70.4C77.7 70.4 88.9 98.6 91.1 106.7C93.3 114.8 97.9 132.7 97 133.5C96.4308 134.069 89.5 140 83.5 145C79.3 148.5 74 147.5 74 147.5L57.6 131.3L49.8 76C49.8 76 56.2 70.8 59 69.2C61.8 67.5 70.3 70 70.3 70Z" fill="white" stroke="#444444" stroke-linecap="round" stroke-linejoin="round"/>
<path d="M59 69.1C61.8 67.4 70.3 70 70.3 70L77.7 70.4C77.7 70.4 78.7 72.9 80.1 76.6C78.5 82.8 74.6 92.7 66.2 91.7C58.9 90.7 53.4 84.3 50.2 79.3L49.8 76C49.8 76 56.2 70.8 59 69.1Z" fill="white" stroke="#444444" stroke-linecap="round" stroke-linejoin="round"/>
<path d="M90.1 71.3001C90.1 71.3001 93.7 80.3001 96.7 83.9001C99.7 87.5001 103.1 94.7001 103.1 94.7001L104.9 95.0001L105.6 95.9001C105.6 95.9001 111.1 88.6001 114.7 83.9001C118.3 79.2001 123.1 72.6001 123.5 72.0001C124 71.4001 125.8 64.7001 127.2 63.0001C128.6 61.3001 134.1 54.7001 134.6 53.7001C135.1 52.7001 137.1 52.8001 137 53.7001C137 54.6001 133.2 59.6001 133.2 59.6001L134 59.9001C134 59.9001 137.8 55.7001 138.5 54.6001C139.3 53.5001 140.7 53.5001 140.6 54.6001C140.6 55.7001 136.6 61.0001 136 61.5001C135.7 61.7001 135.4 62.1001 135.4 62.5001C135.4 62.5001 140.6 56.8001 141 56.3001C141.4 55.8001 142.4 57.0001 141.3 58.9001C140.1 60.7001 138.7 62.4001 137.2 64.1001C138.2 63.1001 139.3 62.2001 140.5 61.4001C141.1 61.1001 141.3 62.3001 139.7 63.8001C138.1 65.4001 137.4 66.5001 136.1 68.5001C134.9 70.2001 133.4 71.6001 131.7 72.7001C131 73.1001 130.4 73.6001 129.9 74.1001C129.9 74.1001 126 86.7001 121.3 95.0001C116.5 103.3 108.8 113.5 106.7 114.5C104.7 115.5 102.5 115.6 101.4 114.8C100.3 113.9 94.2 104.5 93.8 104.1C93.4 103.7 85.7 73.9001 85.3 73.3001C85.1 72.6001 86.9 70.0001 90.1 71.3001Z" fill="white" stroke="#444444" stroke-linecap="round" stroke-linejoin="round"/>
<path d="M85.5 73.2C85.1 72.6 86.9 70 90.2 71.3C90.2 71.3 93.8 80.3 96.8 83.9C99.8 87.5 103.2 94.7 103.2 94.7L105 95L105.7 95.9C105.7 95.9 109 91.5 112.1 87.4L121.5 94.6L121.3 94.9C116.5 103.2 108.8 113.4 106.7 114.4C104.7 115.4 102.5 115.5 101.4 114.7C100.5 113.8 94.4 104.4 94 104C93.6 103.5 85.9 73.7 85.5 73.2Z" fill="#9ADAF3" stroke="#444444" stroke-linecap="round" stroke-linejoin="round"/>
<path d="M124.5 71.8C124.5 71.8 124 67.1 124.9 64.9C125.9 62.8 127 59.7 127.1 57.2C127.2 54.6 128.3 55.2 129.4 56.9C130.5 58.6 129 62.5 129 62.5C129 62.5 130.4 66.2 129.6 68.7" fill="white"/>
<path d="M124.5 71.8C124.5 71.8 124 67.1 124.9 64.9C125.9 62.8 127 59.7 127.1 57.2C127.2 54.6 128.3 55.2 129.4 56.9C130.5 58.6 129 62.5 129 62.5C129 62.5 130.4 66.2 129.6 68.7" stroke="#444444" stroke-linecap="round" stroke-linejoin="round"/>
<path d="M74.7 146.5C74 152.5 39 123.7 39 123.7C39 122.4 40.2 87.4 40.5 83C40.8 78.6 50.9 74.8 50.9 74.8C50.9 74.8 54.5 89.4 56.4 97.1C58.3 104.8 68.8 136.8 70.4 139.6C72 142.6 74.7 146.5 74.7 146.5Z" fill="#9ADAF3" stroke="#444444" stroke-linecap="round" stroke-linejoin="round"/>
<path d="M56.1 70.7C56.1 70.7 73 141.3 73.7 143C74.2 144.1 74.5 145.2 74.7 146.4L56.1 132.8L48.8 76L56.1 70.7Z" fill="#9ADAF3" stroke="#444444" stroke-linecap="round" stroke-linejoin="round"/>
<path d="M92.1 82.3C92.1 82.3 97.5 110.7 98 114.1C98.5 117.5 102 125.5 103 129C103 129.5 90.2 140 90.2 140V124.2L79.3 117.5C79.3 117.5 79.4 115.1 78.9 107.5C78.4 99.9 73 69.7 73 69.7C76.8 69.6 80.6 69.8 84.4 70.1C89.7 70.7 90.5 71.1 91.3 72.8C92.1 74.5 92.6 80.5 92.6 80.5" fill="#9ADAF3"/>
<path d="M92.1 82.3C92.1 82.3 97.5 110.7 98 114.1C98.5 117.5 102 125.5 103 129C103 129.5 90.2 140 90.2 140V124.2L79.3 117.5C79.3 117.5 79.4 115.1 78.9 107.5C78.4 99.9 73 69.7 73 69.7C76.8 69.6 80.6 69.8 84.4 70.1C89.7 70.7 90.5 71.1 91.3 72.8C92.1 74.5 92.6 80.5 92.6 80.5" stroke="#444444" stroke-linecap="round" stroke-linejoin="round"/>
<path d="M96.3 129.7L80 71.3" stroke="#444444" stroke-linecap="round" stroke-linejoin="round"/>
<path d="M90.2 124.3L96.3 129.7L90.2 140V124.3Z" fill="#9ADAF3" stroke="#444444" stroke-linecap="round" stroke-linejoin="round"/>
<path d="M45.6 78C45.6 78 32 80.7 31.3 81.3C30.6 81.9 27.7 87.5 27.5 93C27.046 105.713 21 119 25.5 132.1C25.5 133.2 27.2 132.7 30.8 132.7C34.4 132.7 61.9 129.3 61.9 129.3C61.9 129.3 62 130.2 63.7 130.4C65.4 130.7 67 131.1 67 131.1C67 131.1 65.6 132.4 66.4 132.5C67.3 132.7 68.2 132.8 69.1 132.8C70.1 132.8 71 132.6 71.8 132.1C72.5 131.7 78.6 127.9 78.3 126.9C78 125.9 72.3 120.6 71.4 120.6C70.5 120.6 60.9 124.2 58.7 124.2C56.5 124.2 40.6 121.5 40.6 121.5C40.6 121.5 42 119.1 41.6 118.1C41.3 117.3 41.1 116.5 41.1 115.7C41.1 115.3 44 97.4 44 97.4" fill="#9ADAF3"/>
<path d="M45.6 78C45.6 78 32 80.7 31.3 81.3C30.6 81.9 27.7 87.5 27.5 93C27.046 105.713 21 119 25.5 132.1C25.5 133.2 27.2 132.7 30.8 132.7C34.4 132.7 61.9 129.3 61.9 129.3C61.9 129.3 62 130.2 63.7 130.4C65.4 130.7 67 131.1 67 131.1C67 131.1 65.6 132.4 66.4 132.5C67.3 132.7 68.2 132.8 69.1 132.8C70.1 132.8 71 132.6 71.8 132.1C72.5 131.7 78.6 127.9 78.3 126.9C78 125.9 72.3 120.6 71.4 120.6C70.5 120.6 60.9 124.2 58.7 124.2C56.5 124.2 40.6 121.5 40.6 121.5C40.6 121.5 42 119.1 41.6 118.1C41.3 117.3 41.1 116.5 41.1 115.7C41.1 115.3 44 97.4 44 97.4" stroke="#444444" stroke-linecap="round" stroke-linejoin="round"/>
<path d="M39.7 121.3L30.7 120" stroke="#444444" stroke-linecap="round" stroke-linejoin="round"/>
<path d="M45.8 129C45 126.8 45.3 124.4 46.8 122.6C51.5 123.4 57.5 124.3 58.8 124.3C60.9 124.3 70.5 120.7 71.4 120.7C72.3 120.7 78.1 126 78.3 127C78.5 128 72.5 131.7 71.8 132.2C71 132.7 70 133 69.1 132.9C68.2 132.9 67.3 132.8 66.4 132.6C65.7 132.5 67 131.2 67 131.2C67 131.2 65.4 130.8 63.7 130.5C62 130.2 61.9 129.3 61.9 129.3C61.9 129.3 54.4 130.2 46.7 131.1C46.3 130.4 46 129.7 45.8 129Z" fill="white" stroke="#444444" stroke-linecap="round" stroke-linejoin="round"/>
<path d="M71.1 122.7C71.1 122.7 76.5 127.6 76.4 128.6L71.1 122.7Z" fill="white"/>
<path d="M71.1 122.7C71.1 122.7 76.5 127.6 76.4 128.6" stroke="#444444" stroke-linecap="round" stroke-linejoin="round"/>
<path d="M69.8 124.6C69.8 124.6 74.6 129.6 74.6 130.1L69.8 124.6Z" fill="white"/>
<path d="M69.8 124.6C69.8 124.6 74.6 129.6 74.6 130.1" stroke="#444444" stroke-linecap="round" stroke-linejoin="round"/>
<path d="M67.4 126.1C67.4 126.1 72.1 130.4 72.3 131.7L67.4 126.1Z" fill="white"/>
<path d="M67.4 126.1C67.4 126.1 72.1 130.4 72.3 131.7" stroke="#444444" stroke-linecap="round" stroke-linejoin="round"/>
<path d="M77.3 62.4C77.3 62.4 79.6 69.1 78.7 70.7C77.8 72.3 73.2 72.1 73 69.7C72.8 67.3 75.7 61.5 76.2 61.2C76.7 61 77.3 62.4 77.3 62.4Z" fill="white" stroke="#444444" stroke-linecap="round" stroke-linejoin="round"/>
<path d="M72.2 78.5999L75.4 66.0999L61.6 59.2L61.9 61.4L58.7 74.0999" fill="white"/>
<path d="M72.2 78.5999L75.4 66.0999L61.6 59.2L61.9 61.4L58.7 74.0999" stroke="#444444" stroke-linecap="round" stroke-linejoin="round"/>
<path d="M76.2 38.3C76.2 38.3 80.4 44.1 80.3 45.1C80.2 46.2 79.9 48.1 81 49.2C82.1 50.3 84.2 51.7 84.1 53.3C84 54.9 81.2 56.3 81.2 56.3C81.2 56.3 81.2 63.5 80.8 65.1C80.4 66.7 77.9 67.8 76.6 67.8C75.8 67.8 74.9 67.7 74.1 67.5C74.1 67.5 65.9 67 62.6 60.9C59.3 54.9 62.6 40.6 66 38.4C69.4 36.2 74.8 37.1 76.2 38.3Z" fill="white" stroke="#444444" stroke-linecap="round" stroke-linejoin="round"/>
<path d="M76 60C76 60.5 76.7 61.5 77.5 61.5C78.3 61.5 78.5 61 78.5 61" stroke="#444444" stroke-linecap="round"/>
<path d="M76.6 49.9C76.7 51 77.1 51.8 77.6 51.7C78.1 51.7 78.4 50.8 78.3 49.7C78.2 48.6 77.8 47.8 77.3 47.9C76.9 48 76.6 48.8 76.6 49.9Z" fill="#444444"/>
<path d="M78.8 46.3C78.8 46.3 77.2 44.5 75.2 47.1" stroke="#444444" stroke-linecap="round" stroke-linejoin="round"/>
<path d="M64.3 63C64.3 63 66.6 69.7 65.7 71.3C64.8 72.9 60.2 72.7 60 70.3C59.8 67.9 62.7 62.1 63.2 61.8C63.7 61.5 64.3 63 64.3 63Z" fill="white" stroke="#444444" stroke-linecap="round" stroke-linejoin="round"/>
<path d="M76.2 36.3999C76.2 36.3999 67 58.6999 63.6 65.3999C60.2 72.0999 49.5 80.0999 45.2 79.0999C40.9 78.0999 33.9 69.1999 34.1 64.1999C34.1 64.1999 31.1 65.8999 30.1 62.3999C29.1 58.8999 32.8 51.1999 32.8 51.1999C32.8 51.1999 29.8 53.6999 30.2 51.1999C30.6 48.6999 35.1 43.2999 35.1 43.2999C35.1 43.2999 29.9 44.5999 32.4 38.5999C34.9 32.5999 41.4 29.3999 45.3 27.1999C49.2 24.9999 51.7 25.1999 51.7 25.1999C51.7 25.1999 47.9 25.1999 49.9 23.8999C51.9 22.5999 59.8 20.2999 64.2 22.0999C68.6 23.8999 69.9 26.6999 69.9 26.6999C69.9 26.6999 76.3 23.6999 78.3 27.9999C80.2 32.2999 76.2 36.3999 76.2 36.3999Z" fill="#444444"/>
<path d="M122.613 18.8561C125.175 16.7958 128.825 16.7958 131.387 18.8561L137.266 23.5843C140.734 26.3737 140.753 31.6492 137.304 34.4629L131.425 39.2596C128.849 41.3613 125.151 41.3613 122.575 39.2596L116.696 34.4629C113.247 31.6492 113.266 26.3737 116.734 23.5843L122.613 18.8561Z" fill="#FF6F3D"/>
<path d="M20.8905 23.1221C21.5854 23.5011 21.5854 24.4989 20.8905 24.8779L12.9789 29.1934C12.3125 29.5568 11.5 29.0745 11.5 28.3155L11.5 19.6845C11.5 18.9255 12.3125 18.4432 12.9789 18.8066L20.8905 23.1221Z" fill="#95C03D"/>
<path d="M140.429 129.857C139.782 129.469 139.782 128.531 140.429 128.143L147.486 123.909C148.152 123.509 149 123.989 149 124.766L149 133.234C149 134.011 148.152 134.491 147.486 134.091L140.429 129.857Z" fill="white"/>
</g>
<defs>
<clipPath id="clip0_810_376">
<rect width="160" height="160" fill="white"/>
</clipPath>
</defs>
</svg>
