<svg width="35" height="32" viewBox="0 0 35 32" fill="none" xmlns="https://www.w3.org/2000/svg">
<path fill-rule="evenodd" clip-rule="evenodd" d="M15.3735 31.6159L0.941235 25.0206C-0.313745 24.4443 -0.313745 23.5479 0.941235 23.0356L5.96116 20.7305L15.3038 25.0206C16.5588 25.5969 18.511 25.5969 19.6962 25.0206L29.0388 20.7305L34.0588 23.0356C35.3137 23.6119 35.3137 24.5084 34.0588 25.0206L19.6265 31.6159C18.511 32.1282 16.489 32.1282 15.3735 31.6159Z" fill="#F36F43"/>
<path fill-rule="evenodd" clip-rule="evenodd" d="M15.3038 23.4837L0.941235 16.9524C-0.313745 16.3761 -0.313745 15.4797 0.941235 14.9674L5.82171 12.7263L15.3038 17.0805C16.5588 17.6568 18.511 17.6568 19.6265 17.0805L29.1086 12.7263L33.989 14.9674C35.244 15.5437 35.244 16.4402 33.989 16.9524L19.6265 23.4837C18.4412 24.06 16.489 24.06 15.3038 23.4837Z" fill="#95C03D"/>
<path fill-rule="evenodd" clip-rule="evenodd" d="M15.3038 15.5438L0.941235 9.01251C-0.313745 8.43622 -0.313745 7.53977 0.941235 7.02751L15.3038 0.432216C16.5588 -0.144072 18.511 -0.144072 19.6265 0.432216L33.989 7.02751C35.244 7.6038 35.244 8.50025 33.989 9.01251L19.6265 15.5438C18.4412 16.1201 16.489 16.1201 15.3038 15.5438Z" fill="#5FC1E8"/>
</svg>
