<svg width="160" height="160" viewBox="0 0 160 160" fill="none" xmlns="https://www.w3.org/2000/svg">
<g clip-path="url(#clip0_958_185)">
<path d="M68.4795 39.339C72.8712 35.8071 79.1288 35.8071 83.5205 39.339L137.456 82.716C143.402 87.4978 143.434 96.5415 137.522 101.365L83.5861 145.371C79.1703 148.973 72.8297 148.973 68.4139 145.371L14.4782 101.365C8.56629 96.5415 8.5981 87.4978 14.5439 82.716L68.4795 39.339Z" fill="#07569D"/>
<path d="M86.6453 109.544C86.6453 109.544 88.6976 111.44 89.2765 111.598C89.8553 111.756 90.9078 112.019 90.9078 112.019L92.1182 112.283L89.487 108.438L86.6453 109.544Z" fill="white" stroke="#444444" stroke-linecap="round" stroke-linejoin="round"/>
<path d="M79.0675 97.9065L93.0129 113.757L102.591 112.493L88.9082 96.0635L79.0675 97.9065Z" fill="white" stroke="#444444" stroke-linecap="round" stroke-linejoin="round"/>
<path d="M83.8037 106.069C83.5932 105.753 83.3827 105.437 83.2248 105.068C83.2774 104.384 83.3827 103.752 83.5405 103.067C83.6458 102.804 83.9089 102.699 84.1194 103.225C84.2773 103.646 84.3825 104.068 84.3299 104.489C84.3825 104.805 84.4878 105.121 84.593 105.437L84.0142 106.279L83.8037 106.069Z" fill="white" stroke="#444444" stroke-linecap="round" stroke-linejoin="round"/>
<path d="M85.0139 107.648C85.0139 107.648 83.8562 106.279 83.8562 106.069C84.0667 105.489 84.2772 104.963 84.5929 104.436C84.6456 104.331 86.1717 104.226 86.4348 104.173C86.6979 104.12 87.2242 104.015 87.0663 104.436C86.961 104.805 86.6979 105.121 86.3295 105.279C86.0664 105.384 85.8033 105.542 85.5402 105.7L85.4349 106.121L85.8559 106.753" fill="white"/>
<path d="M85.0139 107.648C85.0139 107.648 83.8562 106.279 83.8562 106.069C84.0667 105.489 84.2772 104.963 84.5929 104.436C84.6456 104.331 86.1717 104.226 86.4348 104.173C86.6979 104.12 87.2242 104.015 87.0663 104.436C86.961 104.805 86.6979 105.121 86.3295 105.279C86.0664 105.384 85.8033 105.542 85.5402 105.7L85.4349 106.121L85.8559 106.753" stroke="#444444" stroke-linecap="round" stroke-linejoin="round"/>
<path d="M85.856 108.702C85.856 108.702 84.5404 107.175 84.5404 106.911C84.7509 106.28 85.014 105.648 85.3298 105.068C85.3824 104.963 87.0664 104.858 87.3821 104.752C87.6979 104.647 88.2241 104.594 88.1189 105.016C88.0136 105.437 87.6979 105.806 87.2769 105.964C86.9611 106.069 86.698 106.28 86.4349 106.438L86.3296 106.911L86.8032 107.596" fill="white"/>
<path d="M85.856 108.702C85.856 108.702 84.5404 107.175 84.5404 106.911C84.7509 106.28 85.014 105.648 85.3298 105.068C85.3824 104.963 87.0664 104.858 87.3821 104.752C87.6979 104.647 88.2241 104.594 88.1189 105.016C88.0136 105.437 87.6979 105.806 87.2769 105.964C86.9611 106.069 86.698 106.28 86.4349 106.438L86.3296 106.911L86.8032 107.596" stroke="#444444" stroke-linecap="round" stroke-linejoin="round"/>
<path d="M87.1715 110.018C86.5926 109.439 86.0664 108.807 85.5928 108.175C85.8559 107.596 86.119 107.016 86.4348 106.437C86.4348 106.437 89.6448 105.911 89.8027 105.963C89.9606 106.016 90.0658 106.226 89.5396 106.7C89.066 107.069 88.5397 107.28 87.9609 107.385C87.7504 107.438 87.6977 108.333 87.6977 108.333L88.645 109.544" fill="white"/>
<path d="M87.1715 110.018C86.5926 109.439 86.0664 108.807 85.5928 108.175C85.8559 107.596 86.119 107.016 86.4348 106.437C86.4348 106.437 89.6448 105.911 89.8027 105.963C89.9606 106.016 90.0658 106.226 89.5396 106.7C89.066 107.069 88.5397 107.28 87.9609 107.385C87.7504 107.438 87.6977 108.333 87.6977 108.333L88.645 109.544" stroke="#444444" stroke-linecap="round" stroke-linejoin="round"/>
<path d="M75.8047 109.702C74.9101 110.018 74.0155 110.439 73.1735 110.966C72.1736 111.651 70.437 112.546 70.437 112.546L68.7004 118.549C70.0687 118.601 71.3843 119.075 72.4894 119.813C74.1734 121.076 77.8044 120.708 78.7517 120.129C79.6989 119.549 80.9093 115.126 79.7515 114.125C78.5938 113.125 75.8047 109.702 75.8047 109.702Z" fill="white" stroke="#444444" stroke-linecap="round" stroke-linejoin="round"/>
<path d="M86.961 114.494L83.8036 113.494C83.8036 113.494 81.4355 111.914 80.8566 111.703C80.0146 111.545 79.12 111.44 78.2254 111.493C78.2254 111.493 72.8051 119.339 72.542 119.865C72.2788 120.392 72.2262 121.656 73.0156 121.919C73.805 122.182 75.752 121.445 75.752 121.445C75.752 121.445 77.5939 122.34 78.699 122.13C79.8041 121.919 83.2247 119.497 83.2247 119.497L87.1715 119.392L86.961 114.494Z" fill="white" stroke="#444444" stroke-linecap="round" stroke-linejoin="round"/>
<path d="M75.2786 111.861C75.2786 111.861 77.7519 115.705 78.6991 115.811C79.6464 115.916 80.541 115.337 79.8042 114.126C79.0675 112.914 78.3308 110.966 77.8571 109.913C77.3835 108.86 75.5943 108.912 74.8049 110.597" fill="white"/>
<path d="M75.2786 111.861C75.2786 111.861 77.7519 115.705 78.6991 115.811C79.6464 115.916 80.541 115.337 79.8042 114.126C79.0675 112.914 78.3308 110.966 77.8571 109.913C77.3835 108.86 75.5943 108.912 74.8049 110.597" stroke="#444444" stroke-linecap="round" stroke-linejoin="round"/>
<path d="M82.067 117.706C81.5934 118.286 81.5407 119.075 81.9091 119.707C82.1722 120.181 82.488 120.655 82.5932 120.655C83.2247 120.655 83.6983 120.129 83.6983 119.497C83.6983 118.707 83.0142 116.706 82.067 117.706Z" fill="white" stroke="#444444" stroke-linecap="round" stroke-linejoin="round"/>
<path d="M80.7514 119.18C80.2777 119.76 80.2251 120.55 80.5935 121.181C80.8566 121.655 81.1724 122.129 81.2776 122.129C81.9091 122.129 82.3827 121.603 82.3827 120.971C82.3827 120.181 81.646 118.18 80.7514 119.18Z" fill="white" stroke="#444444" stroke-linecap="round" stroke-linejoin="round"/>
<path d="M79.2253 120.602C78.8569 121.076 78.8043 121.708 79.12 122.182C79.3305 122.551 79.5937 122.972 79.6989 122.972C80.2252 122.972 80.5935 122.551 80.5935 122.024C80.5409 121.445 79.962 119.812 79.2253 120.602Z" fill="white" stroke="#444444" stroke-linecap="round" stroke-linejoin="round"/>
<path d="M77.8571 121.234C77.594 121.603 77.5413 122.077 77.7518 122.445C77.9097 122.761 78.1202 123.025 78.1728 123.025C78.5412 123.025 78.8569 122.709 78.8569 122.287C78.8569 121.866 78.4359 120.602 77.8571 121.234Z" fill="white" stroke="#444444" stroke-linecap="round" stroke-linejoin="round"/>
<path d="M71.0159 111.861L69.595 119.602L66.8586 119.497L68.4899 111.124L71.0159 111.861Z" fill="#95C03D" stroke="#444444" stroke-linecap="round" stroke-linejoin="round"/>
<path d="M69.1214 110.071C69.1214 110.071 67.8058 119.76 67.0691 120.602C66.3323 121.445 56.6495 118.812 56.1758 118.707C55.7022 118.601 56.7547 104.805 56.7547 104.805C56.7547 104.805 68.0163 109.597 69.1214 110.071Z" fill="#95C03D" stroke="#444444" stroke-linecap="round" stroke-linejoin="round"/>
<path d="M102.012 44.0368C102.012 44.0368 100.222 48.1441 100.222 49.7239C100.222 51.3037 100.38 53.726 99.9593 54.9898C99.5383 56.2536 97.4859 56.9908 97.9595 58.044C98.4332 59.0972 99.854 59.7291 99.854 59.7291C99.854 59.7291 100.854 64.837 101.433 66.3641C102.012 67.8912 102.906 68.1545 103.748 67.9965C104.59 67.8385 106.8 67.312 106.8 67.312L108.432 75.6847L119.062 69.7869L117.273 64.3104C117.273 64.3104 120.325 58.9919 117.062 51.6196C113.799 44.2474 106.906 39.7714 102.012 44.0368Z" fill="white" stroke="#444444" stroke-linecap="round" stroke-linejoin="round"/>
<path d="M101.643 50.9876C102.275 50.7243 103.012 50.9876 103.275 51.6195V51.6721" stroke="#444444" stroke-linecap="round" stroke-linejoin="round"/>
<path d="M102.433 55.4638C102.694 55.4638 102.906 54.9923 102.906 54.4106C102.906 53.8289 102.694 53.3574 102.433 53.3574C102.171 53.3574 101.959 53.8289 101.959 54.4106C101.959 54.9923 102.171 55.4638 102.433 55.4638Z" fill="#444444"/>
<path d="M101.801 62.4145C101.801 62.4145 104.011 62.3618 105.011 60.9927" stroke="#444444" stroke-linecap="round" stroke-linejoin="round"/>
<path d="M119.272 67.6279C119.272 67.6279 107.116 75.0002 106.695 75.5794C106.274 76.1587 105.906 79.8974 105.906 79.8974L121.114 69.8923L119.272 67.6279Z" fill="white" stroke="#444444" stroke-linecap="round" stroke-linejoin="round"/>
<path d="M120.693 68.6284C120.693 68.6284 105.958 78.265 104.117 80.5293C102.275 82.7936 98.1174 93.7993 98.1174 95.7477C98.1174 97.6961 100.591 117.654 100.591 117.654L98.4999 132.5C113.883 120.497 123.5 112.5 123.5 112C123.395 110.315 127.008 96.5902 127.219 93.0621C127.429 89.534 125.535 79.8974 124.377 76.9485C123.377 74.1049 122.114 71.314 120.693 68.6284Z" fill="#5FC1E8" stroke="#444444" stroke-linecap="round" stroke-linejoin="round"/>
<path d="M103.59 36.7168C103.59 36.7168 99.1172 38.4545 99.2225 40.0343C99.3277 41.614 101.748 46.1427 103.696 47.9857C105.643 49.8288 111.063 54.0942 111.537 57.8856C112.01 61.677 110.958 65.3631 109.484 65.4685L108.011 65.5738C108.011 65.5738 108.59 68.3647 113.747 69.1546C118.904 69.9445 124.798 69.8391 127.692 64.8892C130.587 59.9393 129.85 48.9863 127.008 43.931C124.166 38.8758 117.009 35.7689 113.063 35.1897C109.116 34.6104 103.59 36.7168 103.59 36.7168Z" fill="#444444" stroke="#444444" stroke-linecap="round" stroke-linejoin="round"/>
<path d="M102.643 86.743C103.327 85.7424 104.117 84.7946 104.959 83.8467C106.379 82.4249 108.063 81.2664 109.853 80.3186L111.116 78.2649L112.273 78.7388C112.273 78.7388 115.431 76.6851 117.851 74.8947C119.114 73.9469 120.272 72.841 121.272 71.6299" stroke="#444444" stroke-linecap="round" stroke-linejoin="round"/>
<path d="M100.328 90.1657C100.328 90.1657 100.959 89.1652 101.854 87.9014" stroke="#444444" stroke-linecap="round" stroke-linejoin="round"/>
<path d="M113.589 81.5298C113.589 81.5298 110.063 85.8478 109.747 87.3223C109.432 88.7967 107.064 106.227 107.064 106.227C107.064 106.227 105.38 106.227 105.116 106.701C104.853 107.175 104.538 110.229 104.538 110.229C104.538 110.229 103.643 111.229 103.169 111.335L85.9612 114.073L86.7505 120.866C86.7505 120.866 97.749 120.866 100.801 120.55C103.853 120.234 107.853 120.55 109.747 119.76C112.589 119.181 114.957 116.601 114.957 116.601L116.483 112.914C116.483 112.914 122.43 97.6434 122.64 94.5892C122.798 93.2727 122.693 91.9036 122.43 90.5871" fill="#5FC1E8"/>
<path d="M113.589 81.5298C113.589 81.5298 110.063 85.8478 109.747 87.3223C109.432 88.7967 107.064 106.227 107.064 106.227C107.064 106.227 105.38 106.227 105.116 106.701C104.853 107.175 104.538 110.229 104.538 110.229C104.538 110.229 103.643 111.229 103.169 111.335L85.9612 114.073L86.7505 120.866C86.7505 120.866 97.749 120.866 100.801 120.55C103.853 120.234 107.853 120.55 109.747 119.76C112.589 119.181 114.957 116.601 114.957 116.601L116.483 112.914C116.483 112.914 122.43 97.6434 122.64 94.5892C122.798 93.2727 122.693 91.9036 122.43 90.5871" stroke="#444444" stroke-linecap="round" stroke-linejoin="round"/>
<path d="M57.7547 38.297C57.7547 38.297 59.807 42.1937 59.9122 44.2474C60.0175 46.3011 59.1755 48.6181 59.4386 50.3032C59.7017 51.9883 61.491 52.6202 61.1226 53.726C60.7542 54.8319 59.0703 55.2531 59.0703 55.2531C59.0703 55.2531 58.2283 59.0972 57.5968 61.3089C56.9653 63.5206 54.8077 63.8365 53.7552 63.8365C52.5975 63.6785 51.4924 63.4679 50.3873 63.0993L49.2821 69.5237L36.7576 60.4137L37.7574 54.9372L39.8098 51.0931C39.8098 51.0931 37.1259 45.0373 39.5467 40.772C41.9674 36.5066 46.1247 35.0848 50.8082 34.5582C55.4918 34.0316 57.7547 38.297 57.7547 38.297Z" fill="white" stroke="#444444" stroke-linecap="round" stroke-linejoin="round"/>
<path d="M41.6516 51.9355C41.7568 52.5675 42.2304 53.1467 42.8619 53.3573C43.6513 53.4627 44.388 53.3573 45.0721 52.9887C45.0721 52.9887 44.1249 56.8328 45.8089 58.9392" stroke="#444444" stroke-linecap="round" stroke-linejoin="round"/>
<path d="M54.2814 55.6743C54.2814 55.6743 54.8077 57.57 56.439 57.57" stroke="#444444" stroke-linecap="round" stroke-linejoin="round"/>
<path d="M55.3339 44.6687C55.3339 44.6687 56.018 43.2469 58.1756 43.9315" stroke="#444444" stroke-linecap="round" stroke-linejoin="round"/>
<path d="M57.3862 52.1989C58.7812 52.1989 59.9122 50.6193 59.9122 48.6707C59.9122 46.7222 58.7812 45.1426 57.3862 45.1426C55.9911 45.1426 54.8602 46.7222 54.8602 48.6707C54.8602 50.6193 55.9911 52.1989 57.3862 52.1989Z" stroke="#444444" stroke-linecap="round" stroke-linejoin="round"/>
<path d="M57.8598 49.513C57.8598 50.1449 57.5967 50.6715 57.281 50.6715C56.9652 50.6715 56.7021 50.1449 56.7021 49.513C56.7021 48.8811 56.9652 48.3545 57.281 48.3545C57.5967 48.3545 57.8598 48.8284 57.8598 49.513Z" fill="#444444"/>
<path d="M54.7024 49.0919L44.809 48.8286" stroke="#444444" stroke-linecap="round" stroke-linejoin="round"/>
<path d="M57.7546 38.2967C57.7546 38.2967 55.0708 35.8218 52.8079 36.5063C50.5451 37.1909 49.9136 38.3494 50.9661 40.6137C52.0186 42.878 51.5976 44.9844 50.5977 45.669C49.5979 46.3535 46.3352 46.8801 45.9668 47.512C45.651 47.9859 45.2827 48.4072 44.8617 48.8285C44.8617 48.8285 44.0197 46.3009 42.5988 47.0381C41.178 47.7753 40.8096 50.6715 41.6516 51.8827L37.7574 54.8842C37.7574 54.8842 37.9679 50.4082 36.4418 46.8801C34.9157 43.352 34.2316 35.5058 37.0207 33.1888C39.8097 30.8718 43.3356 31.3458 44.3881 30.3979C45.4405 29.45 45.3353 27.3437 48.598 27.0277C51.8607 26.7118 53.2816 29.1868 54.6498 29.766C56.018 30.3452 56.5969 28.3442 58.9124 29.924C61.2278 31.5037 63.1223 33.7154 62.3329 36.0851C61.5436 38.4547 57.7546 38.2967 57.7546 38.2967Z" fill="#444444" stroke="#444444" stroke-linecap="round" stroke-linejoin="round"/>
<path d="M50.9134 71.7349C50.9134 71.7349 53.913 74.9997 53.4394 77.264C53.1237 78.5805 52.9658 79.9496 53.0184 81.3188C53.0184 81.3188 56.1759 86.5846 56.439 96.1685C56.7021 105.752 58.3861 119.18 58.3861 119.18L55.3865 125.763L51.7028 118.549C51.7028 118.549 52.7553 101.066 52.9132 96.7478C53.071 92.4298 53.1763 88.7437 52.65 86.1107C52.3343 84.4783 52.1238 82.8985 51.9659 81.2661L49.861 73.6306L50.9134 71.7349Z" fill="#444444" stroke="#444444" stroke-linecap="round" stroke-linejoin="round"/>
<path d="M35.8629 58.3599L51.808 69.8395L49.8609 77.1064L34.442 62.0986L35.8629 58.3599Z" fill="#95C03D" stroke="#444444" stroke-linecap="round" stroke-linejoin="round"/>
<path d="M34.3894 62.0986C34.3894 62.0986 25.0223 75.2633 23.7067 80.6872C22.3911 86.111 23.2857 96.1689 23.4436 97.538C23.6014 98.9071 23.8685 107.842 24.5 109C26 110 51 130.5 54 133C54.6924 130.5 54.8076 119.76 54.8076 119.76C54.8076 119.76 54.9655 91.3769 54.6498 87.5328C54.334 83.6887 49.8083 75.4213 49.8083 75.4213L34.3894 62.0986Z" fill="#95C03D" stroke="#444444" stroke-linecap="round" stroke-linejoin="round"/>
<path d="M31.4951 73.7886C31.4951 73.7886 27.5483 81.8454 27.3904 85.5315C27.2326 89.2176 29.5 104.364 29.5 113C30.5 114 42 123 42 123C42 119.788 46.914 95.9579 45.0196 84.9522" fill="#95C03D"/>
<path d="M31.4951 73.7886C31.4951 73.7886 27.5483 81.8454 27.3904 85.5315C27.2326 89.2176 29.5 104.364 29.5 113C30.5 114 42 123 42 123C42 119.788 46.914 95.9579 45.0196 84.9522" stroke="#444444" stroke-linecap="round" stroke-linejoin="round"/>
<path d="M130.613 127.856C133.175 125.796 136.825 125.796 139.387 127.856L145.266 132.584C148.734 135.374 148.753 140.649 145.304 143.463L139.425 148.26C136.849 150.361 133.151 150.361 130.575 148.26L124.696 143.463C121.247 140.649 121.266 135.374 124.734 132.584L130.613 127.856Z" fill="#5FC1E8"/>
<path d="M21.3905 12.1221C22.0854 12.5011 22.0854 13.4989 21.3905 13.8779L13.4789 18.1934C12.8125 18.5568 12 18.0745 12 17.3155L12 8.68454C12 7.92548 12.8125 7.44317 13.4789 7.80665L21.3905 12.1221Z" fill="white"/>
<path d="M140.429 50.8575C139.782 50.4691 139.782 49.5309 140.429 49.1425L147.486 44.9087C148.152 44.5088 149 44.9889 149 45.7662L149 54.2338C149 55.0111 148.152 55.4912 147.486 55.0913L140.429 50.8575Z" fill="#95C03D"/>
<path d="M104 3C104 1.34315 102.657 0 101 0H79C77.3431 0 76 1.34315 76 3V17.339C76 18.9958 77.3431 20.339 79 20.339H83V25L90 20.339H101C102.657 20.339 104 18.9958 104 17.339V3Z" fill="white"/>
</g>
<defs>
<clipPath id="clip0_958_185">
<rect width="160" height="160" fill="white"/>
</clipPath>
</defs>
</svg>
