<svg width="186" height="35" viewBox="0 0 186 35" fill="none" xmlns="http://www.w3.org/2000/svg">
<path fill-rule="evenodd" clip-rule="evenodd" d="M15.3735 31.6159L0.941235 25.0206C-0.313745 24.4443 -0.313745 23.5479 0.941235 23.0356L5.96116 20.7305L15.3038 25.0206C16.5588 25.5969 18.511 25.5969 19.6962 25.0206L29.0388 20.7305L34.0588 23.0356C35.3137 23.6119 35.3137 24.5084 34.0588 25.0206L19.6265 31.6159C18.511 32.1282 16.489 32.1282 15.3735 31.6159Z" fill="#F36F43"/>
<path fill-rule="evenodd" clip-rule="evenodd" d="M15.3038 23.4839L0.941235 16.9527C-0.313745 16.3764 -0.313745 15.4799 0.941235 14.9677L5.82171 12.7266L15.3038 17.0807C16.5588 17.657 18.511 17.657 19.6265 17.0807L29.1086 12.7266L33.989 14.9677C35.244 15.544 35.244 16.4404 33.989 16.9527L19.6265 23.4839C18.4412 24.0602 16.489 24.0602 15.3038 23.4839Z" fill="#95C03D"/>
<path fill-rule="evenodd" clip-rule="evenodd" d="M15.3038 15.5438L0.941235 9.01251C-0.313745 8.43622 -0.313745 7.53977 0.941235 7.02751L15.3038 0.432216C16.5588 -0.144072 18.511 -0.144072 19.6265 0.432216L33.989 7.02751C35.244 7.6038 35.244 8.50025 33.989 9.01251L19.6265 15.5438C18.4412 16.1201 16.489 16.1201 15.3038 15.5438Z" fill="#5FC1E8"/>
<path d="M45 9.00017C45 5.97874 45.8313 3.72874 47.6218 2.31445C49.2844 0.771596 51.3306 0.0644531 53.6327 0.0644531C55.9347 0.0644531 57.917 0.771596 59.6435 2.31445C61.3061 3.85731 62.2014 6.04302 62.2014 9.06445C62.2014 12.0859 61.3701 14.3359 59.6435 15.7502C57.981 17.293 55.9347 18.0002 53.6327 18.0002C51.3306 18.0002 49.3483 17.293 47.6218 15.7502C45.8952 14.2073 45 11.9573 45 9.00017ZM48.7728 9.00017C48.7728 11.0573 49.1565 12.5359 49.9238 13.5002C50.6912 14.4645 51.5864 15.1073 52.4816 15.3002C52.7374 15.3645 52.8653 15.4287 53.1211 15.4287C53.3129 15.4287 53.5048 15.493 53.6966 15.493C53.9524 15.493 54.0803 15.493 54.3361 15.4287C54.5918 15.4287 54.7197 15.3645 54.9755 15.3002C55.8707 15.043 56.702 14.4645 57.4694 13.5002C58.1728 12.5359 58.6204 10.993 58.6204 9.06445C58.6204 7.00731 58.2367 5.59302 57.4694 4.62874C56.766 3.66445 55.8707 3.0216 54.9755 2.82874C54.7197 2.76445 54.5279 2.70017 54.3361 2.70017C54.0803 2.70017 53.9524 2.63588 53.6966 2.63588C53.4408 2.63588 53.3129 2.63588 53.1211 2.70017C52.9293 2.70017 52.7374 2.76445 52.4816 2.82874C51.5864 3.08588 50.7551 3.66445 49.9238 4.62874C49.1565 5.40017 48.7728 6.94302 48.7728 9.00017Z" fill="white"/>
<path d="M64.7592 0H69.4272L75.566 11.3143L76.4612 13.8214H76.5251L76.4612 10.6071V0H80.0421V18H75.3741L69.2353 6.23571L68.3401 4.24286H68.2762L68.3401 7.39286V18H64.7592V0Z" fill="white"/>
<path d="M83.4313 0H87.0122V14.9143H94.0462V18H83.4313V0Z" fill="white"/>
<path d="M92.5115 0H96.6041L100.249 6.17143L100.824 7.39286H100.952L101.528 6.17143L105.173 0H108.946L102.551 10.4786V17.6786H98.97V10.4143L92.5115 0Z" fill="white"/>
<path d="M108.562 9.00017C108.562 5.97874 109.393 3.72874 111.184 2.31445C112.846 0.771596 114.893 0.0644531 117.195 0.0644531C119.497 0.0644531 121.479 0.771596 123.205 2.31445C124.868 3.85731 125.763 6.04302 125.763 9.06445C125.763 12.0859 124.932 14.3359 123.205 15.7502C121.543 17.293 119.497 18.0002 117.195 18.0002C114.893 18.0002 112.91 17.293 111.184 15.7502C109.457 14.2073 108.562 11.9573 108.562 9.00017ZM112.271 9.00017C112.271 11.0573 112.654 12.5359 113.422 13.5002C114.189 14.4645 115.02 15.1073 115.98 15.3002C116.235 15.3645 116.363 15.4287 116.619 15.4287C116.811 15.4287 117.003 15.493 117.195 15.493C117.45 15.493 117.578 15.493 117.834 15.4287C118.09 15.4287 118.218 15.3645 118.473 15.3002C119.369 15.043 120.2 14.4645 120.967 13.5002C121.671 12.5359 122.118 10.993 122.118 9.06445C122.118 7.00731 121.735 5.59302 120.967 4.62874C120.2 3.66445 119.369 3.0216 118.473 2.82874C118.218 2.76445 118.026 2.70017 117.834 2.70017C117.578 2.70017 117.45 2.63588 117.195 2.63588C116.939 2.63588 116.811 2.63588 116.619 2.70017C116.427 2.70017 116.235 2.76445 115.98 2.82874C115.084 3.08588 114.253 3.66445 113.422 4.62874C112.718 5.40017 112.271 6.94302 112.271 9.00017Z" fill="white"/>
<path d="M128.321 0H138.169V2.95714H131.902V7.26428H137.913V10.2857H131.902V17.6786H128.321V0Z" fill="white"/>
<path d="M140.727 0H150.574V2.95714H144.308V7.26428H150.318V10.2857H144.308V17.6786H140.727V0Z" fill="white"/>
<path d="M153.196 17.6143V0H156.841V17.6143H153.196Z" fill="white"/>
<path d="M173.275 0.45V3.53571C172.635 3.27857 171.996 3.15 171.356 3.02143C170.653 2.89286 169.886 2.82857 169.054 2.82857C167.2 2.82857 165.729 3.40714 164.706 4.56429C163.683 5.72143 163.171 7.2 163.171 8.93571C163.171 10.6071 163.619 12.0857 164.578 13.1786C165.537 14.3357 166.944 14.9143 168.671 14.9143C169.31 14.9143 169.95 14.85 170.653 14.7857C171.42 14.6571 172.124 14.5286 172.955 14.1429L173.211 17.1643C173.083 17.2286 172.955 17.2929 172.763 17.3571C172.507 17.4214 172.316 17.4857 171.996 17.55C171.548 17.6786 170.973 17.7429 170.269 17.8071C169.566 17.8714 168.927 17.9357 168.159 17.9357C168.031 17.9357 167.903 17.9357 167.903 17.9357C167.775 17.9357 167.648 17.9357 167.648 17.9357C165.601 17.8071 163.683 17.0357 162.02 15.6857C160.294 14.2714 159.463 12.0214 159.463 9.12857C159.463 6.23571 160.294 3.98571 161.956 2.37857C163.619 0.771428 165.921 0 168.671 0C169.438 0 170.078 2.44273e-07 170.653 0.064286C171.293 0.128572 171.868 0.257143 172.507 0.321429C172.635 0.385714 172.763 0.385714 172.891 0.45C172.955 0.385714 173.083 0.45 173.275 0.45Z" fill="white"/>
<path d="M175.769 0H186V2.76429H179.286V7.2H185.361V9.9H179.286V14.85H186V17.6143H175.769V0Z" fill="white"/>
<path d="M51.5054 29.6606C51.5054 30.1261 51.389 30.5236 51.1562 30.853C50.9271 31.1789 50.6048 31.4277 50.1895 31.5996C49.7741 31.7715 49.2853 31.8574 48.7231 31.8574C48.4259 31.8574 48.1449 31.8431 47.8799 31.8145C47.6149 31.7858 47.3714 31.7446 47.1494 31.6909C46.9274 31.6372 46.7323 31.571 46.564 31.4922V30.6167C46.8325 30.7277 47.1602 30.8315 47.5469 30.9282C47.9336 31.0213 48.3382 31.0679 48.7607 31.0679C49.1546 31.0679 49.4876 31.016 49.7598 30.9121C50.0319 30.8047 50.2378 30.6525 50.3774 30.4556C50.5207 30.255 50.5923 30.0151 50.5923 29.7358C50.5923 29.4673 50.5332 29.2435 50.415 29.0645C50.2969 28.8818 50.0999 28.7171 49.8242 28.5703C49.5521 28.4199 49.1797 28.2606 48.707 28.0923C48.374 27.9741 48.0804 27.8452 47.8262 27.7056C47.5719 27.5623 47.3589 27.4012 47.187 27.2222C47.0151 27.0431 46.8844 26.8354 46.7949 26.5991C46.709 26.3628 46.666 26.0924 46.666 25.7881C46.666 25.3691 46.7716 25.0111 46.9829 24.7139C47.1978 24.4131 47.4932 24.1839 47.8691 24.0264C48.2487 23.8652 48.6838 23.7847 49.1743 23.7847C49.5933 23.7847 49.98 23.8241 50.3345 23.9028C50.6925 23.9816 51.0202 24.0872 51.3174 24.2197L51.0327 25.0039C50.7498 24.8857 50.4491 24.7873 50.1304 24.7085C49.8153 24.6297 49.4894 24.5903 49.1528 24.5903C48.8162 24.5903 48.5316 24.6405 48.2988 24.7407C48.0697 24.8374 47.8942 24.9753 47.7725 25.1543C47.6507 25.3333 47.5898 25.5464 47.5898 25.7935C47.5898 26.0692 47.6471 26.2983 47.7617 26.481C47.8799 26.6636 48.0661 26.8265 48.3203 26.9697C48.5781 27.1094 48.9183 27.2562 49.3408 27.4102C49.8027 27.5785 50.1948 27.7575 50.5171 27.9473C50.8394 28.1335 51.0846 28.3626 51.2529 28.6348C51.4212 28.9033 51.5054 29.2453 51.5054 29.6606ZM57.8379 25.8633V31.75H57.1074L56.9785 30.9229H56.9302C56.8084 31.127 56.6509 31.2988 56.4575 31.4385C56.2642 31.5781 56.0457 31.682 55.8022 31.75C55.5623 31.8216 55.3063 31.8574 55.0342 31.8574C54.5687 31.8574 54.1784 31.7822 53.8633 31.6318C53.5482 31.4814 53.3101 31.2487 53.1489 30.9336C52.9914 30.6185 52.9126 30.2139 52.9126 29.7197V25.8633H53.8149V29.6553C53.8149 30.1458 53.9259 30.5129 54.1479 30.7563C54.37 30.9963 54.7083 31.1162 55.1631 31.1162C55.5999 31.1162 55.9473 31.0339 56.2051 30.8691C56.4665 30.7044 56.6545 30.4627 56.769 30.144C56.8836 29.8218 56.9409 29.4279 56.9409 28.9624V25.8633H57.8379ZM66.1147 25.7559C66.7629 25.7559 67.2516 25.9259 67.5811 26.2661C67.9105 26.6027 68.0752 27.1452 68.0752 27.8936V31.75H67.1943V27.9365C67.1943 27.4603 67.0905 27.104 66.8828 26.8677C66.6787 26.6278 66.3743 26.5078 65.9697 26.5078C65.4004 26.5078 64.9868 26.6725 64.729 27.002C64.4712 27.3314 64.3423 27.8166 64.3423 28.4575V31.75H63.4561V27.9365C63.4561 27.6178 63.4095 27.3529 63.3164 27.1416C63.2269 26.9303 63.0908 26.7728 62.9082 26.6689C62.7292 26.5615 62.5018 26.5078 62.2261 26.5078C61.8358 26.5078 61.5225 26.5884 61.2861 26.7495C61.0498 26.9106 60.8779 27.1506 60.7705 27.4692C60.6667 27.7843 60.6147 28.1729 60.6147 28.6348V31.75H59.7231V25.8633H60.4429L60.5771 26.6958H60.6255C60.7437 26.4917 60.8923 26.3198 61.0713 26.1802C61.2503 26.0405 61.4508 25.9349 61.6729 25.8633C61.8949 25.7917 62.1312 25.7559 62.3818 25.7559C62.8294 25.7559 63.2036 25.84 63.5044 26.0083C63.8088 26.173 64.029 26.4255 64.165 26.7656H64.2134C64.4067 26.4255 64.6717 26.173 65.0083 26.0083C65.3449 25.84 65.7137 25.7559 66.1147 25.7559ZM76.2983 25.7559C76.9465 25.7559 77.4352 25.9259 77.7646 26.2661C78.0941 26.6027 78.2588 27.1452 78.2588 27.8936V31.75H77.3779V27.9365C77.3779 27.4603 77.2741 27.104 77.0664 26.8677C76.8623 26.6278 76.5579 26.5078 76.1533 26.5078C75.584 26.5078 75.1704 26.6725 74.9126 27.002C74.6548 27.3314 74.5259 27.8166 74.5259 28.4575V31.75H73.6396V27.9365C73.6396 27.6178 73.5931 27.3529 73.5 27.1416C73.4105 26.9303 73.2744 26.7728 73.0918 26.6689C72.9128 26.5615 72.6854 26.5078 72.4097 26.5078C72.0194 26.5078 71.7061 26.5884 71.4697 26.7495C71.2334 26.9106 71.0615 27.1506 70.9541 27.4692C70.8503 27.7843 70.7983 28.1729 70.7983 28.6348V31.75H69.9067V25.8633H70.6265L70.7607 26.6958H70.8091C70.9272 26.4917 71.0758 26.3198 71.2549 26.1802C71.4339 26.0405 71.6344 25.9349 71.8564 25.8633C72.0785 25.7917 72.3148 25.7559 72.5654 25.7559C73.013 25.7559 73.3872 25.84 73.688 26.0083C73.9924 26.173 74.2126 26.4255 74.3486 26.7656H74.397C74.5903 26.4255 74.8553 26.173 75.1919 26.0083C75.5285 25.84 75.8973 25.7559 76.2983 25.7559ZM80.9819 25.8633V31.75H80.0903V25.8633H80.9819ZM80.5469 23.6611C80.6937 23.6611 80.819 23.7095 80.9229 23.8062C81.0303 23.8993 81.084 24.0461 81.084 24.2466C81.084 24.4435 81.0303 24.5903 80.9229 24.687C80.819 24.7837 80.6937 24.832 80.5469 24.832C80.3929 24.832 80.264 24.7837 80.1602 24.687C80.0599 24.5903 80.0098 24.4435 80.0098 24.2466C80.0098 24.0461 80.0599 23.8993 80.1602 23.8062C80.264 23.7095 80.3929 23.6611 80.5469 23.6611ZM84.7739 31.127C84.9207 31.127 85.0711 31.1144 85.2251 31.0894C85.3791 31.0643 85.5044 31.0339 85.6011 30.998V31.6909C85.4972 31.7375 85.3522 31.7769 85.166 31.8091C84.9834 31.8413 84.8044 31.8574 84.6289 31.8574C84.3174 31.8574 84.0345 31.8037 83.7803 31.6963C83.526 31.5853 83.3219 31.3991 83.168 31.1377C83.0176 30.8763 82.9424 30.5146 82.9424 30.0527V26.5615H82.1045V26.1265L82.9478 25.7773L83.3022 24.499H83.8394V25.8633H85.5635V26.5615H83.8394V30.0259C83.8394 30.3947 83.9235 30.6704 84.0918 30.853C84.2637 31.0356 84.491 31.127 84.7739 31.127ZM94.3989 31.75H89.2534V31.0034L91.3535 28.8711C91.7438 28.4772 92.0715 28.1263 92.3364 27.8184C92.605 27.5104 92.8091 27.2078 92.9487 26.9106C93.0884 26.6099 93.1582 26.2804 93.1582 25.9224C93.1582 25.4784 93.0257 25.14 92.7607 24.9072C92.4993 24.6709 92.1538 24.5527 91.7241 24.5527C91.3481 24.5527 91.0151 24.6172 90.7251 24.7461C90.4351 24.875 90.1379 25.0576 89.8335 25.2939L89.3555 24.6924C89.5632 24.5169 89.7887 24.3612 90.0322 24.2251C90.2793 24.089 90.5425 23.9816 90.8218 23.9028C91.1047 23.8241 91.4054 23.7847 91.7241 23.7847C92.2075 23.7847 92.6247 23.8688 92.9756 24.0371C93.3265 24.2054 93.5968 24.4453 93.7866 24.7568C93.98 25.0684 94.0767 25.439 94.0767 25.8687C94.0767 26.284 93.9943 26.6707 93.8296 27.0288C93.6649 27.3833 93.4339 27.736 93.1367 28.0869C92.8395 28.4342 92.4922 28.8031 92.0947 29.1934L90.3867 30.896V30.9336H94.3989V31.75ZM100.737 27.813C100.737 28.4504 100.688 29.0197 100.592 29.521C100.495 30.0223 100.343 30.4466 100.135 30.7939C99.9276 31.1413 99.659 31.4062 99.3296 31.5889C99.0002 31.7679 98.6045 31.8574 98.1426 31.8574C97.5589 31.8574 97.0755 31.6981 96.6924 31.3794C96.3128 31.0607 96.0282 30.6006 95.8384 29.999C95.6522 29.3939 95.5591 28.6652 95.5591 27.813C95.5591 26.9751 95.6432 26.2554 95.8115 25.6538C95.9834 25.0487 96.2591 24.585 96.6387 24.2627C97.0182 23.9368 97.5195 23.7739 98.1426 23.7739C98.7334 23.7739 99.2204 23.9351 99.6035 24.2573C99.9867 24.576 100.271 25.0379 100.458 25.6431C100.644 26.2446 100.737 26.9679 100.737 27.813ZM96.4561 27.813C96.4561 28.5435 96.5116 29.1522 96.6226 29.6392C96.7336 30.1261 96.9126 30.4914 97.1597 30.7349C97.4103 30.9748 97.738 31.0947 98.1426 31.0947C98.5472 31.0947 98.873 30.9748 99.1201 30.7349C99.3708 30.495 99.5516 30.1315 99.6626 29.6445C99.7772 29.1576 99.8345 28.547 99.8345 27.813C99.8345 27.0933 99.779 26.4917 99.668 26.0083C99.557 25.5213 99.3779 25.1561 99.1309 24.9126C98.8838 24.6655 98.5544 24.542 98.1426 24.542C97.7308 24.542 97.4014 24.6655 97.1543 24.9126C96.9072 25.1561 96.7282 25.5213 96.6172 26.0083C96.5098 26.4917 96.4561 27.0933 96.4561 27.813ZM106.989 31.75H101.843V31.0034L103.943 28.8711C104.334 28.4772 104.661 28.1263 104.926 27.8184C105.195 27.5104 105.399 27.2078 105.539 26.9106C105.678 26.6099 105.748 26.2804 105.748 25.9224C105.748 25.4784 105.616 25.14 105.351 24.9072C105.089 24.6709 104.744 24.5527 104.314 24.5527C103.938 24.5527 103.605 24.6172 103.315 24.7461C103.025 24.875 102.728 25.0576 102.423 25.2939L101.945 24.6924C102.153 24.5169 102.379 24.3612 102.622 24.2251C102.869 24.089 103.132 23.9816 103.412 23.9028C103.694 23.8241 103.995 23.7847 104.314 23.7847C104.797 23.7847 105.215 23.8688 105.565 24.0371C105.916 24.2054 106.187 24.4453 106.376 24.7568C106.57 25.0684 106.667 25.439 106.667 25.8687C106.667 26.284 106.584 26.6707 106.419 27.0288C106.255 27.3833 106.024 27.736 105.727 28.0869C105.429 28.4342 105.082 28.8031 104.685 29.1934L102.977 30.896V30.9336H106.989V31.75ZM113.676 29.9292H112.5V31.75H111.629V29.9292H107.832V29.1772L111.57 23.8545H112.5V29.1235H113.676V29.9292ZM111.629 29.1235V26.5562C111.629 26.3592 111.631 26.182 111.635 26.0244C111.638 25.8633 111.644 25.7147 111.651 25.5786C111.658 25.439 111.663 25.3065 111.667 25.1812C111.674 25.0558 111.68 24.9323 111.683 24.8105H111.64C111.572 24.9538 111.493 25.106 111.404 25.2671C111.318 25.4246 111.23 25.5661 111.141 25.6914L108.718 29.1235H111.629Z" fill="white"/>
</svg>
