<svg width="160" height="160" viewBox="0 0 160 160" fill="none" xmlns="http://www.w3.org/2000/svg">
<g clip-path="url(#clip0_808_292)">
<path d="M68.4796 39.339C72.8712 35.8071 79.1289 35.8071 83.5205 39.339L137.456 82.716C143.402 87.4978 143.434 96.5415 137.522 101.365L83.5862 145.371C79.1704 148.973 72.8297 148.973 68.414 145.371L14.4783 101.365C8.56636 96.5415 8.59817 87.4978 14.5439 82.716L68.4796 39.339Z" fill="#07569D"/>
<path d="M104 129C106.628 125.715 107.818 116.323 107.818 116.323C110.071 118.012 110.904 119.154 112.5 121.5C118.5 117 122.5 113.5 126.5 110.5C120.869 102.147 115.233 93.7043 109.32 89.1993C107.161 87.4161 100.122 85.8206 100.122 85.8206C98.5266 84.4128 95.054 85.8206 95.054 85.8206C76.1894 90.6071 59.0141 84.4128 59.0141 84.4128C59.0141 84.4128 56.5739 83.2865 54.603 84.4128C52.6321 84.2251 50.6611 84.2251 48.784 84.4128C44.4668 84.9759 39.7741 89.9502 37.8031 92.2027L21.191 111.255C21.191 111.255 20.6279 118.763 21.848 119.796C31.2334 127.773 44.936 109.566 44.936 109.566C45.0299 109.566 45.5855 124.741 53 133C53 133 69.5 146.5 70.5 147C71.5 147.5 77.5 150 83.5 145.5C91.5 139.5 104 129 104 129Z" fill="#5FC1E8"/>
<path d="M103.595 129.087C106.223 125.802 107.818 116.323 107.818 116.323C110.071 118.012 111.404 119.154 113 121.5" stroke="#444444" stroke-linecap="round" stroke-linejoin="round"/>
<path d="M126.5 110.5C120.869 102.147 115.326 93.7043 109.414 89.1993C107.161 87.4161 100.122 85.8206 100.122 85.8206C98.5266 84.4128 95.054 85.8206 95.054 85.8206C76.1894 90.6071 59.0141 84.4128 59.0141 84.4128C59.0141 84.4128 56.5739 83.2865 54.603 84.4128C52.6321 84.2251 50.6611 84.2251 48.784 84.4128C44.4668 84.9759 39.7741 89.9502 37.8031 92.2027L21.191 111.255C21.191 111.255 20.6279 118.763 21.848 119.796C31.2334 127.773 44.936 109.566 44.936 109.566C45.0299 109.566 44.5855 123.741 52 132" stroke="#444444" stroke-linecap="round" stroke-linejoin="round"/>
<path d="M95.7119 81.2218L95.4294 81.316C95.6177 81.316 95.6177 81.2218 95.7119 81.2218Z" fill="#444444"/>
<path d="M101.905 65.9236C100.685 65.3605 99.7467 63.8588 99.1836 62.7326C97.9635 60.1986 98.5266 55.5059 99.2774 52.0333C100.779 49.4992 103.032 46.0266 103.313 41.8971C103.876 34.858 100.498 31.2916 96.6495 32.324C96.6495 32.324 96.368 26.3173 91.0183 24.2525C85.6686 22.0939 84.8239 23.8771 79.5681 22.5632C74.4062 21.2492 69.338 22.3755 67.461 25.7542C65.5839 29.1329 64.9269 35.2334 61.8297 37.5798C58.7326 39.9261 53.1013 45.6512 54.8846 52.0333C56.6678 58.4153 55.6354 60.574 53.289 63.5773C50.0042 67.8946 53.8522 72.775 57.8879 74.652C60.1404 75.7783 61.7359 74.5582 64.1761 74.4643C66.5224 74.3705 69.2442 74.5582 70.9336 76.4353C73.1861 78.8755 81.3513 79.5324 83.2284 77.6554C85.1055 75.7783 96.8372 81.8788 98.6204 79.2509C99.1836 78.5 99.3713 77.5615 99.4651 76.623C99.559 75.7783 98.9959 74.3705 99.2774 73.7135C99.7467 72.3995 102.468 72.4934 103.782 71.5549C105.19 70.5225 106.223 68.927 106.598 67.1437C105.941 67.5191 103.595 68.7392 102.938 67.9884C102.281 67.2376 103.501 66.6745 103.876 66.0175C103.125 66.299 102.468 66.2052 101.905 65.9236Z" fill="#444444"/>
<path d="M96.931 86.3838C96.931 86.3838 82.2899 92.8597 77.5972 93.1412C72.9045 93.4228 56.8555 84.8821 56.8555 84.8821L69.0565 81.5034C70.7458 78.3123 70.7458 74.652 70.3704 70.2409C70.2766 68.927 70.0889 67.613 69.9011 66.4868C69.5257 63.765 69.0565 61.7941 69.0565 61.7941L86.3256 62.5449C85.9502 63.6711 85.6686 64.7974 85.4809 65.9236C85.0116 68.27 84.7301 70.6163 84.6362 73.0565C84.4485 79.0632 85.387 82.4419 85.387 82.4419L96.931 86.3838Z" fill="white" stroke="#444444" stroke-linecap="round" stroke-linejoin="round"/>
<path d="M61.2666 87.2284C61.2666 87.2284 70.4643 88.8239 72.8106 88.5423C75.0631 88.2608 76.9402 90.5133 76.9402 90.5133" fill="white"/>
<path d="M61.2666 87.2284C61.2666 87.2284 70.4643 88.8239 72.8106 88.5423C75.0631 88.2608 76.9402 90.5133 76.9402 90.5133" stroke="#444444" stroke-linecap="round" stroke-linejoin="round"/>
<path d="M93.74 87.7915C93.74 87.7915 84.3546 88.8239 82.0083 88.9178C79.6619 89.0116 79.0988 90.5133 79.0988 90.5133" fill="white"/>
<path d="M93.74 87.7915C93.74 87.7915 84.3546 88.8239 82.0083 88.9178C79.6619 89.0116 79.0988 90.5133 79.0988 90.5133" stroke="#444444" stroke-linecap="round" stroke-linejoin="round"/>
<path d="M85.387 65.9236C84.9178 68.2699 84.6362 70.6163 84.5424 73.0565C83.1346 74.2766 81.4452 75.309 79.662 75.8721C76.7525 76.8106 72.9045 73.2442 70.2766 70.3347C70.1827 69.0208 69.995 67.7068 69.8073 66.5806L85.387 65.9236Z" fill="#444444"/>
<path d="M65.0208 47.3405C65.0208 47.3405 63.613 45.1819 62.299 45.5573C60.9851 46.0265 60.9851 51.9393 61.1728 53.441C61.2666 55.0365 64.3638 58.4152 65.6778 57.4767" fill="white"/>
<path d="M65.0208 47.3405C65.0208 47.3405 63.613 45.1819 62.299 45.5573C60.9851 46.0265 60.9851 51.9393 61.1728 53.441C61.2666 55.0365 64.3638 58.4152 65.6778 57.4767" stroke="#444444" stroke-linecap="round" stroke-linejoin="round"/>
<path d="M96.2741 51.9394C96.2741 51.9394 98.245 50.25 99.3713 51.0008C100.497 51.7517 98.7143 57.4767 98.245 58.8846C97.6819 60.2924 93.74 62.7326 92.8015 61.4186" fill="white"/>
<path d="M96.2741 51.9394C96.2741 51.9394 98.245 50.25 99.3713 51.0008C100.497 51.7517 98.7143 57.4767 98.245 58.8846C97.6819 60.2924 93.74 62.7326 92.8015 61.4186" stroke="#444444" stroke-linecap="round" stroke-linejoin="round"/>
<path d="M76.9402 74.652C71.6844 73.9012 66.5225 64.9851 65.8655 62.451C65.2085 59.6354 63.613 45.9328 66.6163 38.4245C69.995 29.9776 77.0341 26.4112 83.8854 27.4436C90.7367 28.476 96.4618 33.9195 97.2127 42.9294C97.8696 51.0009 92.52 63.6711 91.0183 66.1113C89.7044 68.3638 82.4776 75.4029 76.9402 74.652Z" fill="white" stroke="#444444" stroke-linecap="round" stroke-linejoin="round"/>
<path d="M88.7658 52.6902C88.6719 53.6287 88.1088 54.3796 87.5457 54.2857C86.9826 54.1919 86.701 53.3472 86.7949 52.4086C86.8887 51.4701 87.4518 50.7193 88.0149 50.8131C88.5781 50.907 88.9535 51.6578 88.7658 52.6902Z" fill="#444444"/>
<path d="M71.6844 50.1562C71.5906 51.0947 71.8721 51.9394 72.4352 52.0332C72.9984 52.1271 73.5615 51.3763 73.6553 50.4377C73.7492 49.4992 73.4676 48.6545 72.9045 48.5607C72.4352 48.4668 71.8721 49.1238 71.6844 50.1562Z" fill="#444444"/>
<path d="M78.9111 52.2209C79.005 55.5997 76.1894 56.1628 76.7525 57.2891C77.1279 58.0399 77.7849 58.603 78.6296 58.7907" fill="white"/>
<path d="M78.9111 52.2209C79.005 55.5997 76.1894 56.1628 76.7525 57.2891C77.1279 58.0399 77.7849 58.603 78.6296 58.7907" stroke="#444444" stroke-linecap="round" stroke-linejoin="round"/>
<path d="M73.843 61.7941C73.843 61.7941 73.843 66.7683 77.3156 67.613C80.7882 68.4577 83.51 63.2019 83.51 63.2019" stroke="#444444" stroke-linecap="round" stroke-linejoin="round"/>
<path d="M68.681 45.745C68.681 45.745 71.7782 41.8032 76.6586 43.0233" stroke="#444444" stroke-linecap="round" stroke-linejoin="round"/>
<path d="M92.6138 49.2176C92.6138 49.2176 90.7367 44.5249 85.7625 44.3372" stroke="#444444" stroke-linecap="round" stroke-linejoin="round"/>
<path d="M89.0474 34.7641C89.0474 34.7641 85.7625 39.0814 78.6296 40.3015C69.7135 41.897 64.7392 49.593 64.9269 52.7841C63.1437 48.2791 62.6744 43.3987 63.4253 38.5183C65.1146 26.6927 76.1894 23.314 84.167 24.1587C92.1445 25.0033 96.0864 33.0748 96.0864 33.0748C96.0864 33.0748 102.093 37.7675 101.248 43.6803C100.404 49.3115 98.9959 49.4992 98.3389 50.8131C97.3065 52.5964 98.6204 53.3472 95.1479 56.2567C95.1479 56.2567 96.5557 48.3729 94.7724 42.4602C92.9892 36.5474 89.0474 34.7641 89.0474 34.7641Z" fill="#444444"/>
<path d="M91.206 32.6993C91.206 32.6993 88.015 44.7126 70.1827 46.5897C70.1827 46.5897 82.2899 44.4311 87.8273 33.3563L91.206 32.6993Z" fill="#444444"/>
<path d="M73.0922 61.5125C73.0922 61.5125 78.7234 64.1404 84.1669 63.108" stroke="#444444" stroke-linecap="round" stroke-linejoin="round"/>
<path d="M21.848 119.796C17.0614 117.168 18 107.501 21.191 95.4876C22.6927 89.5748 28.1362 74.7459 27.9485 74.1828C27.6669 73.1504 27.2915 72.2118 26.7284 71.2733C26.7284 71.2733 28.3239 69.6778 28.9809 69.3962C31.7965 68.1761 37.3339 66.6745 39.8679 67.7069C40.6187 67.9884 41.8389 69.8655 41.6511 70.6163C41.4634 71.3672 39.2109 73.9012 39.3986 76.2476C39.5864 78.5939 37.5216 86.4776 37.6154 89.6686C37.6154 90.3256 37.6154 91.0765 37.7093 92.015C37.7093 92.5781 37.7093 102.433 33.9551 107.407" fill="#5FC1E8"/>
<path d="M21.848 119.796C17.0614 117.168 18 107.501 21.191 95.4876C22.6927 89.5748 28.1362 74.7459 27.9485 74.1828C27.6669 73.1504 27.2915 72.2118 26.7284 71.2733C26.7284 71.2733 28.3239 69.6778 28.9809 69.3962C31.7965 68.1761 37.3339 66.6745 39.8679 67.7069C40.6187 67.9884 41.8388 69.8655 41.6511 70.6163C41.4634 71.3672 39.2109 73.9012 39.3986 76.2476C39.5864 78.5939 37.5216 86.4776 37.6154 89.6686C37.6154 90.3256 37.6154 91.0765 37.7093 92.015C37.7093 92.5781 37.7093 102.433 33.9551 107.407" stroke="#444444" stroke-linecap="round" stroke-linejoin="round"/>
<path d="M39.4926 49.8746C39.5864 50.8131 39.868 52.6902 40.2434 59.9169C41.5573 59.4477 42.7774 58.7907 43.9037 57.946C45.2176 56.8197 47.9394 57.7583 47.7517 58.5091C47.6578 59.26 45.1238 59.1661 43.059 61.9817C40.9942 64.7973 40.5249 67.8945 37.7093 69.49C34.8937 71.0855 30.5764 71.5548 28.8871 69.49C28.6055 69.2085 28.5117 68.833 28.3239 68.4576C27.1038 65.8297 26.5407 62.7325 26.1653 59.8231C25.9776 58.4153 26.0715 58.5091 25.9776 57.1952C25.8837 55.0365 25.0391 52.6902 24.1005 50.7193C23.2558 48.936 22.1296 47.3405 21.2849 45.5573C22.3173 45.2757 23.4435 45.5573 24.1944 46.2143C24.9452 46.8712 25.6022 47.7159 26.1653 48.6545C26.7284 49.4992 27.5731 52.1271 28.1362 52.8779C28.9809 51.6578 28.3239 47.1528 27.9485 45.6511C26.8223 40.9585 28.2301 40.0199 28.6994 40.3015C29.0748 40.583 29.9195 42.1786 29.9195 42.1786C29.8256 41.1462 30.201 39.1752 30.4826 38.8937C31.2334 38.2367 31.8904 39.8322 32.3597 40.583C32.8289 41.4277 34.7999 48.8422 35.0814 50.1561C35.7384 48.936 35.6445 45.2757 35.6445 44.2433C35.6445 42.8355 35.363 41.1462 35.5507 40.3015C36.3015 37.392 38.1786 38.3305 39.4926 49.8746Z" fill="white" stroke="#444444" stroke-linecap="round" stroke-linejoin="round"/>
<path d="M40.3372 59.917C40.3372 59.917 37.9909 60.4801 36.9585 63.3896" stroke="#444444" stroke-linecap="round" stroke-linejoin="round"/>
<path d="M27.9485 74.1827C27.9485 74.1827 31.7026 77.2799 35.8322 74.7459" stroke="#444444" stroke-linecap="round" stroke-linejoin="round"/>
<path d="M44.936 109.566C44.936 109.566 47.8455 105.718 47.8455 101.119" stroke="#444444" stroke-linecap="round" stroke-linejoin="round"/>
<path d="M107.818 116.323C107.818 116.323 107.161 108.627 112.605 102.996" stroke="#444444" stroke-linecap="round" stroke-linejoin="round"/>
<path d="M62.2051 125.333C62.2051 125.333 80.4576 135.188 90.5 135" stroke="#444444" stroke-linecap="round" stroke-linejoin="round"/>
<path d="M29.3563 40.9585C31.1395 45.2758 31.4211 46.402 32.3596 51.3763" stroke="#444444" stroke-linecap="round" stroke-linejoin="round"/>
<rect x="125" y="130" width="4" height="12" fill="#FF6F3D"/>
<rect x="121" y="138" width="4" height="12" transform="rotate(-90 121 138)" fill="#FF6F3D"/>
<path d="M122.613 16.8561C125.175 14.7958 128.825 14.7958 131.387 16.8561L137.266 21.5843C140.734 24.3737 140.753 29.6492 137.304 32.4629L131.425 37.2596C128.849 39.3613 125.151 39.3613 122.575 37.2596L116.696 32.4629C113.247 29.6492 113.266 24.3737 116.734 21.5843L122.613 16.8561Z" fill="#95C03D"/>
<path d="M20.8905 23.1221C21.5854 23.5011 21.5854 24.4989 20.8905 24.8779L12.9789 29.1934C12.3125 29.5568 11.5 29.0745 11.5 28.3155L11.5 19.6845C11.5 18.9255 12.3125 18.4432 12.9789 18.8066L20.8905 23.1221Z" fill="#5FC1E8"/>
<path d="M143.429 62.8575C142.782 62.4691 142.782 61.5309 143.429 61.1425L150.486 56.9087C151.152 56.5088 152 56.9889 152 57.7662L152 66.2338C152 67.0111 151.152 67.4912 150.486 67.0913L143.429 62.8575Z" fill="white"/>
</g>
<defs>
<clipPath id="clip0_808_292">
<rect width="160" height="160" fill="white"/>
</clipPath>
</defs>
</svg>
