<svg width="160" height="160" viewBox="0 0 160 160" fill="none" xmlns="http://www.w3.org/2000/svg">
<g clip-path="url(#clip0_958_303)">
<path d="M68.4795 39.339C72.8712 35.8071 79.1288 35.8071 83.5205 39.339L137.456 82.716C143.402 87.4978 143.434 96.5415 137.522 101.365L83.5861 145.371C79.1703 148.973 72.8297 148.973 68.4139 145.371L14.4782 101.365C8.56629 96.5415 8.5981 87.4978 14.5439 82.716L68.4795 39.339Z" fill="#07569D"/>
<path d="M85.8357 102.108C92.1857 102.108 97.3335 99.8971 97.3335 97.1696C97.3335 94.4421 92.1857 92.231 85.8357 92.231C79.4856 92.231 74.3379 94.4421 74.3379 97.1696C74.3379 99.8971 79.4856 102.108 85.8357 102.108Z" fill="white" stroke="#444444" stroke-miterlimit="10"/>
<path d="M85.7586 99.5621C89.9351 99.5621 93.3209 98.4911 93.3209 97.17C93.3209 95.8488 89.9351 94.7778 85.7586 94.7778C81.582 94.7778 78.1963 95.8488 78.1963 97.17C78.1963 98.4911 81.582 99.5621 85.7586 99.5621Z" fill="white" stroke="#444444" stroke-miterlimit="10"/>
<path d="M116.162 39.8351C116.162 39.8351 114.233 34.7421 108.677 35.2823C103.121 35.8225 100.729 40.2981 101.732 43.1533C102.118 44.4651 102.658 45.7769 103.275 47.0116C103.275 47.0116 101.501 46.1628 102.041 49.0951C102.581 52.0274 106.748 51.4101 107.442 51.1786C108.06 50.9471 111.069 43.1533 116.162 39.8351Z" fill="#444444"/>
<path d="M104.973 98.1728L100.883 95.472C100.883 95.472 97.7965 91.9995 96.639 91.3822C95.4816 90.7648 87.6877 92.231 87.6877 92.231L104.742 101.877L104.973 98.1728Z" fill="white" stroke="#444444"/>
<path d="M96.562 93.9286C96.562 93.9286 93.5525 94.0829 91.6234 93.2341C89.6942 92.3852 88.691 92.7711 89.617 94.3916C90.6202 96.0121 93.6297 95.8577 93.6297 95.8577C93.6297 95.8577 96.2533 99.0987 99.4943 97.7869" fill="white"/>
<path d="M96.562 93.9286C96.562 93.9286 93.5525 94.0829 91.6234 93.2341C89.6942 92.3852 88.691 92.7711 89.617 94.3916C90.6202 96.0121 93.6297 95.8577 93.6297 95.8577C93.6297 95.8577 96.2533 99.0987 99.4943 97.7869" stroke="#444444" stroke-linecap="round"/>
<path d="M131.21 44.5424C131.21 44.5424 132.985 37.366 143.788 38.2148C154.591 39.0636 154.437 48.8638 154.437 48.8638L152.122 47.7834C152.122 47.7834 154.051 53.4166 151.813 57.5836C149.575 61.7505 143.942 64.0655 140.238 63.371C136.534 62.6765 132.522 59.204 131.904 57.2749C131.287 55.3457 133.448 48.5551 131.21 44.5424Z" fill="#444444"/>
<path d="M109.834 43.6934C109.834 43.6934 108.985 45.0824 107.365 47.9376C105.744 50.7927 106.362 53.4164 105.281 54.8054C104.201 56.1944 101.114 56.0401 101.577 57.4291C101.963 58.8181 103.815 59.744 103.815 59.744C103.815 59.744 103.815 67.4607 104.664 68.4639C105.513 69.467 111.841 67.7694 111.841 67.7694C111.841 67.7694 113.075 69.6985 112.226 73.9427C111.378 78.1868 103.97 90.0704 102.966 96.0123C101.963 101.954 105.281 116.693 105.281 116.693C109 116.693 115.414 103.743 124.5 102C124.5 102 129.126 95.0863 127.891 85.2861C126.657 75.486 123.493 73.171 123.493 69.6213C123.493 66.0717 128.046 64.0654 130.901 60.67C134.142 56.3487 134.682 50.4841 132.29 45.6226C130.052 40.7611 122.798 38.832 117.782 38.7548C112.767 38.6776 109.834 43.6934 109.834 43.6934Z" fill="white" stroke="#444444"/>
<path d="M127.969 108.5C127.969 108.5 129.203 95.1634 127.969 85.3633C127.737 83.2026 127.274 81.0419 126.657 78.9584C124.65 77.4151 121.487 75.4088 118.323 75.1773C114.619 74.8686 110.915 79.1899 108.986 81.8908C106.516 86.8294 103.584 92.5397 103.044 96.1666C102.041 102.108 106.5 126 106.5 126C113.5 120.5 127.5 109.5 127.969 108.5Z" fill="#9ADAF3" stroke="#444444"/>
<path d="M117.86 38.7549C112.921 38.6006 109.835 43.6936 109.835 43.6936C109.835 43.6936 109.372 44.3881 108.523 45.9314C109.372 44.9282 112.535 41.5329 113.847 45.0825C114.619 47.166 112.767 50.0212 113.693 51.0244C114.696 52.0275 116.625 54.1882 116.317 54.574C116.085 55.037 115.931 55.5 115.931 55.963C115.931 55.963 118.4 52.4134 120.329 54.574C122.258 56.8118 119.635 60.9017 119.635 60.9017L118.014 61.4418C118.014 61.4418 123.416 67.538 124.342 67.538C124.573 67.538 125.345 65.4545 126.58 65.0686C128.123 63.6796 129.666 62.2135 130.978 60.6702C134.219 56.3488 134.759 50.4842 132.367 45.6227C130.052 40.7612 122.798 38.9092 117.86 38.7549Z" fill="#444444"/>
<path d="M108.446 54.4964C108.291 55.1909 107.905 55.7311 107.597 55.6539C107.288 55.5768 107.211 54.9594 107.365 54.2649C107.52 53.5704 107.905 53.0303 108.214 53.1074C108.523 53.1846 108.677 53.8019 108.446 54.4964Z" fill="#444444"/>
<path d="M106 63.4646C106.286 63.7743 107.286 64.1614 107.714 63.9291C108.4 63.5575 108.857 63.1549 109 63" stroke="#444444" stroke-linecap="round"/>
<path d="M114.002 82.6626C114.002 82.6626 111.918 85.5949 111.069 90.9194C110.22 96.3211 110.915 113.838 110.915 113.838C110.915 113.838 99.1856 110.52 95.3273 108.591C93.5525 107.742 91.8548 106.816 90.2343 105.813C90.2343 105.813 88.9996 102.88 87.9965 101.8C86.9933 100.72 84.4468 100.411 83.4437 99.7164C82.4405 99.0219 81.8232 96.784 80.5113 97.6329C79.8168 97.9415 79.5853 98.7904 79.894 99.4849C79.9712 99.7164 80.1255 99.8707 80.357 99.9479C80.8972 100.334 82.9807 102.417 82.9807 102.417L77.7333 100.102C77.7333 100.102 77.3475 102.186 78.042 102.88C78.7365 103.575 80.1255 104.809 80.1255 104.809C80.1255 104.809 82.209 107.742 83.4437 108.359C84.6783 108.899 85.9901 109.362 87.302 109.748C88.5366 110.134 89.7713 111.214 90.8516 111.909L97.8738 116.153C101.501 118.313 105.359 120.165 109.372 121.554C111.918 122.403 118.014 125.104 120.175 122.403C121.101 121.246 120.792 117.773 121.101 116.307C122.644 107.047 124.651 97.71 124.651 88.2957" fill="#9ADAF3"/>
<path d="M114.002 82.6626C114.002 82.6626 111.918 85.5949 111.069 90.9194C110.22 96.3211 110.915 113.838 110.915 113.838C110.915 113.838 99.1856 110.52 95.3273 108.591C93.5525 107.742 91.8548 106.816 90.2343 105.813C90.2343 105.813 88.9996 102.88 87.9965 101.8C86.9933 100.72 84.4468 100.411 83.4437 99.7164C82.4405 99.0219 81.8232 96.784 80.5113 97.6329C79.8168 97.9415 79.5853 98.7904 79.894 99.4849C79.9712 99.7164 80.1255 99.8707 80.357 99.9479C80.8972 100.334 82.9807 102.417 82.9807 102.417L77.7333 100.102C77.7333 100.102 77.3475 102.186 78.042 102.88C78.7365 103.575 80.1255 104.809 80.1255 104.809C80.1255 104.809 82.209 107.742 83.4437 108.359C84.6783 108.899 85.9901 109.362 87.302 109.748C88.5366 110.134 89.7713 111.214 90.8516 111.909L97.8738 116.153C101.501 118.313 105.359 120.165 109.372 121.554C111.918 122.403 118.014 125.104 120.175 122.403C121.101 121.246 120.792 117.773 121.101 116.307C122.644 107.047 124.651 97.71 124.651 88.2957" stroke="#444444" stroke-linecap="round"/>
<path d="M106.748 112.603C102.967 111.446 97.7194 109.748 95.3273 108.59C93.5525 107.742 91.8548 106.816 90.2343 105.812C90.2343 105.812 88.9996 102.88 87.9965 101.8C86.9933 100.719 84.4468 100.411 83.4437 99.7163C82.4405 99.0218 81.8232 96.784 80.5113 97.6328C79.8168 97.9415 79.5853 98.7903 79.894 99.4848C79.9712 99.7163 80.1255 99.8707 80.357 99.9478C80.8972 100.334 82.9807 102.417 82.9807 102.417L77.7333 100.102C77.7333 100.102 77.3475 102.186 78.042 102.88C78.7365 103.575 80.1255 104.809 80.1255 104.809C80.1255 104.809 82.209 107.742 83.4437 108.359C84.6783 108.899 85.9901 109.362 87.302 109.748C88.5366 110.134 89.7713 111.214 90.8516 111.909L97.8738 116.153C100.112 117.542 102.504 118.699 104.896 119.78L106.748 112.603Z" fill="white" stroke="#444444"/>
<path d="M61.6748 87.0444C61.6748 87.0444 63.661 112.226 64.4413 114.496C65.2215 116.766 66.4984 123.221 66.4984 123.221C66.4984 123.221 59.9724 124.852 58.9793 125.065C57.9862 125.278 55.7873 124.427 55.7873 124.427C55.7873 124.427 54.2977 108.821 54.8651 100.309C55.4326 91.797 60.5399 83.4268 60.5399 83.4268L61.6748 87.0444Z" fill="white" stroke="#444444" stroke-miterlimit="10"/>
<path d="M64.654 121.376L65.5001 142.5C63.5001 141 59.5001 137.5 59.5001 137.5L56.0709 124.923L64.654 121.376Z" fill="white" stroke="#444444" stroke-miterlimit="10"/>
<path d="M56.9222 119.107L65.8599 116.908L66.4274 123.15L57.3478 124.994L56.9222 119.107Z" fill="white" stroke="#444444" stroke-miterlimit="10"/>
<path d="M57.4897 108.963C57.3478 109.389 57.9291 134.159 58 136.5L16.5 102.5C16.5 102.5 15 92.0099 15 87.3991C15 82.7884 17.9083 76.3334 20.8875 74.4891C23.8668 72.6448 34.3651 67.2538 34.3651 67.2538L49.0485 66.5444C49.0485 66.5444 58.1281 73.7797 58.9793 74.7728C59.8305 75.7659 63.3063 83.9233 62.1004 89.5981C60.8945 95.2728 57.5606 108.538 57.4897 108.963Z" fill="white" stroke="#444444" stroke-miterlimit="10"/>
<path d="M50.751 73.1411L48.9777 81.2276L55.7874 124.356L53.1628 130.243L47.9137 124.143L46.7078 81.3694L42.168 76.1203L47.2752 68.2466L50.751 73.1411Z" fill="#444444"/>
<path d="M53.0917 71.0132L54.5104 77.0426L49.9706 74.418L53.0917 71.0132Z" fill="white" stroke="#444444" stroke-miterlimit="10"/>
<path d="M47.4879 77.7521L53.0917 71.0133L49.0484 66.5444L47.4879 77.7521Z" fill="white" stroke="#444444" stroke-miterlimit="10"/>
<path d="M51.4602 37.6031C51.4602 37.6031 56.5674 43.9872 56.2128 44.9803C56 45.9024 55.8581 46.8955 55.7872 47.8176C55.7872 47.8176 59.9014 51.0097 59.6886 51.7899C59.4757 52.6412 57.1349 54.3436 57.1349 54.3436C57.1349 54.3436 57.4187 64.9837 56.2128 65.6931C55.0069 66.4024 52.3114 65.6931 52.3114 65.6931L47.4169 77.7519L42.9481 71.4388L35.9256 63.565L36.4221 60.6567L35.8546 57.6775C33.5138 56.1879 31.7404 53.9889 30.8183 51.4353C29.3996 47.2502 30.3927 39.3055 30.6764 38.5962C30.9601 37.8868 39.0467 34.1982 42.0968 32.4249C45.147 30.6515 46.3529 30.7225 46.7785 31.5737C47.2041 32.4249 46.8494 28.8072 48.41 29.3747C49.9705 29.9422 50.8927 31.7865 50.7508 32.4249C50.609 33.0633 53.6591 30.3678 54.0847 31.8574C54.5103 33.347 53.7301 36.6809 51.4602 37.6031Z" fill="white" stroke="#444444" stroke-miterlimit="10"/>
<path d="M42.7353 62.7138C41.2457 61.1533 39.6142 50.5131 38.9049 49.8747C38.1955 49.2363 35.7838 48.6688 34.7198 50.5131C33.6558 52.3574 34.7907 54.982 36.1385 55.9751C36.8478 56.5426 37.6281 57.0391 38.4793 57.4647L35.8547 57.6066C33.5848 56.1169 31.8824 53.9889 30.9602 51.4353C29.5416 47.2502 30.5346 39.3055 30.8184 38.5962C31.1021 37.8868 39.1886 34.1982 42.2388 32.4249C45.289 30.6515 46.4949 30.7225 46.9205 31.5737C47.3461 32.4249 46.9914 28.8072 48.552 29.3747C50.1125 29.9422 51.0347 31.7865 50.8928 32.4249C50.7509 33.0633 53.8011 30.3678 54.2267 31.8574C54.6523 33.347 53.7302 36.6809 51.5312 37.6031C51.5312 37.6031 43.6575 39.3055 43.7284 40.4405C43.7994 41.5754 46.7077 43.2069 46.353 44.2709C45.9983 45.3349 42.026 49.0944 42.026 49.0944L43.8703 56.3297C43.8703 56.3297 44.154 56.8972 45.218 56.1169C46.2821 55.3367 48.9066 51.7899 51.0347 52.1446C53.1627 52.4993 57.2769 54.3436 57.2769 54.3436C57.2769 54.3436 57.5606 64.9837 56.3547 65.6931C55.1489 66.4024 52.4533 65.6931 52.4533 65.6931C52.4533 65.6931 44.225 64.2744 42.7353 62.7138Z" fill="#444444" stroke="#444444" stroke-miterlimit="10"/>
<path d="M52.5952 48.527C52.7371 49.0945 53.0918 49.4492 53.3046 49.4492C53.5174 49.4492 53.5883 48.8817 53.3755 48.3142C53.1627 47.7468 52.879 47.3921 52.6662 47.3921C52.4534 47.3921 52.3824 47.9596 52.5952 48.527Z" fill="#444444"/>
<path d="M54.4394 45.9735C53.6591 44.9804 52.2404 44.8386 51.2474 45.6188C51.1764 45.6898 51.1055 45.7607 50.9636 45.8317" stroke="#444444" stroke-miterlimit="10"/>
<path d="M54.9361 56.1878L51.5312 54.2017C51.5312 54.2017 51.4603 58.103 52.7371 58.8124C54.0139 59.5217 54.9361 56.1878 54.9361 56.1878Z" fill="white" stroke="#444444" stroke-miterlimit="10"/>
<path d="M46.2112 73.7085L47.488 77.7518L43.4448 74.9144L46.2112 73.7085Z" fill="white" stroke="#444444" stroke-miterlimit="10"/>
<path d="M36.0677 62.501L46.2113 73.7086L41.6715 80.5183L32.8047 67.1117L36.0677 62.501Z" fill="white" stroke="#444444" stroke-miterlimit="10"/>
<path d="M73.8044 102.863L65.2214 103.927L62.1712 87.0443L72.8823 85.8384L73.8044 102.863Z" fill="#FF6F3D" stroke="#444444" stroke-linecap="round" stroke-linejoin="round"/>
<path d="M72.8823 86.3348L62.3841 87.5407C62.0294 87.6116 61.7456 87.3279 61.7456 87.0441C61.6747 86.6895 62.0292 85.835 62.3839 85.7641L72.5001 84.4998C72.8548 84.4289 73.3789 85.2708 73.3789 85.6254C73.4498 85.9092 73.237 86.2639 72.8823 86.3348Z" fill="white" stroke="#444444" stroke-linecap="round" stroke-linejoin="round"/>
<path d="M38.3374 110.169L57.8443 108.041C57.8443 108.041 59.1921 103.217 59.0502 99.7413C58.9083 96.2655 60.1851 92.8607 60.7526 92.577C61.3201 92.2932 67.9879 89.1721 68.8391 89.6687C69.6903 90.1652 71.2509 90.8745 70.8253 91.9386C70.3997 93.0026 67.7751 92.1514 67.7751 92.1514C67.7751 92.1514 64.5121 94.1375 64.1575 94.3503C63.8028 94.5631 67.8461 93.4282 68.6263 93.7119C69.4066 93.9956 74.0883 94.2794 74.5848 95.4143C75.0814 96.5493 74.3011 96.833 74.3011 96.833C74.3011 96.833 75.1523 98.4645 73.9464 99.032C72.7405 99.5995 69.9032 99.3157 69.4775 99.3157C69.0519 99.3157 66.0727 101.798 65.6471 102.011C65.2215 102.224 69.2647 100.663 69.9741 100.805C70.6834 100.947 73.308 101.586 73.3789 102.082C73.4499 102.579 71.6056 103.217 70.9672 103.288C70.3288 103.359 68.2007 103.926 68.2007 103.926L65.6471 106.764C65.6471 106.764 64.7249 110.523 63.59 111.587C62.8097 112.297 61.9585 112.935 61.0364 113.574C60.7526 113.786 46.282 117.688 45.3599 117.971C44.4377 118.255 36.6349 121.163 36.6349 121.163L38.3374 110.169Z" fill="white" stroke="#444444" stroke-miterlimit="10"/>
<path d="M63.4481 98.3228C63.4481 98.3228 67.0657 95.982 68.1297 96.1239C69.1937 96.2657 74.301 96.8332 74.301 96.8332" stroke="#444444" stroke-miterlimit="10"/>
<path d="M64.0865 94.3506L62.3841 94.8471" stroke="#444444" stroke-miterlimit="10"/>
<path d="M36.2805 88.1084C37.1317 90.0236 37.3445 92.1516 36.9898 94.2087C36.2805 97.4007 34.9327 109.531 34.9327 109.531L29.7545 121.873C29.7545 121.873 19.1853 120.951 18.0504 120.313C16.9154 119.674 17.341 116.624 17.6247 114.992C17.9085 113.361 16.4898 94.918 16.9154 89.9526C17.341 84.9872 17.6247 83.2848 19.7528 80.873" fill="white"/>
<path d="M36.2805 88.1084C37.1317 90.0236 37.3445 92.1516 36.9898 94.2087C36.2805 97.4007 34.9327 109.531 34.9327 109.531L29.7545 121.873C29.7545 121.873 19.1853 120.951 18.0504 120.313C16.9154 119.674 17.341 116.624 17.6247 114.992C17.9085 113.361 16.4898 94.918 16.9154 89.9526C17.341 84.9872 17.6247 83.2848 19.7528 80.873" stroke="#444444" stroke-miterlimit="10"/>
<path d="M30.109 108.537C30.109 108.537 23.583 110.665 23.2993 110.736" stroke="#444444" stroke-miterlimit="10"/>
<path d="M21.1005 106.48C21.1005 106.48 30.1801 107.474 30.8185 107.828" stroke="#444444" stroke-miterlimit="10"/>
<path d="M20.1783 99.8125L32.2372 108.112" stroke="#444444" stroke-miterlimit="10"/>
<path d="M32.2371 108.112C32.2371 108.112 39.4015 108.183 39.5434 109.814C39.6853 111.445 38.1247 122.582 37.6991 122.795C37.2735 123.008 29.4707 123.292 28.8323 122.653C28.1939 122.015 29.8963 109.247 30.1091 108.608C30.3219 107.97 32.2371 108.112 32.2371 108.112Z" fill="white" stroke="#444444" stroke-miterlimit="10"/>
<rect x="126" y="7" width="4" height="12" fill="white"/>
<rect x="122" y="15" width="4" height="12" transform="rotate(-90 122 15)" fill="white"/>
<path d="M19.3905 24.1221C20.0854 24.5011 20.0854 25.4989 19.3905 25.8779L11.4789 30.1934C10.8125 30.5568 10 30.0745 10 29.3155L10 20.6845C10 19.9255 10.8125 19.4432 11.4789 19.8066L19.3905 24.1221Z" fill="#5FC1E8"/>
<path d="M144.429 115.857C143.782 115.469 143.782 114.531 144.429 114.143L151.486 109.909C152.152 109.509 153 109.989 153 110.766L153 119.234C153 120.011 152.152 120.491 151.486 120.091L144.429 115.857Z" fill="white"/>
<path d="M88.4292 25.8575C87.7818 25.4691 87.7818 24.5309 88.4292 24.1425L95.4855 19.9087C96.152 19.5088 97 19.9889 97 20.7662L97 29.2338C97 30.0111 96.152 30.4912 95.4855 30.0913L88.4292 25.8575Z" fill="#95C03D"/>
</g>
<defs>
<clipPath id="clip0_958_303">
<rect width="160" height="160" fill="white"/>
</clipPath>
</defs>
</svg>
