<svg width="160" height="160" viewBox="0 0 160 160" fill="none" xmlns="https://www.w3.org/2000/svg">
<g clip-path="url(#clip0_791_96)">
<path d="M68.4796 39.339C72.8712 35.8071 79.1289 35.8071 83.5205 39.339L137.456 82.716C143.402 87.4978 143.434 96.5415 137.522 101.365L83.5861 145.371C79.1704 148.973 72.8297 148.973 68.4139 145.371L14.4783 101.365C8.56633 96.5415 8.59813 87.4978 14.5439 82.716L68.4796 39.339Z" fill="#07569D"/>
<path d="M77.7628 21.3038C77.7628 21.3038 69.7628 19.5038 63.8628 21.5038C57.9628 23.5038 51.6628 30.4038 52.5628 32.0038C53.4628 33.6038 57.9628 31.9038 57.9628 31.9038C57.9628 31.9038 53.7628 36.1038 54.3628 36.7038C54.9628 37.3038 55.5628 37.8038 55.5628 37.8038C55.5628 37.8038 50.4628 43.0038 49.7628 49.4038C49.0628 55.8038 51.9628 58.4038 51.9628 58.4038L55.5628 56.1038C55.5628 56.1038 54.8628 62.0038 59.1628 65.0038C63.4628 68.0038 63.9628 66.6038 63.9628 66.6038C63.9628 66.6038 69.1628 73.7038 77.5628 74.9038C85.9628 76.1038 90.6628 75.1038 93.8628 73.5038C96.9628 71.8038 99.3628 69.8038 99.3628 69.8038C99.3628 69.8038 98.6628 72.3038 101.863 71.1038C105.063 69.9038 111.163 62.9038 111.163 62.9038C111.163 62.9038 112.463 64.8038 114.163 62.4038C115.863 60.0038 114.463 50.2038 114.463 50.2038C114.463 50.2038 119.063 51.6038 118.063 48.0038C117.063 44.4038 112.963 32.6038 109.263 29.7038C105.563 26.8038 99.8628 25.0038 99.8628 25.0038C99.8628 25.0038 102.663 26.1038 101.863 24.3038C101.063 22.5038 94.7628 19.1038 88.7628 19.0038C82.7628 18.9038 80.9628 20.8038 80.9628 20.8038C80.9628 20.8038 79.3628 18.5038 78.5628 19.5038C77.7628 20.5038 77.7628 21.3038 77.7628 21.3038Z" fill="#444444"/>
<path d="M66.3626 77.8038C66.3626 77.8038 78.3626 74.6038 84.6626 74.9038C90.9626 75.2038 95.9626 77.5038 95.9626 77.5038C95.9626 77.5038 98.8626 89.8038 99.5626 104.504C100.263 119.204 97.4998 134.5 97.4998 134.5C97.4998 134.5 84.0002 147.5 76.5 148C75.5022 148.067 58.9998 148 63.7626 120.604C63.0626 104.804 64.4626 82.1038 64.4626 82.1038L66.3626 77.8038Z" fill="white" stroke="#444444" stroke-linecap="round" stroke-linejoin="round"/>
<path d="M93.3628 122.504L85.7628 129.204" stroke="#444444" stroke-linecap="round" stroke-linejoin="round"/>
<path d="M73.5628 64.8038L71.9628 77.0038C71.9628 77.0038 74.8628 84.6038 82.8628 84.9038C90.8628 85.2038 94.7628 76.6038 94.7628 76.6038L91.7628 63.9038L73.5628 64.8038Z" fill="white" stroke="#444444" stroke-linecap="round" stroke-linejoin="round"/>
<path d="M79.2628 30.7037C79.2628 30.7037 75.7628 31.0037 72.1628 33.7037C68.5628 36.4037 68.8628 41.7037 68.9628 45.6037C69.0628 49.5037 69.9628 60.1037 71.4628 62.8037C72.9628 65.5037 78.6628 70.0037 81.9628 70.1037C85.2628 70.2037 92.7628 65.3037 94.0628 61.1037C95.3628 56.9037 97.1628 46.1037 96.0628 39.7037C94.9628 33.4037 88.5628 31.8037 88.5628 31.8037C88.5628 31.8037 88.7628 34.1037 87.8628 33.6037C86.9628 33.1037 79.2628 30.7037 79.2628 30.7037Z" fill="white" stroke="#444444" stroke-linecap="round" stroke-linejoin="round"/>
<path d="M80.4945 53.2631C80.4945 53.2631 80.334 54.3868 80.7352 54.7325C81.1363 55.0783 82.099 55.0783 82.7408 54.8189C83.3826 54.5596 83.4628 53.1767 83.4628 53.0038" stroke="#444444" stroke-linecap="round" stroke-linejoin="round"/>
<path d="M77.4628 59.4451C77.4628 59.4451 82.7753 60.4747 87.4628 59.0038C87.4628 59.0038 85.9784 62.0927 82.9315 62.9017C79.8847 63.7107 77.4628 59.4451 77.4628 59.4451Z" fill="white" stroke="#444444" stroke-linecap="round" stroke-linejoin="round"/>
<path d="M71.4628 43.2341C71.4628 43.2341 74.0628 41.2341 76.6628 42.3341" stroke="#444444" stroke-linecap="round" stroke-linejoin="round"/>
<path d="M87.6628 42.7037C87.6628 42.7037 91.1628 42.9037 92.0628 44.1037" stroke="#444444" stroke-linecap="round" stroke-linejoin="round"/>
<path d="M76.6628 48.0038C76.6628 49.0038 76.2628 49.7038 75.7628 49.7038C75.2628 49.7038 74.9628 49.0038 74.9628 48.0038C74.9628 47.0038 75.3628 46.3038 75.8628 46.3038C76.3628 46.3038 76.6628 47.1038 76.6628 48.0038Z" fill="#444444"/>
<path d="M87.8628 48.0038C87.8628 49.0038 87.4628 49.7038 86.9628 49.7038C86.4628 49.7038 86.0628 49.0038 86.0628 48.0038C86.0628 47.0038 86.4628 46.3038 86.9628 46.3038C87.4628 46.3038 87.8628 47.1038 87.8628 48.0038Z" fill="#444444"/>
<path d="M67.8628 45.7038L68.9628 51.1038C68.9628 51.1038 74.7628 51.7038 79.4628 50.3038L80.5628 44.8038C80.6628 44.8038 72.5628 42.6038 67.8628 45.7038Z" stroke="#444444" stroke-linecap="round" stroke-linejoin="round"/>
<path d="M95.9628 45.7038L94.8628 51.1038C94.8628 51.1038 89.0628 51.7038 84.3628 50.3038L83.2628 44.8038C83.2628 44.8038 91.3628 42.6038 95.9628 45.7038Z" stroke="#444444" stroke-linecap="round" stroke-linejoin="round"/>
<path d="M80.6628 44.8039C80.6628 44.8039 82.7628 44.6039 83.1628 44.8039" stroke="#444444" stroke-linecap="round" stroke-linejoin="round"/>
<path d="M72.2628 75.7038C72.2628 75.7038 62.9628 78.1038 57.2628 79.1038C51.5628 80.2038 47.3628 81.3038 46.5628 83.0038C45.7628 84.7038 33.6628 126.504 34.4628 129.604C35.2628 132.704 37.4628 133.904 40.9628 135.404C44.4628 136.904 48.5 129.604 48.5 129.604L68.5 145C68.5 145 67.8628 121.704 67.8628 108.904C67.8628 96.1038 73.4628 74.3038 73.4628 74.3038L72.2628 75.7038Z" fill="#8BB825" stroke="#444444" stroke-linecap="round" stroke-linejoin="round"/>
<path d="M55.2628 90.6039C55.2628 90.6039 49.7628 109.704 48.8628 115.304C47.9628 120.904 47.0628 134.804 47.0628 134.804" stroke="#444444" stroke-linecap="round" stroke-linejoin="round"/>
<path d="M82.5628 83.8037L75.8628 82.5037L77.5628 77.7037L82.8628 78.8037L82.5628 83.8037Z" fill="#444444"/>
<path d="M75.9628 82.2037L82.5628 83.5037L80.4628 94.6037L73.7628 93.2037L75.9628 82.2037Z" fill="#444444"/>
<path d="M56.3628 112.404L64.3628 107.004C64.3628 107.004 72.1628 89.3038 72.8628 88.6038C73.5628 87.9038 81.3628 89.8038 81.8628 90.0038C82.3628 90.3038 82.6628 90.9038 82.6628 91.6038C82.6628 92.3038 82.3628 93.5038 82.3628 93.5038C82.3628 93.5038 82.2628 95.1038 82.1628 95.6038C82.0628 96.1038 81.6628 97.7038 81.6628 98.1038C81.6628 98.5038 81.3628 99.7038 81.3628 99.7038C81.3628 99.7038 83.4628 100.604 84.3628 101.804C85.2628 103.004 84.8628 103.404 84.1628 103.504C83.4628 103.604 82.1628 102.904 81.5628 102.904C80.9628 102.904 76.2628 102.104 75.0628 102.504C73.8628 102.904 73.6628 104.904 72.2628 107.004C70.8628 109.104 68.2628 110.704 68.2628 110.704L59.1628 123.904L56.3628 112.404Z" fill="#F9F9F9" stroke="#444444" stroke-linecap="round" stroke-linejoin="round"/>
<path d="M81.3628 99.6039C81.3628 99.6039 78.6628 99.3039 77.4628 99.2039C76.2628 99.0039 73.6628 98.2039 72.7628 98.8039" stroke="#444444" stroke-linecap="round" stroke-linejoin="round"/>
<path d="M72.3628 95.6039C72.5628 95.6039 78.8628 96.4039 80.0628 96.6039C81.2628 96.8039 81.6628 97.0039 81.6628 97.0039" stroke="#444444" stroke-linecap="round" stroke-linejoin="round"/>
<path d="M82.0628 94.0039C82.0628 94.0039 76.9628 92.9039 75.5628 92.5039C74.1628 92.1039 72.8628 92.1039 72.4628 92.5039" stroke="#444444" stroke-linecap="round" stroke-linejoin="round"/>
<path d="M57.8628 110.704L61.8628 125.004C61.8628 125.004 50.8628 142.204 45.6628 144.204C40.5628 146.204 35.5628 145.204 34.1628 141.304C32.7628 137.404 32.3628 130.904 34.4628 128.004C36.5628 125.104 57.8628 110.704 57.8628 110.704Z" fill="#8BB825" stroke="#444444" stroke-linecap="round" stroke-linejoin="round"/>
<path d="M127.063 115.104L130.963 105.404C130.963 105.404 132.363 99.1038 133.063 97.5038C133.763 95.9038 142.163 93.4038 142.763 93.2038C143.363 93.0038 146.863 89.8038 147.363 91.9038C147.863 94.1038 147.763 94.4038 146.063 95.3038C144.463 96.2038 141.063 98.2038 141.063 98.2038C141.063 98.2038 152.363 97.1038 153.063 97.1038C153.763 97.1038 160.763 96.6038 159.463 99.4038C158.163 102.304 155.363 105.804 153.063 107.104C150.763 108.404 136.263 112.104 136.263 112.104L131.963 120.504L127.063 115.104Z" fill="white" stroke="#444444" stroke-linecap="round" stroke-linejoin="round"/>
<path d="M160.063 98.4038C160.063 98.4038 157.763 91.9038 157.063 92.4038C156.363 92.9038 156.263 93.3038 156.563 94.3038C156.863 95.3038 158.163 99.3038 158.163 99.5038C158.163 99.6038 159.863 100.904 160.063 98.4038Z" fill="white" stroke="#444444" stroke-linecap="round" stroke-linejoin="round"/>
<path d="M157.063 103.404C157.063 103.404 159.463 101.404 159.663 99.5038C159.863 97.6038 160.063 94.6038 159.663 93.4038C159.263 92.2038 157.763 93.5038 158.063 94.2038C158.363 94.9038 157.063 102.204 157.063 103.404Z" fill="white" stroke="#444444" stroke-linecap="round" stroke-linejoin="round"/>
<path d="M153.563 107.304C153.563 107.304 156.863 103.904 157.063 103.404C157.263 102.904 159.063 94.0038 158.063 94.2038C157.063 94.5038 155.963 96.2038 155.663 97.7038C155.463 99.2038 153.563 107.304 153.563 107.304Z" fill="white" stroke="#444444" stroke-linecap="round" stroke-linejoin="round"/>
<path d="M135.463 108.604C135.463 108.604 137.263 106.204 138.863 105.504C140.463 104.804 151.363 104.404 151.363 104.404C151.363 104.404 155.263 95.0038 155.763 96.7038C156.263 98.4038 153.963 106.604 153.263 107.304C152.563 108.004 141.663 111.204 139.363 111.704" fill="white"/>
<path d="M135.463 108.604C135.463 108.604 137.263 106.204 138.863 105.504C140.463 104.804 151.363 104.404 151.363 104.404C151.363 104.404 155.263 95.0038 155.763 96.7038C156.263 98.4038 153.963 106.604 153.263 107.304C152.563 108.004 141.663 111.204 139.363 111.704" stroke="#444444" stroke-linecap="round" stroke-linejoin="round"/>
<path d="M94.6628 76.6038C94.6628 76.6038 97.8628 98.7038 97.6628 119.304C97 124.5 96.9 130.9 96.5 135.5L106 127.5C106 127.5 119.163 149.404 123.863 142.904C128.463 136.504 134.763 120.904 134.763 120.904L128.163 113.004L120.463 120.704C120.463 120.704 115.863 83.6038 114.563 82.4038C113.263 81.1038 111.663 81.0038 110.963 81.0038C110.263 81.0038 94.6628 76.5038 94.6628 76.6038Z" fill="#8BB825" stroke="#444444" stroke-linecap="round" stroke-linejoin="round"/>
<path d="M120.463 120.604L114.363 126.104" stroke="#444444" stroke-linecap="round" stroke-linejoin="round"/>
<path d="M107 101C108.5 108.5 111 121 106 127" stroke="#444444" stroke-linecap="round" stroke-linejoin="round"/>
<rect x="125" y="7" width="4" height="12" fill="#FF6F3D"/>
<rect x="121" y="15" width="4" height="12" transform="rotate(-90 121 15)" fill="#FF6F3D"/>
<path d="M4 22C4 20.3431 5.34315 19 7 19H33C34.6569 19 36 20.3431 36 22V40C36 41.6569 34.6569 43 33 43H28V48.5L20 43H7C5.34315 43 4 41.6569 4 40V22Z" fill="white"/>
<path d="M138.613 37.8561C141.175 35.7958 144.825 35.7958 147.387 37.8561L153.266 42.5843C156.734 45.3737 156.753 50.6492 153.304 53.4629L147.425 58.2596C144.849 60.3613 141.151 60.3613 138.575 58.2596L132.696 53.4629C129.247 50.6492 129.266 45.3737 132.734 42.5843L138.613 37.8561Z" fill="#5FC1E8"/>
</g>
<defs>
<clipPath id="clip0_791_96">
<rect width="160" height="160" fill="white"/>
</clipPath>
</defs>
</svg>
