<svg width="56" height="56" viewBox="0 0 56 56" fill="none" xmlns="http://www.w3.org/2000/svg">
<path d="M28 16L45.9755 25.7165C46.2986 25.8912 46.5 26.2289 46.5 26.5962V41H9.5V26.5962C9.5 26.2289 9.70136 25.8912 10.0245 25.7165L28 16Z" fill="#D9F4FF" stroke="#1572CA"/>
<path d="M28.2337 37.4855L46.5 27.8299V48C46.5 48.2761 46.2761 48.5 46 48.5H10C9.72386 48.5 9.5 48.2761 9.5 48V27.8299L27.7663 37.4855L28 37.609L28.2337 37.4855Z" fill="#F9F9F9" stroke="#1572CA"/>
<circle cx="28" cy="36" r="7" fill="#95C03D"/>
<path d="M25 36.1538L26.8947 38L31 34" stroke="white" stroke-width="2" stroke-linecap="round"/>
<path d="M24.243 23.4072L22.9876 15.6232C22.9503 15.3922 23.0782 15.1662 23.2955 15.0793L38.4884 9.00219C38.7847 8.88365 39.1148 9.06938 39.1673 9.38423L39.3142 10.2657C39.3419 10.4321 39.2839 10.6012 39.1598 10.7156L25.0755 23.6952C24.7824 23.9653 24.3065 23.8007 24.243 23.4072Z" fill="#D9F4FF" stroke="#1572CA" stroke-linecap="round"/>
<path d="M24.6947 22.8351L27.3261 16.6953L37.5978 9.94531L37.8913 12.2931L25.4879 23.4045C25.0892 23.7617 24.4839 23.3271 24.6947 22.8351Z" fill="#9ADAF3" stroke="#1572CA" stroke-linecap="round"/>
<path d="M41.5187 7.04582L16.7124 11.68C16.2187 11.7722 16.1539 12.4532 16.6214 12.6368L23.0298 15.1545C23.1502 15.2017 23.2841 15.2006 23.4036 15.1512L39.5 8.49988L27.8674 16.1468C27.5233 16.373 27.5849 16.895 27.9722 17.0348L37.1157 20.3367C37.38 20.4321 37.671 20.2911 37.7599 20.0245L41.9292 7.51674C41.9726 7.38649 41.9387 7.2429 41.8416 7.14582C41.7571 7.06128 41.6363 7.02387 41.5187 7.04582Z" fill="white" stroke="#1572CA" stroke-linecap="round" stroke-linejoin="round"/>
</svg>
