<svg width="160" height="160" viewBox="0 0 160 160" fill="none" xmlns="http://www.w3.org/2000/svg">
<g clip-path="url(#clip0_814_445)">
<path d="M68.4795 39.339C72.8712 35.8071 79.1288 35.8071 83.5205 39.339L137.456 82.716C143.402 87.4978 143.434 96.5415 137.522 101.365L83.5861 145.371C79.1703 148.973 72.8297 148.973 68.4139 145.371L14.4782 101.365C8.56629 96.5415 8.5981 87.4978 14.5439 82.716L68.4795 39.339Z" fill="#07569D"/>
<path d="M134.8 18.7758C134.8 18.7758 135 13.0758 138.2 11.4758C141.5 9.8758 141.6 15.1758 141.6 15.1758C141.6 15.1758 149.1 10.4758 150.7 14.0758C152.3 17.6758 150.1 19.3758 150.1 19.3758C150.1 19.3758 156.7 19.1758 157.2 22.7758C157.7 26.3758 154.2 28.1758 154.2 28.1758C154.2 28.1758 158.3 31.4758 156.9 33.0758C155.5 34.6758 152.3 34.7758 152.3 34.7758C152.3 34.7758 154.1 38.3758 151 39.6758C147.9 40.9758 144.3 38.5758 144.3 38.5758C144.3 38.5758 144.9 40.1758 142.5 39.7758C140.2 39.3758 137.8 38.2758 136.4 34.8758C135 31.4758 133.1 21.6758 134.8 18.7758Z" fill="#444444"/>
<path d="M132.9 53.1759L136.9 55.8759C136.9 55.8759 141.6 60.0759 142.8 63.5759C144 67.0759 139.7 92.7 138.5 99.5C135.6 103.324 111 123.324 104 128.5C104 128.5 105.8 121 107 117C108.5 112 110 104.176 110.1 100.076C110.1 95.9759 106.7 89.4759 106.1 85.3759C105.4 81.3759 106.8 74.3759 110.1 69.1759C113.4 63.9759 115.7 61.8759 122.2 56.5759C128.6 51.3759 132.9 53.1759 132.9 53.1759Z" fill="#5FC1E8" stroke="#444444" stroke-miterlimit="10"/>
<path d="M132.9 53.1758C132.9 53.1758 128.6 51.3758 122.1 56.7758C115.6 62.0758 113.4 64.1758 110 69.3758C108 72.5758 106.7 76.1758 106.1 79.9758C106.2 80.3758 106.3 80.7758 106.4 81.1758C108.3 89.0758 110.3 92.8758 110.3 92.8758C110.3 92.8758 113.9 74.9758 120.2 67.6758C126.5 60.3758 136.9 55.9758 136.9 55.9758L132.9 53.1758Z" fill="#5FC1E8" stroke="#444444" stroke-miterlimit="10"/>
<path d="M117.2 18.1759C117.2 18.1759 112.5 22.5759 112.1 26.0759C111.7 29.5759 111.4 32.4759 110.8 33.6759C110.2 34.7759 107.3 35.4759 108.3 37.1759C109.3 38.8759 110.2 38.8759 110.2 38.8759C110.2 38.8759 111.7 46.3759 112.8 47.3759C113.9 48.3759 118 47.7759 118 47.7759L119.3 56.8759C119.3 56.8759 110.9 64.3759 109.3 74.7759C107.7 85.1759 109.5 90.9759 109.5 90.9759C109.5 90.9759 110.6 74.5759 114.4 68.4759C118.2 62.3759 127 56.5759 128.3 55.4759C129.6 54.4759 132.9 53.1759 132.9 53.1759C132.9 53.1759 131.3 49.6759 131.1 48.0759C130.9 46.4759 131 44.1759 131.3 43.5759C131.6 42.9759 136.9 41.0759 138.8 34.9759C140.8 28.9759 137.9 21.8759 134.8 18.7759C131.7 15.7759 121.2 14.2759 117.2 18.1759Z" fill="white" stroke="#444444" stroke-miterlimit="10"/>
<path d="M140.25 35.715C142.525 28.9211 139.226 20.8816 135.7 17.3714C132.174 13.8612 121.55 12.7288 117 17.1449C117 17.1449 116.024 19.0471 115.682 19.5001C117.389 19.0471 118.794 17.7735 120.5 18C124.14 18.5662 123.758 20.5419 122.734 23.2594C121.711 25.977 122.507 26.4299 124.327 27.7887C126.146 29.1475 124.327 31.7519 125.578 32.771C126.829 33.7901 127.966 28.2417 130.696 32.2048C133.539 36.1679 131.606 37.9797 129.9 39.112C128.876 39.7914 127.852 40.2443 126.715 40.6972C126.715 40.6972 129.331 43.7545 131.947 45.0001C133.198 44.2074 138.203 41.8295 140.25 35.715Z" fill="#444444"/>
<path d="M113 41C113 41 115.75 40.6471 117 39" stroke="#444444" stroke-miterlimit="10" stroke-linecap="round"/>
<path d="M114.9 32.3758C114.9 33.1758 114.6 33.7758 114.2 33.7758C113.8 33.7758 113.5 33.1758 113.4 32.3758C113.4 31.5758 113.7 30.9758 114.1 30.9758C114.5 30.9758 114.9 31.5758 114.9 32.3758Z" fill="#444444"/>
<path d="M113.5 29.1758C113.5 29.1758 114.6 27.7758 116.1 29.4758" stroke="#444444" stroke-miterlimit="10"/>
<path d="M111.4 67.8759C110.4 69.9759 109.7 72.2759 109.3 74.5759C107.7 85.0759 109.5 90.9759 109.5 90.9759C109.5 90.9759 110.6 74.7759 114.3 68.5759C113.3 68.4759 112.3 68.2759 111.4 67.8759Z" fill="white" stroke="#444444" stroke-miterlimit="10"/>
<path d="M127.2 74.6759L126.8 92.9759L94.7 98.2759L95.4 106.876C95.4 106.876 113.2 107.276 121.5 106.476C129.8 105.776 137 105.276 138.1 104.376C139.2 103.476 142.2 86.4759 143.4 74.4759C144.6 62.4759 142.2 58.4759 137.2 59.1759" fill="#5FC1E8"/>
<path d="M127.2 74.6759L126.8 92.9759L94.7 98.2759L95.4 106.876C95.4 106.876 113.2 107.276 121.5 106.476C129.8 105.776 137 105.276 138.1 104.376C139.2 103.476 142.2 86.4759 143.4 74.4759C144.6 62.4759 142.2 58.4759 137.2 59.1759" stroke="#444444" stroke-miterlimit="10"/>
<path d="M75.6 97.4759L73 105.276L75.5 106.676C75.5 106.676 78.7 109.176 80.4 110.476C82.1 111.776 83.5 111.776 84.4 111.376C85.3 110.976 89.5 104.976 90 103.876C90.5 102.776 88.1 99.3759 85.6 97.8759C83.1 96.4759 81.1 96.4759 79.6 96.8759C78.4 97.2759 77 97.3759 75.6 97.4759Z" fill="white" stroke="#444444" stroke-miterlimit="10"/>
<path d="M94.8 98.2758L90.7 97.8758C89.4 97.5758 88.1 97.2758 86.8 97.1758C85.7 97.1758 84.3 98.2758 83.6 98.7758C82.9 99.2758 75.1 107.776 75.1 107.776C75.1 107.776 75.8 109.176 76.9 108.876C78 108.476 79.9 107.676 79.9 107.676C79.9 107.676 77.8 109.776 78.8 110.876C79.9 111.976 81.6 111.976 81.6 111.976L82.8 111.276C83.3 111.676 83.9 111.976 84.6 112.176C85.5 112.376 86.9 111.976 88.1 111.276C89.3 110.576 92.5 106.876 92.5 106.876L95.2 105.876L94.8 98.2758Z" fill="white" stroke="#444444" stroke-miterlimit="10"/>
<path d="M77 97.8758C77 97.8758 82.1 94.8758 84.4 95.6758C86.7 96.4758 89.6 101.476 88.8 102.276C88 102.976 86.6 102.676 85.9 101.976C85.3 101.476 84.6 100.976 84 100.576C82.6 101.376 81.1 101.776 79.6 101.776" fill="white"/>
<path d="M77 97.8758C77 97.8758 82.1 94.8758 84.4 95.6758C86.7 96.4758 89.6 101.476 88.8 102.276C88 102.976 86.6 102.676 85.9 101.976C85.3 101.476 84.6 100.976 84 100.576C82.6 101.376 81.1 101.776 79.6 101.776" stroke="#444444" stroke-miterlimit="10"/>
<path d="M92.3 109.476L90.7 108.576C90.1 108.276 89.9 107.576 90.2 107.076C90.5 106.576 91.2 106.276 91.7 106.576L93.3 107.476C93.8 107.776 94.1 108.476 93.8 108.976C93.5 109.576 92.8 109.776 92.3 109.476Z" fill="white" stroke="#444444" stroke-miterlimit="10"/>
<path d="M90.8 111.176L89.2 110.276C88.7 109.976 88.5 109.276 88.7 108.776C89 108.276 89.7 108.076 90.2 108.276L91.8 109.176C92.3 109.476 92.5 110.176 92.3 110.676C92.1 111.276 91.4 111.476 90.8 111.176Z" fill="white" stroke="#444444" stroke-miterlimit="10"/>
<path d="M89.2 112.776L87.6 111.876C87.1 111.576 86.8 110.876 87.1 110.376C87.4 109.876 88.1 109.576 88.6 109.876L90.2 110.776C90.7 111.076 91 111.776 90.7 112.276C90.4 112.876 89.7 113.076 89.2 112.776Z" fill="white" stroke="#444444" stroke-miterlimit="10"/>
<path d="M85.7 112.876L85.3 112.676C84.7 112.376 84.5 111.676 84.8 111.176C85.1 110.676 85.8 110.376 86.3 110.676L86.7 110.876C87.3 111.176 87.5 111.876 87.2 112.376C87 112.976 86.3 113.176 85.7 112.876Z" fill="white" stroke="#444444" stroke-miterlimit="10"/>
<path d="M75.6 97.4759L54 88.3759L54.8 102.676L72.6 106.776L75.6 97.4759Z" fill="#27ABA3" stroke="#444444" stroke-linecap="round" stroke-linejoin="round"/>
<path d="M72.6 106.776L75.6 97.4758L72.6 96.1758L72.5 96.4758L69.8 106.076L72.6 106.776Z" fill="white" stroke="#444444" stroke-miterlimit="10"/>
<path d="M41.9 40.4758L47.4 43.0758C47.4 43.0758 49.7 49.6758 48.9 49.7758C48.1 49.9758 42.3 45.3758 42.3 45.3758L41.9 40.4758Z" fill="white" stroke="#444444" stroke-linecap="round" stroke-linejoin="round"/>
<path d="M45.2 39.1758L45.6 36.9758C45.6 36.9758 50.7 37.3758 52.8 37.2758C54.9 37.1758 56.6 36.9758 56.6 34.8758C56.6 32.6758 55.4 25.2758 55.4 25.2758C55.4 25.2758 57.7 24.7758 58.6 23.6758C59.5 22.5758 58.2 21.3758 57 19.8758C55.8 18.3758 54.8 16.6758 54.7 14.8758C54.6 13.0758 51.5 7.27582 51.5 7.27582C51.5 7.27582 52 6.37582 50.3 4.47582C48.5 2.57582 40 2.27582 34.5 4.97582C29 7.67582 27.8 11.6758 27.8 15.9758C27.8 20.2758 30.3 26.4758 30.3 26.4758C30.3 26.4758 28.7 33.0758 28.6 33.4758C28.5 33.8758 27 36.6758 27 36.6758C27 36.6758 33.8 41.4758 36.3 43.5758C38.8 45.6758 44.4 49.3758 44.5 47.3758C44.5 45.3758 44.8 40.8758 44.8 40.8758L45.2 39.1758Z" fill="white" stroke="#444444" stroke-linecap="round" stroke-linejoin="round"/>
<path d="M52.7 18.3758C52.7 19.0758 52.6 19.6758 52.3 19.7758C52.1 19.7758 51.8 19.1758 51.8 18.4758C51.8 17.7758 51.9 17.1758 52.2 17.0758C52.4 17.0758 52.7 17.6758 52.7 18.3758Z" fill="#444444"/>
<path fill-rule="evenodd" clip-rule="evenodd" d="M49.9553 16.494C49.9568 16.4916 49.9598 16.4874 49.9641 16.4814C49.9784 16.4616 50.0068 16.4245 50.0503 16.3779C50.1377 16.2841 50.2802 16.1575 50.4858 16.0508C50.8624 15.8552 51.5927 15.6515 52.8558 16.1146C53.3743 16.3048 53.9488 16.0385 54.1389 15.52C54.329 15.0015 54.0628 14.427 53.5443 14.2369C51.8073 13.6 50.4876 13.7963 49.5642 14.2758C49.1198 14.5065 48.7998 14.7862 48.5872 15.0143C48.4807 15.1286 48.3998 15.2313 48.3422 15.3111C48.3134 15.3511 48.2902 15.3856 48.2724 15.4133C48.2635 15.4271 48.2559 15.4392 48.2496 15.4495L48.2411 15.4636L48.2376 15.4695L48.2361 15.4722L48.2353 15.4735C48.2349 15.4741 48.2346 15.4747 49.1 15.9758L48.2346 15.4747C47.9579 15.9527 48.121 16.5645 48.599 16.8412C49.0712 17.1146 49.6739 16.9586 49.9553 16.494Z" fill="#444444"/>
<path d="M56.5 34.7758C56.5 32.5758 55.3 25.1758 55.3 25.1758C55.3 25.1758 53.9 24.3758 51.2 25.0758C48.5 25.7758 47.8 30.0758 47.3 30.5758C46.8 31.0758 43.5 28.0758 42.2 25.9758C40.9 23.8758 40 20.3758 39.9 18.3758C39.8 16.2758 44.6 15.2758 45.4 13.3758C46.2 11.4758 42.6 9.37582 43.8 8.17582C45 6.87582 47.6 7.37582 48.9 7.67582C49.8 7.77582 50.7 7.67582 51.5 7.27582C51.5 7.27582 52 6.37582 50.3 4.47582C48.5 2.57582 40 2.27582 34.5 4.97582C29 7.67582 27.8 11.6758 27.8 15.9758C27.8 19.4758 29.4 24.1758 30.1 25.7758C30.6 25.9758 31.2 26.0758 31.7 26.0758C32.2 25.9758 32.6 24.3758 32.8 22.8758C33 21.3758 36.7 19.5758 36.7 19.5758C36.7 19.5758 37.4 24.1758 37.4 25.0758C37.4 25.9758 36.9 30.4758 39.4 32.5758C41.3 34.1758 43.4 35.5758 45.6 36.8758C45.6 36.8758 50.7 37.2758 52.8 37.1758C54.7 37.2758 56.5 36.9758 56.5 34.7758Z" fill="#444444"/>
<path d="M37.5 22.7758C37.5 22.7758 36.4 16.6758 34.7 16.8758C32.9 17.1758 31.9 19.4758 32.8 22.3758C33.7 25.2758 35.5 25.0758 36.5 24.7758" fill="white"/>
<path d="M37.5 22.7758C37.5 22.7758 36.4 16.6758 34.7 16.8758C32.9 17.1758 31.9 19.4758 32.8 22.3758C33.7 25.2758 35.5 25.0758 36.5 24.7758" stroke="#444444" stroke-linecap="round" stroke-linejoin="round"/>
<path d="M50.1 27.4758C50.1 27.4758 51.1 28.7758 53.8 28.7758" stroke="white" stroke-linecap="round" stroke-linejoin="round"/>
<path d="M24.9 37.5758C24.9 37.5758 18.7 45.4758 17 49.8758C15.3 54.2758 13.9 55.0758 14.3 60.6758C14.7 66.2758 17.4 88.6758 17.4 88.6758L16.5 103.5C22 107 29.7 117.5 36.5 117.5C47.7 117.5 43.7 126.8 44.5 126.5C45.2 126.1 56.5 135.5 56.5 135.5C56.5 135.5 56.2 84.8758 54.1 73.4758C52 62.0758 49.3 53.4758 48.3 51.2758C47.3 49.1758 44.2 42.1758 44.2 42.1758L24.9 37.5758Z" fill="#27ABA3" stroke="#444444" stroke-linecap="round" stroke-linejoin="round"/>
<path d="M48.3 51.2758C47.3 49.1758 44.2 42.1758 44.2 42.1758L24.9 37.5758C24.9 37.5758 23.6 39.2758 22 41.4758C26.2 43.8758 36.6 49.9758 37.2 50.0758C38 50.2758 41.8 49.8758 41.8 49.8758L40.1 51.9758C40.1 51.9758 44.7 55.6758 46.3 57.1758C47.1 57.9758 49.5 60.1758 51.5 61.9758C50.2 56.5758 48.9 52.6758 48.3 51.2758Z" fill="#27ABA3"/>
<path d="M39.4 46.4758L46 51.6758L51.3 61.3758L47.9 47.2758L40.7 43.1758L39.4 46.4758Z" fill="white" stroke="#444444" stroke-linecap="round" stroke-linejoin="round"/>
<path d="M26.3 33.9758L46.5 43.0758V50.1758L23.4 38.3758L26.3 33.9758Z" fill="white" stroke="#444444" stroke-linecap="round" stroke-linejoin="round"/>
<path d="M53 106.876H18.1V135.076H53V106.876Z" fill="#808080" stroke="#444444" stroke-miterlimit="10"/>
<path d="M37.7 120.376C37.7 120.376 40.3 123.776 41.3 124.076C42.2 124.476 42.9 125.076 43.3 125.876C43.8 126.576 44.3 131.676 44.7 131.976C45.1 132.276 45 133.076 43.8 132.576C42.6 132.076 41.8 130.076 41.8 130.076L42.3 134.576C42.3 134.576 43.3 134.776 42.5 135.376C41.7 135.976 41 136.776 40.4 136.376C39.8 135.976 39.2 135.576 38.7 135.176C37.9 135.476 37 135.476 36.2 135.376C35 135.176 35.2 135.576 34.1 134.776C33 133.976 33 134.876 32.4 133.376C31.5 130.776 30.8 128.076 30.3 125.376C30.1 123.876 29.8 121.876 29.8 121.876L37.7 120.376Z" fill="white" stroke="#444444" stroke-linecap="round" stroke-linejoin="round"/>
<path d="M38.1 118.276L38.9 121.776L29.2 123.076L28.8 119.576L38.1 118.276Z" fill="white" stroke="#444444" stroke-linecap="round" stroke-linejoin="round"/>
<path d="M25.7 44.5758C25.7 44.5758 19 46.6758 18.8 49.7758C18.6 52.8758 16.4 90.2758 17.3 92.7758C18.3 95.2758 27.8 120.676 27.8 120.676L38.8 119.376C38.8 119.376 33.2 89.9758 33 89.3758C32.8 88.7758 36.8 55.9758 36.8 55.9758" fill="#27ABA3"/>
<path d="M35.4 65.3759L32.9 89.2759L35.3 104.176" stroke="#444444" stroke-linecap="round" stroke-linejoin="round"/>
<path d="M18 57.9758L17.2 80.4758" stroke="#444444" stroke-linecap="round" stroke-linejoin="round"/>
<rect x="95" y="3" width="4" height="12" fill="#5FC1E8"/>
<rect x="91" y="11" width="4" height="12" transform="rotate(-90 91 11)" fill="#5FC1E8"/>
<path d="M128.613 122.856C131.175 120.796 134.825 120.796 137.387 122.856L143.266 127.584C146.734 130.374 146.753 135.649 143.304 138.463L137.425 143.26C134.849 145.361 131.151 145.361 128.575 143.26L122.696 138.463C119.247 135.649 119.266 130.374 122.734 127.584L128.613 122.856Z" fill="#95C03D"/>
<path d="M10.3905 21.1221C11.0854 21.5011 11.0854 22.4989 10.3905 22.8779L2.47885 27.1934C1.81248 27.5568 1 27.0745 1 26.3155L1 17.6845C1 16.9255 1.81248 16.4432 2.47885 16.8066L10.3905 21.1221Z" fill="#FF6F3D"/>
<path d="M68.4292 54.8575C67.7818 54.4691 67.7818 53.5309 68.4292 53.1425L75.4855 48.9087C76.152 48.5088 77 48.9889 77 49.7662L77 58.2338C77 59.0111 76.152 59.4912 75.4855 59.0913L68.4292 54.8575Z" fill="white"/>
</g>
<defs>
<clipPath id="clip0_814_445">
<rect width="160" height="160" fill="white"/>
</clipPath>
</defs>
</svg>
