<svg width="1680" height="658" viewBox="0 0 1680 658" fill="none" xmlns="http://www.w3.org/2000/svg">
<g clip-path="url(#clip0_997_2279)">
<path opacity="0.04" fill-rule="evenodd" clip-rule="evenodd" d="M1408.62 602.085L2169.48 578.518C2235.6 576.142 2253.5 535.419 2209.5 487.49L1702.04 -95.7686C1651.32 -159.17 1595.89 -192.582 1494.37 -183.716L734.78 -160.837C668.664 -158.461 650.761 -117.737 694.761 -69.809L1174.03 506.657C1224.49 572.481 1284.85 601.87 1408.62 602.085Z" fill="white"/>
<path opacity="0.06" fill-rule="evenodd" clip-rule="evenodd" d="M735.116 350.382L41.3255 23.2332C-17.7752 -5.32739 -17.7752 -49.4666 41.3255 -75.4308L735.116 -402.58C794.217 -431.14 889.292 -431.14 945.823 -402.58L1639.61 -75.4308C1698.71 -46.8701 1698.71 -2.73099 1639.61 23.2332L945.823 350.382C877 384 791.647 376.346 735.116 350.382Z" fill="white"/>
<path opacity="0.1" fill-rule="evenodd" clip-rule="evenodd" d="M509.49 322.498L768.745 -399.416C790.34 -461.401 759.129 -492.613 698.979 -469.181L-22.9341 -209.926C-84.92 -188.331 -152.148 -121.103 -171.926 -60.9341L-431.181 660.979C-452.776 722.965 -421.565 754.176 -361.415 730.745L360.498 471.49C432.935 446.596 487.876 380.831 509.49 322.498Z" fill="white"/>
</g>
<defs>
<clipPath id="clip0_997_2279">
<rect width="1680" height="658" fill="white"/>
</clipPath>
</defs>
</svg>
