<svg width="160" height="160" viewBox="0 0 160 160" fill="none" xmlns="https://www.w3.org/2000/svg">
<g clip-path="url(#clip0_814_530)">
<path d="M68.4796 39.339C72.8712 35.8071 79.1289 35.8071 83.5205 39.339L137.456 82.716C143.402 87.4978 143.434 96.5415 137.522 101.365L83.5861 145.371C79.1704 148.973 72.8297 148.973 68.4139 145.371L14.4783 101.365C8.56632 96.5415 8.59813 87.4978 14.5439 82.716L68.4796 39.339Z" fill="#07569D"/>
<path d="M66.8434 122.477C66.8357 122.475 66.8298 122.474 66.8256 122.473L58.8969 120.03C58.8506 119.937 58.7902 119.805 58.7277 119.641C58.5902 119.28 58.4463 118.772 58.4164 118.182C58.3579 117.03 58.7269 115.503 60.6007 114.089C61.5162 113.423 62.1872 112.504 62.5252 111.494C64.0517 107.149 68.4381 95.1551 74.0045 88.0921L74.0532 88.0303L74.0806 87.9565L74.0806 87.9565L74.0806 87.9564L74.0808 87.956L74.0818 87.9533L74.0862 87.9415L74.1046 87.8931C74.1211 87.8503 74.1457 87.787 74.1779 87.7065C74.2422 87.5455 74.3366 87.316 74.4557 87.0449C74.6949 86.5006 75.0303 85.7968 75.4199 85.1421C75.8163 84.4759 76.2409 83.909 76.6457 83.5946C76.8449 83.4398 77.0065 83.3722 77.1301 83.3569C77.2368 83.3438 77.3514 83.364 77.4922 83.471L78.1133 83.9424L78.2824 83.1822L78.2825 83.1819L78.2825 83.1817L78.2826 83.1813L78.2838 83.1763L78.2904 83.1494C78.2967 83.1245 78.3068 83.0862 78.3211 83.0366C78.3497 82.9372 78.3948 82.7937 78.4594 82.623C78.5896 82.2792 78.7939 81.8387 79.092 81.4304C79.39 81.0221 79.7685 80.6639 80.2433 80.4531C80.7095 80.2461 81.3058 80.1644 82.0794 80.366L82.2415 80.4082L82.3964 80.3442C86.7331 78.5517 98.9648 75.0727 115.982 77.3391L115.983 77.3392C120.315 77.9087 124.232 78.4951 127.594 79.2403C130.961 79.9865 133.736 80.885 135.801 82.0636L135.814 82.0709L135.827 82.0775C140.005 84.1455 141.891 85.9447 142.847 87.8285C143.638 89.3878 143.82 91.0329 144.048 93.0964C144.101 93.5755 144.156 94.077 144.222 94.6053C144.983 100.839 146.347 114.096 146.12 121.496L146.12 121.499C146.051 124.249 143.907 126.615 140.359 128.502C136.834 130.377 132.065 131.698 127.073 132.411C122.084 133.122 116.909 133.22 112.589 132.672C110.429 132.398 108.495 131.964 106.91 131.371C105.32 130.777 104.118 130.037 103.38 129.175L103.045 128.785L102.665 129.129L103 129.5C102.665 129.129 102.665 129.129 102.664 129.129L102.664 129.13L102.663 129.131L102.657 129.136L102.635 129.156L102.547 129.236C102.506 129.272 102.455 129.318 102.395 129.372C102.34 129.421 102.277 129.477 102.207 129.54C101.912 129.804 101.485 130.184 100.958 130.648C99.9056 131.576 98.4554 132.84 96.8652 134.18C93.9554 136.634 90.6176 139.312 88.3831 140.694C88.3193 140.284 88.2283 139.71 88.1108 138.996C87.857 137.453 87.4789 135.255 86.9819 132.628C85.9881 127.377 84.5175 120.408 82.6111 113.553L82.6112 113.553L82.609 113.546C82.3907 112.804 82.2023 112.081 82.0081 111.335C81.8629 110.777 81.7146 110.208 81.5481 109.609C81.4487 109.217 81.2382 108.803 80.7887 108.678C80.3719 108.561 79.9739 108.764 79.6865 108.968C79.0809 109.399 78.3722 110.269 77.652 111.291C76.2113 113.336 74.5528 116.248 73.3079 118.433L73.2554 118.526C73.2551 118.526 73.2547 118.527 73.2544 118.527C71.7941 121.043 70.1474 121.999 68.912 122.35C68.2871 122.528 67.7521 122.555 67.378 122.54C67.191 122.532 67.0448 122.513 66.9486 122.497C66.9006 122.489 66.8651 122.482 66.8434 122.477Z" fill="#8BB825" stroke="#444444"/>
<path d="M87.3768 126.069C87.3768 126.069 83.6504 129.64 85.3995 129.716C87.1487 129.792 89.4302 127.361 91.4835 127.057C93.5369 126.753 90.1907 125.538 90.1907 125.538L87.3768 126.069Z" fill="white" stroke="#444444" stroke-linecap="round" stroke-linejoin="round"/>
<path d="M109.203 122.043C108.899 121.739 108.443 121.587 107.986 121.663C106.161 121.815 100.914 122.195 98.9364 122.119C95.4381 121.891 85.0953 119.688 85.0953 119.688C84.8672 119.612 84.639 119.688 84.4109 119.764L78.0227 121.663C77.7945 121.739 77.5664 121.891 77.4143 122.043L73.5358 125.614C73.3837 125.766 73.3076 125.842 73.2316 125.993L72.395 127.437C72.0908 128.045 72.1669 128.804 72.6992 129.336L79.0874 129.488C79.4676 129.488 79.8479 129.336 80.1521 129.108L82.0533 127.513C82.2054 127.437 82.2815 127.285 82.3575 127.133C82.8138 126.373 84.639 123.866 87.4529 124.094C87.4529 124.094 81.3689 127.361 82.5096 128.652C83.6504 129.944 88.2894 126.145 89.8104 126.525C91.3314 126.905 91.4075 130.627 99.6969 129.26C100.077 129.184 100.457 129.184 100.838 129.336L108.367 131.463C109.279 131.691 110.268 131.159 110.496 130.248C111.028 128.045 111.561 124.246 109.203 122.043Z" fill="white" stroke="#444444" stroke-linecap="round" stroke-linejoin="round"/>
<path d="M85.9319 121.056L84.3348 121.36C83.5743 121.511 82.8138 121.815 82.2054 122.347L80.4563 123.79C80.1521 124.018 79.9239 124.322 79.6958 124.702L78.6311 126.373C78.479 126.525 78.4029 126.753 78.2508 126.905C77.5664 127.665 75.8172 129.792 77.7185 129.488" fill="white"/>
<path d="M85.9319 121.056L84.3348 121.36C83.5743 121.511 82.8138 121.815 82.2054 122.347L80.4563 123.79C80.1521 124.018 79.9239 124.322 79.6958 124.702L78.6311 126.373C78.479 126.525 78.4029 126.753 78.2508 126.905C77.5664 127.665 75.8172 129.792 77.7185 129.488" stroke="#444444" stroke-linecap="round" stroke-linejoin="round"/>
<path d="M81.3689 121.587L79.6958 122.043C79.1634 122.195 78.7071 122.423 78.3269 122.803L77.034 124.018C76.8819 124.094 76.8059 124.246 76.7299 124.398L74.6005 127.209C74.6005 127.209 73.4597 129.184 74.6005 129.26" fill="white"/>
<path d="M81.3689 121.587L79.6958 122.043C79.1634 122.195 78.7071 122.423 78.3269 122.803L77.034 124.018C76.8819 124.094 76.8059 124.246 76.7299 124.398L74.6005 127.209C74.6005 127.209 73.4597 129.184 74.6005 129.26" stroke="#444444" stroke-linecap="round" stroke-linejoin="round"/>
<path d="M129.889 93.632C129.737 100.545 129.965 107.534 130.649 114.447C130.725 115.358 130.193 116.118 129.28 116.422C123.196 118.245 117.112 119.612 110.876 120.524" stroke="#444444" stroke-linecap="round" stroke-linejoin="round"/>
<path d="M94.7537 77.2993C94.7537 77.2993 95.21 75.7799 97.7957 74.9443C100.381 74.1087 109.279 72.7413 113.842 74.9443C118.405 77.1473 109.659 89.2259 109.659 89.2259L105.629 94.8474L101.978 97.5822L100.381 92.7963L98.252 90.5933C98.252 90.5933 93.765 86.871 94.1453 83.2246C94.5255 79.5782 94.7537 77.2993 94.7537 77.2993Z" fill="white"/>
<path d="M117.188 76.9195C116.504 74.4126 113.234 73.7289 113.234 73.7289C97.6436 71.0701 94.3734 76.7676 94.3734 76.7676C92.4722 81.9332 92.4722 87.5547 94.3734 92.7204C94.3734 92.7204 98.7843 90.8972 99.5448 92.7204C100.305 94.5436 101.674 98.4938 101.674 98.4938C103.804 97.2784 105.629 95.6831 107.074 93.708C109.507 90.5174 115.135 93.708 115.135 93.708C118.862 87.4028 117.188 76.9195 117.188 76.9195ZM113.386 76.7676C107.378 95.6831 102.054 96.5187 102.054 96.5187C100.305 89.5298 98.7843 91.0492 96.3507 86.7191C94.4495 83.2247 95.0579 78.8186 95.4381 77.1474C95.5142 76.7676 95.7423 76.3877 96.1226 76.2358C102.131 73.1972 109.431 74.3366 112.473 74.9444C113.234 75.0963 113.69 75.78 113.538 76.5397C113.462 76.6916 113.462 76.6916 113.386 76.7676Z" fill="#92E3A9"/>
<path d="M117.188 76.9195C116.504 74.4126 113.234 73.7289 113.234 73.7289C97.6436 71.0701 94.3734 76.7676 94.3734 76.7676C92.4722 81.9332 92.4722 87.5547 94.3734 92.7204C94.3734 92.7204 98.7843 90.8972 99.5448 92.7204C100.305 94.5436 101.674 98.4938 101.674 98.4938C103.804 97.2784 105.629 95.6831 107.074 93.708C109.507 90.5174 115.135 93.708 115.135 93.708C118.862 87.4028 117.188 76.9195 117.188 76.9195ZM113.386 76.7676C107.378 95.6831 102.054 96.5187 102.054 96.5187C100.305 89.5298 98.7843 91.0492 96.3507 86.7191C94.4495 83.2247 95.0579 78.8186 95.4381 77.1474C95.5142 76.7676 95.7423 76.3877 96.1226 76.2358C102.131 73.1972 109.431 74.3366 112.473 74.9444C113.234 75.0963 113.69 75.78 113.538 76.5397C113.462 76.6916 113.462 76.6916 113.386 76.7676Z" fill="#8BB825" stroke="#444444" stroke-linecap="round" stroke-linejoin="round"/>
<path d="M91.6842 48C91.6842 48 75.8959 50.673 84.6375 59.4555C94.271 69.1545 91.6842 48 91.6842 48Z" fill="#444444"/>
<path d="M86.4642 69.3228C86.4642 69.3228 83.2701 56.4086 89.3541 50.1794C95.4381 43.9502 102.054 42.7347 106.998 45.7734C111.941 48.812 113.994 56.4086 113.234 60.3588C112.473 64.3091 112.854 78.3628 106.085 84.1362C99.3167 89.9096 95.1339 88.5422 90.647 80.5658C87.605 75.4001 86.2361 73.8808 86.4642 69.3228Z" fill="white" stroke="#444444" stroke-linecap="round" stroke-linejoin="round"/>
<path d="M109.964 66.816C109.964 66.816 104.868 61.7263 103.271 55.8009C101.674 49.8756 100.838 48.8121 94.9818 51.7747C89.126 54.7374 80.076 50.7872 82.4336 43.4185C84.9432 35.67 92.5482 45.6975 99.9251 43.1906C107.302 40.6837 112.473 45.2417 112.473 51.9267C112.473 51.9267 116.884 56.2567 112.473 67.3478L109.964 66.816Z" fill="#444444"/>
<path d="M108.367 65.9044C108.367 65.9044 109.659 58.8396 113.234 59.4473C116.808 60.131 114.299 70.5383 110.04 69.3988" fill="white"/>
<path d="M108.367 65.9044C108.367 65.9044 109.659 58.8396 113.234 59.4473C116.808 60.131 114.299 70.5383 110.04 69.3988" stroke="#444444" stroke-linecap="round" stroke-linejoin="round"/>
<path d="M91.2554 68.3353C91.2554 68.3353 89.8104 74.8684 90.2667 76.0079C90.723 77.1474 95.0579 76.3118 95.0579 76.3118" fill="white"/>
<path d="M91.2554 68.3353C91.2554 68.3353 89.8104 74.8684 90.2667 76.0079C90.723 77.1474 95.0579 76.3118 95.0579 76.3118" stroke="#444444" stroke-linecap="round" stroke-linejoin="round"/>
<path d="M95.7423 79.1984C95.7423 79.1984 99.1646 80.5658 102.131 76.0838L95.7423 79.1984Z" fill="white"/>
<path d="M95.7423 79.1984C95.7423 79.1984 99.1646 80.5658 102.131 76.0838" stroke="#444444" stroke-linecap="round" stroke-linejoin="round"/>
<path d="M88.9739 68.8671C89.126 69.4748 88.8978 70.0065 88.5936 70.0825C88.2894 70.1585 87.9092 69.7027 87.7571 69.095C87.605 68.4872 87.7571 67.9555 88.1373 67.8795C88.5176 67.8035 88.8218 68.2593 88.9739 68.8671Z" fill="#444444"/>
<path d="M97.2633 68.1833C97.4154 68.7911 97.2633 69.3228 96.8831 69.3988C96.5028 69.4748 96.1986 69.019 96.0465 68.4112C95.8944 67.8035 96.0465 67.2717 96.4268 67.1958C96.807 67.1198 97.1873 67.5756 97.2633 68.1833Z" fill="#444444"/>
<path d="M90.723 68.5632C90.8751 70.3104 89.202 71.9057 86.8445 72.0576C84.4869 72.2096 82.5096 71.0701 82.3575 69.3229C82.2054 67.5756 84.0306 66.816 86.3121 66.5881C88.5936 66.3602 90.5709 66.8919 90.723 68.5632Z" stroke="#444444" stroke-linecap="round" stroke-linejoin="round"/>
<path d="M101.446 67.4997C101.598 69.2469 99.9251 70.8422 97.5675 70.9941C95.21 71.146 93.2327 70.0065 93.0806 68.2593C92.9285 66.5121 94.7537 65.7524 97.0352 65.5245C99.3167 65.2967 101.294 65.8284 101.446 67.4997Z" stroke="#444444" stroke-linecap="round" stroke-linejoin="round"/>
<path d="M90.723 68.5632L93.0806 68.3353" stroke="#444444" stroke-linecap="round" stroke-linejoin="round"/>
<path d="M101.142 66.6641L110.04 61.4224" stroke="#444444" stroke-linecap="round" stroke-linejoin="round"/>
<path d="M111.561 74.7924L111.941 75.78" stroke="#444444" stroke-linecap="round" stroke-linejoin="round"/>
<path d="M85.7037 65.8285C85.7037 65.8285 87.0726 64.1572 88.6697 64.9169L85.7037 65.8285Z" fill="white"/>
<path d="M85.7037 65.8285C85.7037 65.8285 87.0726 64.1572 88.6697 64.9169" stroke="#444444" stroke-linecap="round" stroke-linejoin="round"/>
<path d="M99.4688 65.0688C99.4688 65.0688 97.1112 62.7898 94.8297 64.3851L99.4688 65.0688Z" fill="white"/>
<path d="M99.4688 65.0688C99.4688 65.0688 97.1112 62.7898 94.8297 64.3851" stroke="#444444" stroke-linecap="round" stroke-linejoin="round"/>
<path d="M54.3712 124.018C54.3712 124.018 57.4892 115.738 65.3224 117.029C73.1555 118.321 67.1476 124.854 63.4211 125.462C63.4211 125.462 62.8127 123.183 54.3712 124.018Z" fill="white" stroke="#444444" stroke-linecap="round" stroke-linejoin="round"/>
<path d="M47.7548 128.728C46.6901 129.792 44.2565 129.868 45.9296 127.589C47.2985 125.766 49.1237 124.398 51.2531 123.639C54.9796 121.967 56.4245 122.347 59.7707 121.587C63.1169 120.828 63.7253 122.195 64.8661 122.879C67.6038 124.398 68.2883 124.626 68.9727 126.145C69.6572 127.665 70.4177 129.64 68.2883 129.64C66.311 129.64 66.1589 126.373 64.2577 126.525C62.3564 126.677 61.4438 129.64 60.151 129.64H59.6186C58.4779 129.64 58.4018 128.652 59.0863 127.209C59.7707 125.766 60.5312 124.398 60.5312 124.398C59.3905 125.006 58.4779 125.918 57.9455 127.133C57.0329 129.108 56.8808 129.868 55.2077 129.868C53.5346 129.868 53.6867 128.652 55.2838 125.842C54.2951 126.449 53.5346 127.209 52.9262 128.196C52.0897 129.716 51.7094 129.64 50.5687 129.64C49.1237 129.64 49.2758 127.285 51.7855 125.766C51.9376 125.842 51.3292 125.158 47.7548 128.728Z" fill="white" stroke="#444444" stroke-linecap="round" stroke-linejoin="round"/>
<path d="M57.5653 123.107C57.5653 123.107 56.5766 123.031 55.9682 124.702L57.5653 123.107Z" fill="white"/>
<path d="M57.5653 123.107C57.5653 123.107 56.5766 123.031 55.9682 124.702" stroke="#444444" stroke-width="0.75" stroke-linecap="round" stroke-linejoin="round"/>
<path d="M96.5 132.5H73C72.5437 132.5 71.5 131.456 71.5 131L73.0034 129.184L97.3394 129.944V131.083C97.3394 131.539 96.9563 132.5 96.5 132.5Z" fill="#858585" stroke="#444444" stroke-linecap="round" stroke-linejoin="round"/>
<path d="M69.5 132.5H25.5C24.7395 132.5 23.4949 131.387 23.2667 130.627L13.5 99C13.2718 98.3922 13.3916 97.8039 14 97.5C14.1521 97.424 14.8479 97.5 15 97.5L59.5 97.5C60.2605 97.5 61.5959 97.8101 61.8241 98.5697L71.6345 130.248C71.8627 130.855 71.5585 131.539 70.9501 131.843C70.798 131.919 69.6521 132.5 69.5 132.5Z" fill="#999999" stroke="#444444" stroke-linecap="round" stroke-linejoin="round"/>
<path d="M73.6118 130.248L63.8774 98.5697C63.6493 97.8101 62.7605 97.576 62 97.5H59.5C60.2605 97.5 61.2719 97.7403 61.5 98.5L71.6345 130.248C71.8626 130.855 71.5584 131.539 70.95 131.843C70.7979 131.919 69.6521 132.5 69.5 132.5H72.5C73.1844 132.5 73.7639 131.387 73.7639 130.703C73.6878 130.551 73.6878 130.399 73.6118 130.248Z" fill="#858585" stroke="#444444" stroke-linecap="round" stroke-linejoin="round"/>
<path d="M44.9697 115.5C45.1673 116.716 44.377 117.797 43.1915 118C43.0598 118 42.9281 118 42.7964 118C41.4133 117.932 40.2278 116.919 40.0303 115.5C39.8327 114.351 40.623 113.203 41.8085 113C41.9402 113 42.0719 113 42.2036 113C43.5867 113.068 44.7063 114.081 44.9697 115.5Z" fill="#CCCCCC" stroke="#444444" stroke-linecap="round" stroke-linejoin="round"/>
<path d="M117.59 19.87L123.048 17.1579L117.59 14.1121V10.9157L126.484 16.3614V18.2126L117.59 23.0449V19.87Z" fill="#FF6F3D"/>
<path d="M116.197 9L111.407 25.1758H108.366L113.156 9H116.197Z" fill="#FF6F3D"/>
<path d="M106.895 23.0449L98 18.2126V16.3614L106.895 10.9157V14.1121L101.437 17.1579L106.895 19.87V23.0449Z" fill="#FF6F3D"/>
<path d="M15.613 37.8561C18.1748 35.7958 21.8251 35.7958 24.3869 37.8561L30.266 42.5843C33.7344 45.3737 33.753 50.6492 30.3043 53.4629L24.4252 58.2596C21.8493 60.3613 18.1506 60.3613 15.5748 58.2596L9.69563 53.4629C6.24699 50.6492 6.26555 45.3737 9.73391 42.5843L15.613 37.8561Z" fill="#5FC1E8"/>
<path d="M49.3905 18.1221C50.0854 18.5011 50.0854 19.4989 49.3905 19.8779L41.4789 24.1934C40.8125 24.5568 40 24.0745 40 23.3155L40 14.6845C40 13.9255 40.8125 13.4432 41.4789 13.8066L49.3905 18.1221Z" fill="#5FC1E8"/>
<path d="M138.429 53.8575C137.782 53.4691 137.782 52.5309 138.429 52.1425L145.486 47.9087C146.152 47.5088 147 47.9889 147 48.7662L147 57.2338C147 58.0111 146.152 58.4912 145.486 58.0913L138.429 53.8575Z" fill="white"/>
<rect x="29" y="133" width="60" height="6" fill="#444444"/>
</g>
<defs>
<clipPath id="clip0_814_530">
<rect width="160" height="160" fill="white"/>
</clipPath>
</defs>
</svg>
