<svg width="160" height="160" viewBox="0 0 160 160" fill="none" xmlns="http://www.w3.org/2000/svg">
<g clip-path="url(#clip0_958_225)">
<path d="M68.4795 39.339C72.8712 35.8071 79.1288 35.8071 83.5205 39.339L137.456 82.716C143.402 87.4978 143.434 96.5415 137.522 101.365L83.5861 145.371C79.1703 148.973 72.8297 148.973 68.4139 145.371L14.4782 101.365C8.5663 96.5415 8.5981 87.4978 14.5439 82.716L68.4795 39.339Z" fill="#07569D"/>
<path d="M116.045 51.9573L114.957 49.71" stroke="#444444" stroke-linecap="round" stroke-linejoin="round"/>
<path d="M120.612 40.358L111.477 36.8057L104.59 72.6914H128.876C129.094 72.4014 129.239 72.0389 129.311 71.6039C129.311 71.024 128.514 70.0815 128.514 69.864C128.586 69.6465 129.891 69.7915 130.399 68.6316C130.979 67.4716 129.094 66.0217 129.094 65.3692C129.094 64.7168 130.109 63.0494 129.891 61.3094C129.601 59.5695 126.629 58.5546 126.629 58.5546C126.629 58.5546 127.789 56.9597 127.861 55.6547C127.934 54.3498 123.874 53.5523 123.874 53.2623C123.874 52.9724 126.121 51.8849 126.556 50.145C126.991 48.4051 125.759 47.4626 125.034 46.6652C124.309 45.8677 123.584 42.4604 123.584 42.4604L120.612 40.358Z" fill="#444444"/>
<path d="M107.345 85.7402C106.983 89.8 107.998 104.009 107.998 104.009C109.085 111.404 114.5 119.5 114.5 119.5C105 127.5 104 128 94 136.5C94 136.5 91.3233 116.189 91.0333 115.174C90.7434 114.159 86.3936 103.284 86.7561 101.834C87.1185 100.384 91.7583 77.4031 91.7583 77.4031L97.268 72.7634L101.98 72.6184L108.577 72.4009C108.65 72.4009 107.708 81.7529 107.345 85.7402Z" fill="#5FC1E8" stroke="#444444" stroke-linecap="round" stroke-linejoin="round"/>
<path d="M101.255 67.1813C99.8779 66.6014 96.1081 61.5991 96.1081 61.5991L97.268 72.7636C97.268 72.7636 96.1081 76.4609 95.6006 78.2733C95.0931 80.1582 94.0782 83.1306 97.1955 84.7255C100.313 86.3204 105.388 83.4205 105.968 81.0282C106.475 78.6358 110.462 64.789 110.462 64.789C110.462 64.789 102.633 67.7613 101.255 67.1813Z" fill="white" stroke="#444444" stroke-linecap="round" stroke-linejoin="round"/>
<path d="M89.5107 74.7211C87.7708 75.736 83.9285 92.6277 84.001 98.2099C84.0735 103.792 89.2932 110.244 89.2932 110.244C89.2932 110.244 87.9883 106.62 88.0608 104.952C88.1333 103.285 88.3508 102.27 89.1483 97.485C89.9457 92.7002 97.3403 71.6762 97.3403 71.6762C97.3403 71.6762 96.6154 70.6613 89.5107 74.7211Z" fill="#666666" stroke="#444444" stroke-linecap="round" stroke-linejoin="round"/>
<path d="M123.874 45.795C123.874 45.795 122.786 39.5603 122.134 38.8353C121.481 38.1103 120.394 38.1103 120.104 37.3854C119.814 36.6604 119.379 34.9205 118.147 33.9055C116.914 32.8906 112.854 33.9055 112.347 33.6156C111.839 33.3256 107.49 30.4982 104.952 31.0782C102.415 31.6582 96.2527 37.0229 95.0203 38.1828C93.7879 39.3428 93.4254 39.9952 93.6429 40.7202C93.8604 41.4452 94.1504 42.5326 94.1504 42.5326C94.1504 42.5326 91.5405 44.4175 91.3955 45.505C91.2505 46.5924 91.5405 47.3899 91.323 47.8974C91.1055 48.4048 84.5083 49.6373 84.5083 53.6246C84.5083 57.6119 86.2482 59.2068 86.1033 60.3667C85.9583 61.5267 84.3633 62.1791 84.6533 64.2815C85.0158 66.3839 85.5233 66.8189 85.5233 66.8189C85.5233 66.8189 84.7258 67.9064 84.7258 68.5588C84.7258 69.2113 86.1033 71.3862 86.4657 71.7487C86.8282 72.1111 85.6683 73.3436 85.8858 74.3585C86.1033 75.3735 87.1182 76.026 87.6257 76.3159C88.1332 76.6059 87.4807 76.7509 88.0607 77.5484C88.6406 78.3458 90.6705 79.2883 90.888 79.6508C91.1055 79.9408 90.598 81.6082 90.308 82.1157C90.308 82.1881 90.308 82.1881 90.2355 82.2606C90.0906 82.8406 90.3805 83.4206 90.9605 83.5656C91.613 83.7831 92.4104 84.0006 92.4104 84.0006C92.4104 84.0006 90.888 83.0581 91.903 82.0432C92.9179 81.0282 93.3529 81.2457 93.9329 79.9408C94.3678 78.9258 94.2953 77.6934 93.6429 76.7509C93.2804 76.0984 92.8454 75.446 93.3529 75.156C93.9329 74.866 94.5128 74.576 95.0203 74.141C95.3828 73.7786 95.8903 73.4161 95.7453 72.6911C95.6728 71.9662 95.3103 71.9662 95.6728 71.4587C95.8903 71.1687 96.1803 70.8787 96.4702 70.5887C96.4702 70.5887 97.4127 68.9938 97.4127 68.7038C97.4127 68.4138 96.4702 59.2068 96.4702 59.2068L111.984 43.4751L115.319 48.1873" fill="#444444"/>
<path d="M129.819 70.9513C130.689 70.9513 130 106 130 106C123 114 110.758 123 110.5 122.5C108.108 117.86 100.893 103.357 101.255 99.9498C101.618 96.5425 109.085 70.1538 109.085 70.1538C109.085 70.1538 129.021 70.9513 129.819 70.9513Z" fill="#666666" stroke="#444444" stroke-linecap="round" stroke-linejoin="round"/>
<path d="M113.139 122.123C112.658 120.173 111.297 118.605 109.368 118.039C106.399 120.855 102.552 124.364 101.625 124.985C100.128 125.989 91.5641 128.01 90.9225 128.441C90.2809 128.871 88.6789 135.421 89.0143 136.229C89.3496 137.038 95.3952 136.808 96.1332 136.83C96.9424 136.804 97.7987 136.54 98.3925 136.039C99.0341 135.609 99.6279 135.107 100.174 134.534C100.649 134.01 99.1484 133.775 99.1484 133.775C99.1484 133.775 100.098 132.726 101.166 131.699C102.235 130.673 101.876 129.984 101.876 129.984C101.876 129.984 107.653 127.041 113.572 124.003C113.452 123.36 113.331 122.718 113.139 122.123Z" fill="white" stroke="#444444" stroke-linecap="round" stroke-linejoin="round"/>
<path d="M92.0921 129.723C92.0921 129.723 90.5842 135.797 91.1334 136.462L92.0921 129.723Z" fill="white"/>
<path d="M92.0921 129.723C92.0921 129.723 90.5842 135.797 91.1334 136.462" stroke="#444444" stroke-linecap="round" stroke-linejoin="round"/>
<path d="M93.9268 130.456C93.9268 130.456 92.8945 136.314 93.1334 136.671L93.9268 130.456Z" fill="white"/>
<path d="M93.9268 130.456C93.9268 130.456 92.8945 136.314 93.1334 136.671" stroke="#444444" stroke-linecap="round" stroke-linejoin="round"/>
<path d="M96.3548 130.378C96.3548 130.378 95.0592 135.69 95.5379 136.712L96.3548 130.378Z" fill="white"/>
<path d="M96.3548 130.378C96.3548 130.378 95.0592 135.69 95.5379 136.712" stroke="#444444" stroke-linecap="round" stroke-linejoin="round"/>
<path d="M121.844 82.6956L126.049 105L110.5 115L114.5 125C114.5 125 140.58 111.61 140 109C139.42 106.39 131.588 75.1675 130.5 73.5001C129.413 71.8327 124.889 71.2412 124.889 71.2412" fill="#666666"/>
<path d="M121.844 82.6956L126.049 105L110.5 115L114.5 125C114.5 125 140.58 111.61 140 109C139.42 106.39 131.588 75.1675 130.5 73.5001C129.413 71.8327 124.889 71.2412 124.889 71.2412" stroke="#444444" stroke-linecap="round" stroke-linejoin="round"/>
<path d="M106.489 116.381L112.149 128.334L116.956 126.213L110.83 113.127L106.489 116.381Z" fill="white" stroke="#444444" stroke-linecap="round" stroke-linejoin="round"/>
<path d="M112.202 62.0342C112.129 62.7591 111.912 64.789 111.187 65.2965C110.535 65.804 110.027 67.2539 110.027 67.2539C110.027 67.2539 110.1 67.9789 110.245 68.6314C110.607 70.0813 109.012 71.0962 109.157 72.6912C109.302 74.2861 111.114 75.0835 111.332 76.606C111.477 78.0559 110.1 79.4333 111.042 80.7382C111.477 81.3182 112.927 82.4057 113.362 81.3182L112.709 82.9131C112.419 83.7106 114.304 84.6531 115.319 85.1605C116.334 85.668 115.899 86.0305 116.117 86.1755C116.334 86.3205 117.567 86.0305 119.162 84.4356C120.104 83.4931 119.524 82.9856 119.814 82.1882C120.104 81.4632 121.046 81.1732 121.264 80.3033C121.626 79.0708 121.264 78.1284 122.351 77.2584C122.931 76.7509 124.019 76.7509 124.309 75.881C124.599 75.0835 123.729 74.2861 123.511 73.5611C122.786 71.3137 126.194 71.6037 126.629 69.9363C126.991 68.3414 126.339 63.7741 126.339 63.7741" fill="#444444"/>
<path d="M97.413 46.0847C96.9055 46.2297 94.3681 57.9017 94.3681 59.1341C94.3681 60.3665 97.6304 65.9488 98.4279 67.3262C99.2979 68.7036 100.748 69.5011 102.778 69.4286C104.808 69.3561 110.897 66.6737 112.42 65.5138C113.942 64.3538 118.364 52.8994 118.799 51.1595C119.234 49.4196 113.435 40.9375 113.435 40.9375C113.435 40.9375 97.9204 45.9398 97.413 46.0847Z" fill="white" stroke="#444444" stroke-linecap="round" stroke-linejoin="round"/>
<path d="M104.155 58.0468C103.14 57.6844 102.415 57.1769 102.415 56.7419C102.487 56.3069 104.372 53.6246 104.59 52.8996C104.807 52.1746 104.662 49.9272 104.662 49.9272" stroke="#444444" stroke-linecap="round" stroke-linejoin="round"/>
<path d="M115.102 61.2367C115.102 61.2367 115.609 61.2367 117.712 59.7143C119.814 58.1919 120.394 56.307 119.669 54.9295C118.944 53.5521 117.712 54.712 117.712 54.712L115.102 61.2367Z" fill="white" stroke="#444444" stroke-linecap="round" stroke-linejoin="round"/>
<path d="M95.093 55.0744C95.093 55.0744 94.2955 51.3771 94.803 49.8546C95.3105 48.4047 96.4704 48.9847 96.4704 48.9847L95.093 55.0744Z" fill="white" stroke="#444444" stroke-linecap="round" stroke-linejoin="round"/>
<path d="M102.27 62.6866C100.313 61.9617 100.313 57.9019 100.313 57.9019C100.313 57.9019 101.908 59.7868 102.85 60.2217C103.793 60.6567 107.49 60.9467 107.49 60.9467C107.49 60.9467 103.72 63.1941 102.27 62.6866Z" fill="white" stroke="#444444" stroke-linecap="round" stroke-linejoin="round"/>
<path d="M109.665 49.5649C113.362 49.9274 113.652 52.1023 113.652 52.1023L109.665 49.5649Z" fill="white"/>
<path d="M109.665 49.5649C113.362 49.9274 113.652 52.1023 113.652 52.1023" stroke="#444444" stroke-linecap="round" stroke-linejoin="round"/>
<path d="M99.9503 48.5499C102.415 46.1575 104.663 48.1149 104.663 48.1149L99.9503 48.5499Z" fill="white"/>
<path d="M99.9503 48.5499C102.415 46.1575 104.663 48.1149 104.663 48.1149" stroke="#444444" stroke-linecap="round" stroke-linejoin="round"/>
<path d="M110.172 52.3199C110.68 52.4648 110.897 53.1173 110.68 53.7698C110.462 54.4222 109.955 54.8572 109.52 54.7122C109.012 54.5672 108.795 53.9148 109.012 53.2623C109.23 52.5373 109.737 52.1024 110.172 52.3199Z" fill="#444444"/>
<path d="M102.56 50.1446C103.068 50.2896 103.285 50.9421 103.068 51.5946C102.85 52.247 102.343 52.682 101.908 52.537C101.4 52.392 101.183 51.7396 101.4 51.0871C101.545 50.4346 102.053 49.9996 102.56 50.1446Z" fill="#444444"/>
<path d="M29.8778 36.782C29.8778 36.782 34.5408 32.6371 38.5562 33.0257C42.5716 33.4143 43.2192 35.2277 41.8592 36.4582C41.2115 37.0411 40.6287 37.6887 40.1753 38.4011C40.1753 38.4011 50.4728 40.9917 50.7318 45.9785C50.9909 50.9653 47.4289 51.9368 47.4289 52.714C47.4289 53.4911 52.8691 58.9961 49.4366 62.3638C46.0041 65.7315 43.9964 65.4077 43.0897 66.1201C42.183 66.8325 42.3773 67.2211 40.7582 68.063C39.1391 68.8402 40.7582 69.2936 33.1808 71.4955C25.6034 73.6975 15.565 76.2881 11.4848 72.9204C7.4047 69.5526 12.0677 65.6668 11.4848 63.8534C10.902 62.04 5.0732 61.8457 7.4047 54.6569C9.73621 47.4681 15.7593 38.5307 21.3937 36.3934C27.0282 34.2562 29.8778 36.782 29.8778 36.782Z" fill="#444444" stroke="#444444" stroke-linecap="round" stroke-linejoin="round"/>
<path d="M31.8244 72.6716C31.8244 72.6716 24.0527 75.7803 19.1307 78.1118C14.2086 80.4433 12.0714 79.6014 9.86942 85.1711C7.66745 90.7408 5.65976 113.02 6.04834 114.509C6.43693 115.999 9.86942 117.424 11.4238 115.74C12.9133 114.056 15.9572 94.8857 15.9572 94.8857C15.9572 94.8857 24 107.788 24 108.5C26.5 110.5 51.2797 131.746 55.8094 134.334C58.572 120.334 52.2899 107.644 50.3469 104.859C49.3755 103.564 48.5983 102.139 47.9507 100.65L48.9221 89.7693C48.9221 89.7693 58.3161 103.482 60 104C61.6839 104.518 73.0143 83.0986 73.0143 83.0986C73.0143 83.0986 79.685 83.8758 81.0451 83.4872C82.4699 83.0986 84.2833 80.3785 84.6719 79.0185C85.0605 77.7232 85.449 75.7155 84.6719 76.2984C83.8947 76.8813 82.988 79.3423 82.988 79.3423C82.988 79.3423 80.2679 79.148 78.9726 78.1118L76.8354 76.4927C76.8354 76.4927 79.5555 75.2622 79.8793 74.1612C80.1384 73.0602 79.8793 72.7364 79.0374 73.2545C78.1955 73.7726 76.9002 74.485 75.7344 75.2622C74.5039 76.0394 72.8201 75.4565 71.3305 78.6947C70.359 80.7671 58.7015 94.8857 58.7015 94.8857C58.7015 94.8857 54.4918 82.0624 52.3546 76.7518C50.2174 71.3763 50.0231 70.2754 44.9715 70.0163C39.9199 69.7572 31.8244 72.6716 31.8244 72.6716Z" fill="white" stroke="#444444" stroke-linecap="round" stroke-linejoin="round"/>
<path d="M81.4299 82.7647C81.4299 82.7647 82.9194 82.117 83.308 81.4694C83.6966 80.8217 83.7614 76.7416 83.6318 76.094C83.5023 75.4463 82.8547 75.7054 82.6604 75.9644C82.4661 76.2235 81.6889 80.4979 81.5594 81.5342C81.4946 81.9875 81.4299 82.3761 81.4299 82.7647Z" fill="white" stroke="#444444" stroke-linecap="round" stroke-linejoin="round"/>
<path d="M80.3289 80.8218C80.3289 80.8218 81.6889 77.0655 82.4013 77.1302C83.1137 77.195 82.9194 77.6483 82.5956 78.9436C82.2718 80.2389 81.7537 83.218 81.106 83.4771C80.4584 83.7362 79.4222 83.0237 79.4222 83.0237L80.3289 80.8218Z" fill="white" stroke="#444444" stroke-linecap="round" stroke-linejoin="round"/>
<path d="M77.1555 82.376L78.9041 81.5341C78.9041 81.5341 78.9041 77.5835 79.6165 77.6482C80.3289 77.713 80.5232 80.8865 80.6527 82.1817C80.7823 83.477 80.1994 83.6713 78.7746 83.6713C77.7384 83.6065 76.7669 83.4122 75.7954 83.0237" fill="white"/>
<path d="M77.1555 82.376L78.9041 81.5341C78.9041 81.5341 78.9041 77.5835 79.6165 77.6482C80.3289 77.713 80.5232 80.8865 80.6527 82.1817C80.7823 83.477 80.1994 83.6713 78.7746 83.6713C77.7384 83.6065 76.7669 83.4122 75.7954 83.0237" stroke="#444444" stroke-linecap="round" stroke-linejoin="round"/>
<path d="M66.4046 85.4199C62.9073 89.8886 58.8919 94.6812 58.8919 94.6812C58.8919 94.6812 54.6823 81.8579 52.5451 76.5472C50.4079 71.1718 50.2136 70.0708 45.162 69.8118C40.1104 69.488 31.9501 72.3376 31.9501 72.3376C31.9501 72.3376 24.1784 75.4462 19.2564 77.7778C14.3343 80.0445 12.1971 79.2673 9.9951 84.837C7.79312 90.4067 5.78544 112.686 6.17402 114.175C6.56261 115.665 9.9951 117.09 11.5494 115.406C13.1038 113.722 16.0829 94.5516 16.0829 94.5516C16.0829 94.5516 24 107.788 24 108.5C25.5 109.5 29 112.5 30 113.5C48.7816 117.969 51.8327 116.377 55.3299 114.888C54.0994 111.261 52.4803 107.764 50.5374 104.525C49.5659 103.23 48.7888 101.805 48.1411 100.316L49.1126 89.4353C49.1126 89.4353 57.0786 105.95 58.7624 106.468C59.9282 106.792 66.016 96.0412 69.9018 88.9172C68.1532 88.5934 66.7284 87.1685 66.4046 85.4199Z" fill="#95C03D" stroke="#444444" stroke-linecap="round" stroke-linejoin="round"/>
<path d="M49.1127 89.4349L48.7889 79.3965" stroke="#444444" stroke-linecap="round" stroke-linejoin="round"/>
<path d="M20.0982 98.1138C22.3002 100.381 25.2145 101.87 28.3232 102.323C33.8282 103.295 42.5713 99.6033 42.5713 99.6033" stroke="#444444" stroke-linecap="round" stroke-linejoin="round"/>
<path d="M23.5957 100.898C23.5957 100.898 25.8624 104.137 32.5331 105.885" stroke="#444444" stroke-linecap="round" stroke-linejoin="round"/>
<path d="M26.251 59.7086C26.251 59.7086 27.5462 66.8974 27.4815 72.0785C27.3519 77.3244 29.2949 80.2388 30.5254 82.376C31.7559 84.5132 35.0589 88.8524 35.6417 87.1685C36.2246 85.5494 36.2246 71.3661 36.2246 68.5165C36.2246 65.6669 36.3541 63.4649 36.3541 63.4649C36.3541 63.4649 27.8701 57.5066 26.251 59.7086Z" fill="white" stroke="#444444" stroke-linecap="round" stroke-linejoin="round"/>
<path d="M35.7065 43.8413C35.7065 43.8413 32.0798 45.0718 30.5902 46.6909C29.1006 48.31 29.1006 47.9862 29.554 49.7348C30.0073 51.4835 30.2664 53.6854 28.3234 55.175C27.0929 56.1465 25.7329 56.8589 24.3081 57.3122C23.9842 57.377 23.4014 54.7864 21.588 57.1179C19.7746 59.4494 22.1061 63.4 23.7252 63.6591C24.5671 63.9182 25.4738 63.6591 26.0567 62.9467C26.0567 62.9467 31.1083 68.7107 35.2532 70.2003C39.3981 71.6898 43.0896 66.8973 44.1259 62.04C45.1621 57.1827 43.3487 53.8797 43.2192 51.9368C43.0896 49.9939 43.4135 48.6338 41.7296 46.6909C39.9162 44.748 35.7065 43.8413 35.7065 43.8413Z" fill="white" stroke="#444444" stroke-linecap="round" stroke-linejoin="round"/>
<path d="M39.8513 49.8643C38.9446 49.929 38.2322 50.6414 38.2322 51.5481C38.2322 52.9082 41.0818 57.1826 40.4342 58.0245C39.8513 58.8017 38.0379 59.0608 38.0379 59.0608" stroke="#444444" stroke-linecap="round" stroke-linejoin="round"/>
<path d="M32.274 59.5791C32.274 59.5791 33.375 62.4287 37.0666 61.522" stroke="#444444" stroke-linecap="round" stroke-linejoin="round"/>
<path d="M33.7635 49.6055C32.533 49.735 31.4968 50.5769 31.0434 51.7427" stroke="#444444" stroke-linecap="round" stroke-linejoin="round"/>
<path d="M40.5638 49.7993C41.4057 50.0584 41.9886 50.7708 42.1829 51.6127" stroke="#444444" stroke-linecap="round" stroke-linejoin="round"/>
<path d="M34.7998 55.2397C35.1217 55.2397 35.3826 54.7178 35.3826 54.074C35.3826 53.4301 35.1217 52.9082 34.7998 52.9082C34.4779 52.9082 34.2169 53.4301 34.2169 54.074C34.2169 54.7178 34.4779 55.2397 34.7998 55.2397Z" fill="#444444"/>
<path d="M41.4703 53.5559C41.4703 54.2035 41.2113 54.7216 40.8875 54.7216C40.5636 54.7216 40.3046 54.2035 40.3046 53.5559C40.3046 52.9082 40.5636 52.3901 40.8875 52.3901C41.1465 52.3901 41.4703 52.9082 41.4703 53.5559Z" fill="#444444"/>
<path d="M16.5364 89.9533C16.5364 89.9533 20.746 87.3627 22.3004 85.7436C23.7899 84.1245 26.51 82.894 27.5463 81.793C28.5825 80.6921 29.3596 79.2672 29.3596 80.1739C29.4892 80.9511 29.2301 81.7283 28.7768 82.3111C28.1939 83.0883 27.6758 83.8655 27.1577 84.7074C26.9634 85.096 28.9711 84.1245 31.3673 83.4121C33.7636 82.6997 34.9941 82.635 34.9941 82.894C34.9941 83.1531 34.4112 83.6712 34.4112 83.6712C34.4112 83.6712 36.3542 83.4769 36.3542 83.8655C36.3542 84.2541 34.9293 85.1608 34.9293 85.1608C34.9293 85.1608 36.4189 85.4846 36.0303 86.0675C35.6418 86.6503 34.7351 86.9094 33.8284 87.298C32.5331 87.8161 30.7845 88.399 30.7845 88.399C30.7845 88.399 35.1236 88.4637 34.6055 88.9818C34.0874 89.5 32.2093 89.5647 30.6549 89.8885C29.1654 90.2124 26.7043 91.3781 24.5023 91.8962C23.1423 92.22 21.7823 92.4143 20.3574 92.6086L19.1917 92.9325C19.1917 92.9325 16.8602 100.316 15.6944 105.756C14.5287 111.196 14.6582 117.931 10.06 118.644C5.46172 119.356 5.72077 114.887 6.757 109.901C7.79322 104.914 16.5364 89.9533 16.5364 89.9533Z" fill="white" stroke="#444444" stroke-linecap="round" stroke-linejoin="round"/>
<path d="M34.4111 83.6714L28.5176 85.4848" stroke="#444444" stroke-linecap="round" stroke-linejoin="round"/>
<path d="M34.8644 85.2256L29.489 87.039" stroke="#444444" stroke-linecap="round" stroke-linejoin="round"/>
<path d="M12.521 97.0127C9.99524 101.611 7.21039 107.181 6.62751 109.901C5.59129 114.952 5.33223 119.356 9.93048 118.644C14.5287 117.931 14.3992 111.196 15.5649 105.756C15.9535 103.942 16.5364 101.87 17.0545 99.9271C15.4354 99.2147 13.8811 98.2432 12.521 97.0127Z" fill="#95C03D" stroke="#444444" stroke-linecap="round" stroke-linejoin="round"/>
<path d="M24.613 131.856C27.1748 129.796 30.8251 129.796 33.3869 131.856L39.266 136.584C42.7344 139.374 42.753 144.649 39.3043 147.463L33.4252 152.26C30.8493 154.361 27.1506 154.361 24.5747 152.26L18.6956 147.463C15.247 144.649 15.2655 139.374 18.7339 136.584L24.613 131.856Z" fill="#95C03D"/>
<path d="M26.3905 17.1221C27.0854 17.5011 27.0854 18.4989 26.3905 18.8779L18.4789 23.1934C17.8125 23.5568 17 23.0745 17 22.3155L17 13.6845C17 12.9255 17.8125 12.4432 18.4789 12.8066L26.3905 17.1221Z" fill="white"/>
<path d="M140.429 129.857C139.782 129.469 139.782 128.531 140.429 128.143L147.486 123.909C148.152 123.509 149 123.989 149 124.766L149 133.234C149 134.011 148.152 134.491 147.486 134.091L140.429 129.857Z" fill="white"/>
<circle cx="95.5" cy="8.5" r="4.5" stroke="#9ADAF3" stroke-width="4"/>
<circle cx="139" cy="24" r="9" stroke="white" stroke-width="4"/>
</g>
<defs>
<clipPath id="clip0_958_225">
<rect width="160" height="160" fill="white"/>
</clipPath>
</defs>
</svg>
